if (_typeface_js && _typeface_js.loadFace) _typeface_js.loadFace({"glyphs":{"¦":{"x_min":26.453125,"x_max":299.75,"ha":278,"o":"m 122 -193 q 106 -203 115 -198 q 85 -212 96 -208 q 64 -221 74 -217 q 46 -227 53 -225 l 26 -210 l 103 331 q 139 351 121 343 q 177 367 158 360 l 200 350 l 122 -193 m 223 519 q 207 509 217 514 q 186 499 197 504 q 164 491 175 495 q 145 485 153 487 l 124 500 l 202 1051 q 241 1071 222 1063 q 279 1084 259 1079 l 299 1069 l 223 519 "},"Ő":{"x_min":61,"x_max":767.203125,"ha":757,"o":"m 635 512 q 622 620 635 569 q 586 708 610 670 q 528 767 563 745 q 449 790 493 790 q 356 770 397 790 q 283 716 315 750 q 229 639 251 683 q 192 547 206 595 q 170 452 177 500 q 164 360 164 403 q 177 243 164 297 q 214 151 190 190 q 273 90 239 112 q 349 68 307 68 q 443 89 402 68 q 517 144 485 110 q 571 225 548 179 q 607 320 593 271 q 628 420 622 370 q 635 512 635 470 m 736 525 q 728 427 736 476 q 704 329 720 377 q 665 236 688 281 q 611 152 641 191 q 550 84 582 116 q 481 29 518 52 q 405 -7 445 6 q 319 -21 364 -21 q 205 6 254 -21 q 125 82 157 34 q 76 194 92 130 q 61 328 61 257 q 68 419 61 371 q 91 515 76 467 q 126 608 105 563 q 174 690 147 653 q 236 762 203 728 q 306 820 269 795 q 387 860 344 845 q 478 875 430 875 q 593 847 544 875 q 673 771 642 819 q 720 659 705 723 q 736 525 736 596 m 404 913 q 387 918 394 914 q 372 930 381 922 l 516 1206 q 532 1203 523 1205 q 550 1199 541 1202 q 568 1194 560 1197 q 582 1189 577 1192 l 593 1161 l 404 913 m 577 913 q 561 918 567 914 q 546 930 555 922 l 689 1206 q 705 1203 696 1205 q 724 1199 715 1202 q 742 1194 733 1197 q 756 1189 750 1192 l 767 1161 l 577 913 "},"Ž":{"x_min":21.015625,"x_max":694.453125,"ha":693,"o":"m 164 68 l 493 68 q 518 74 506 68 q 543 97 531 80 q 570 142 556 114 q 601 215 583 171 l 634 205 q 625 155 630 183 q 616 100 621 128 q 606 45 611 71 q 598 0 602 19 l 33 0 l 21 30 l 556 792 l 270 792 q 247 784 260 792 q 219 760 233 777 q 190 718 204 744 q 164 653 176 691 l 128 661 l 177 872 q 207 862 193 865 q 234 856 221 858 q 262 855 248 855 q 294 855 276 855 l 682 855 l 694 823 l 164 68 m 469 929 l 406 929 l 276 1133 q 290 1150 285 1146 q 306 1163 296 1155 l 452 1025 l 633 1163 q 645 1151 641 1156 q 655 1133 649 1146 l 469 929 "},"Á":{"x_min":-23.28125,"x_max":726.765625,"ha":778,"o":"m 252 301 l 155 75 q 165 45 145 54 q 237 29 185 36 l 233 0 l -23 0 l -19 29 q 49 46 23 37 q 83 75 75 56 l 414 833 q 435 850 422 841 q 460 866 447 858 q 485 881 473 874 q 505 893 496 888 l 652 75 q 657 59 653 66 q 669 46 660 51 q 691 36 677 40 q 726 29 705 32 l 724 0 l 462 0 l 465 31 q 534 42 513 31 q 551 75 555 54 l 512 301 l 252 301 m 501 363 l 437 732 l 278 363 l 501 363 m 701 1078 l 392 913 q 379 925 382 919 q 370 945 376 931 l 635 1158 l 650 1148 q 669 1135 659 1142 q 688 1122 679 1128 q 701 1110 696 1115 l 701 1078 "},"ĥ":{"x_min":57.96875,"x_max":656.03125,"ha":685,"o":"m 656 48 q 552 -8 593 11 q 483 -28 511 -28 q 448 -6 463 -28 q 433 51 433 14 q 437 95 433 63 q 448 168 441 126 q 462 258 454 210 q 475 348 469 305 q 486 425 482 391 q 491 474 491 459 q 488 518 491 500 q 481 546 486 535 q 467 561 476 557 q 443 566 458 566 q 412 555 434 566 q 361 523 389 544 q 301 470 332 502 q 244 394 270 438 q 213 313 226 362 q 191 203 200 265 q 181 138 184 166 q 178 87 178 109 q 178 48 178 65 q 177 16 178 30 q 155 6 168 11 q 128 -5 142 0 q 101 -17 114 -11 q 80 -28 88 -23 l 57 -7 q 73 83 64 29 q 92 202 82 137 q 114 339 103 267 q 136 482 125 411 q 157 622 147 554 q 174 747 167 690 q 185 847 181 804 q 190 912 190 890 q 187 937 190 928 q 181 950 185 946 q 172 956 177 955 q 162 958 167 958 q 143 954 155 958 q 116 948 130 951 q 84 939 101 944 l 76 966 q 133 990 104 979 q 187 1011 162 1002 q 231 1025 212 1020 q 259 1031 250 1031 q 288 1018 278 1031 q 299 975 299 1006 q 294 921 299 959 q 284 835 290 883 q 269 730 278 786 q 253 623 261 675 q 239 527 246 571 q 228 460 232 484 q 306 542 267 508 q 381 596 345 576 q 451 625 418 616 q 515 635 485 635 q 576 608 558 635 q 595 515 595 581 q 590 456 595 491 q 579 380 586 421 q 566 296 573 339 q 552 213 558 252 q 541 142 545 174 q 537 91 537 110 q 545 59 537 67 q 561 51 553 51 q 600 56 580 51 q 645 73 620 62 l 656 48 m 639 1119 q 625 1100 630 1106 q 609 1089 620 1094 l 464 1228 l 283 1089 q 272 1099 277 1093 q 261 1119 267 1106 l 447 1324 l 509 1324 l 639 1119 "},"Î":{"x_min":13.5625,"x_max":470.65625,"ha":389,"o":"m 405 825 q 337 804 362 816 q 309 783 311 793 l 210 70 q 230 50 209 62 q 295 29 251 38 l 291 0 l 13 0 l 18 29 q 86 49 61 38 q 113 70 111 61 l 210 783 q 191 804 212 791 q 127 825 170 816 l 132 855 l 409 855 l 405 825 m 470 943 q 456 924 461 930 q 440 913 450 918 l 294 1052 l 113 913 q 103 923 107 917 q 91 943 98 930 l 278 1148 l 340 1148 l 470 943 "},"e":{"x_min":43,"x_max":509,"ha":546,"o":"m 264 530 q 220 481 241 510 q 181 417 198 451 q 152 346 164 383 q 141 273 141 309 q 280 336 229 308 q 358 390 332 364 q 392 438 385 415 q 400 485 400 461 q 394 521 400 506 q 380 545 389 536 q 360 559 371 555 q 337 564 348 564 q 305 556 326 564 q 264 530 284 548 m 509 515 q 504 475 509 496 q 486 432 500 454 q 447 385 472 409 q 381 334 422 360 q 281 280 340 308 q 140 221 222 252 q 156 152 144 183 q 184 98 168 120 q 218 63 200 76 q 255 51 237 51 q 290 54 269 51 q 337 67 310 57 q 397 97 364 77 q 472 149 431 116 q 485 136 479 145 q 493 121 491 127 q 394 44 437 73 q 318 -1 352 14 q 258 -22 285 -17 q 207 -28 231 -28 q 156 -15 184 -28 q 102 24 127 -2 q 60 96 77 52 q 43 205 43 140 q 55 309 43 258 q 92 408 68 360 q 152 497 116 455 q 232 573 187 539 q 267 597 247 586 q 308 617 287 608 q 351 630 329 625 q 395 635 374 635 q 445 624 424 635 q 481 596 466 613 q 502 558 495 580 q 509 515 509 537 "},"»":{"x_min":40.515625,"x_max":546,"ha":598,"o":"m 546 329 q 545 320 546 327 q 543 303 544 312 l 540 280 l 286 4 l 262 24 l 439 305 q 432 325 440 304 q 414 376 425 346 q 389 444 403 407 q 365 511 376 480 q 346 562 353 542 l 338 583 l 367 603 l 546 329 m 324 329 q 323 320 324 327 q 321 303 322 312 l 318 280 l 63 4 l 40 24 l 217 305 q 210 325 218 304 q 192 376 203 346 q 167 444 180 407 q 142 511 154 480 q 123 562 131 542 l 116 583 l 144 603 l 324 329 "},"Ĕ":{"x_min":-0.203125,"x_max":634.5625,"ha":642,"o":"m 580 165 q 552 63 566 106 q 531 0 538 19 l 0 0 l 3 29 q 72 49 46 38 q 99 70 98 61 l 198 783 q 178 803 199 791 q 113 825 157 816 l 117 855 l 617 855 l 634 837 q 626 799 631 820 q 614 757 621 778 q 601 717 608 736 q 588 685 594 698 l 559 685 q 562 737 562 716 q 557 770 562 757 q 544 787 552 782 q 523 793 536 793 l 296 793 l 256 498 l 509 498 l 523 479 q 508 459 516 469 q 490 439 499 449 q 472 421 481 429 q 456 406 463 412 q 433 425 446 418 q 403 437 421 433 q 359 442 385 442 q 295 442 333 442 l 248 442 l 202 104 q 204 86 201 94 q 220 72 208 78 q 258 64 233 67 q 323 61 282 61 l 405 61 q 453 64 433 61 q 489 79 473 67 q 519 114 505 91 q 553 177 534 137 l 580 165 m 627 1122 q 574 1030 602 1067 q 518 971 547 993 q 461 938 490 948 q 406 929 433 929 q 350 938 376 929 q 302 971 323 948 q 263 1031 280 994 q 235 1122 246 1068 q 253 1140 244 1134 q 272 1152 262 1146 q 297 1088 281 1114 q 333 1047 313 1063 q 373 1024 352 1031 q 414 1017 394 1017 q 459 1024 435 1017 q 508 1047 484 1031 q 555 1088 532 1063 q 597 1152 578 1114 q 613 1141 607 1146 q 627 1122 620 1135 "},"ò":{"x_min":36,"x_max":550,"ha":586,"o":"m 453 342 q 415 500 453 445 q 307 556 377 556 q 225 527 258 556 q 171 456 192 499 q 142 364 151 414 q 134 270 134 314 q 145 184 134 225 q 176 114 156 144 q 223 66 196 83 q 280 48 249 48 q 336 62 312 48 q 380 99 361 76 q 413 153 400 123 q 436 216 427 183 q 448 281 444 249 q 453 342 453 314 m 550 379 q 539 287 550 333 q 510 196 529 240 q 461 113 490 153 q 394 42 432 73 q 357 15 377 28 q 317 -7 337 2 q 276 -22 297 -17 q 234 -28 255 -28 q 150 -7 187 -28 q 87 46 113 12 q 49 129 62 81 q 36 233 36 177 q 44 327 36 282 q 70 414 52 372 q 119 495 88 456 q 194 569 149 533 q 270 616 229 597 q 354 635 311 635 q 444 616 406 635 q 504 563 481 597 q 539 482 528 529 q 550 379 550 435 m 390 710 q 368 698 376 701 q 348 696 360 696 l 178 957 l 200 982 q 221 985 208 984 q 247 987 233 987 q 274 987 261 987 q 295 987 287 987 l 390 710 "},"^":{"x_min":63.75,"x_max":579.15625,"ha":636,"o":"m 579 430 q 543 404 560 415 q 503 383 526 394 l 483 401 l 375 892 l 151 430 q 133 416 143 424 q 112 403 123 409 q 92 391 102 396 q 76 383 83 386 l 63 401 l 349 991 q 370 1008 358 999 q 396 1025 383 1016 q 421 1040 408 1033 q 442 1051 433 1046 l 579 430 "},"«":{"x_min":39.328125,"x_max":545.25,"ha":598,"o":"m 39 280 q 42 303 40 293 q 45 319 44 312 q 47 328 46 327 l 299 602 l 322 583 l 315 570 q 295 539 307 559 q 266 494 282 520 q 234 443 250 469 q 202 392 217 417 q 173 347 186 367 q 153 316 161 328 q 147 305 146 305 l 247 24 l 219 4 l 39 280 m 261 280 q 265 303 263 293 q 267 319 266 312 q 269 328 268 327 l 522 602 l 545 583 l 537 570 q 517 539 530 559 q 489 494 505 520 q 456 443 473 469 q 424 392 440 417 q 396 347 408 367 q 376 316 383 328 q 369 305 368 305 l 469 24 l 441 4 l 261 280 "},"í":{"x_min":47.703125,"x_max":475.984375,"ha":342,"o":"m 308 48 q 251 15 276 29 q 204 -8 225 1 q 166 -23 183 -18 q 135 -28 150 -28 q 98 -6 112 -28 q 85 51 85 14 q 90 109 85 71 q 102 192 95 146 q 119 288 110 238 q 135 383 127 338 q 147 463 142 428 q 153 515 153 499 q 150 540 153 531 q 145 553 148 549 q 136 559 142 558 q 125 561 131 561 q 108 558 119 561 q 85 552 97 556 q 57 544 72 549 l 47 569 q 104 594 76 582 q 156 615 132 606 q 199 629 181 624 q 226 635 217 635 q 253 622 245 635 q 261 577 261 609 q 255 519 261 558 q 242 434 250 481 q 226 334 234 386 q 209 235 217 282 q 196 149 201 187 q 191 91 191 110 q 195 60 191 70 q 211 51 199 51 q 251 56 232 51 q 298 73 270 61 l 308 48 m 475 932 l 235 696 q 219 703 224 698 q 205 719 214 708 l 389 989 q 406 984 395 987 q 428 977 416 981 q 450 970 440 974 q 465 962 460 966 l 475 932 "},"ˆ":{"x_min":69.171875,"x_max":448.265625,"ha":378,"o":"m 448 726 q 433 706 438 712 q 417 695 428 700 l 276 875 l 91 695 q 80 706 85 699 q 69 726 75 712 l 261 978 l 324 978 l 448 726 "},"ū":{"x_min":26.390625,"x_max":661.46875,"ha":693,"o":"m 661 45 q 568 -9 606 9 q 505 -28 530 -28 q 480 -16 492 -28 q 458 22 467 -4 q 445 93 449 50 q 442 201 442 137 q 386 109 416 151 q 322 36 355 66 q 253 -11 288 5 q 181 -28 218 -28 q 150 -17 168 -28 q 118 14 133 -6 q 92 66 103 35 q 82 138 82 97 q 85 190 82 159 q 94 257 89 221 q 107 332 100 293 q 119 406 113 370 q 128 470 124 441 q 132 515 132 499 q 129 540 132 531 q 124 553 127 549 q 115 559 120 558 q 104 561 110 561 q 86 558 98 561 q 63 552 75 556 q 34 544 50 549 l 26 569 q 83 594 54 582 q 136 615 112 606 q 179 629 161 624 q 206 635 198 635 q 233 622 226 635 q 240 577 240 609 q 235 526 240 558 q 225 456 231 494 q 213 377 219 418 q 200 299 206 337 q 190 229 194 261 q 186 177 186 197 q 199 83 186 112 q 238 54 213 54 q 274 67 252 54 q 325 109 297 80 q 387 187 354 139 q 457 303 421 234 q 467 361 461 332 q 477 418 472 391 q 484 471 481 446 q 488 515 488 495 q 486 540 488 531 q 481 553 484 549 q 473 559 477 558 q 462 561 468 561 q 445 558 456 561 q 424 552 435 556 q 398 544 412 549 l 388 569 q 444 594 417 582 q 496 615 472 606 q 537 629 519 624 q 563 635 554 635 q 588 622 582 635 q 595 577 595 609 q 590 526 595 558 q 580 457 586 495 q 567 378 574 419 q 553 299 559 337 q 543 227 547 261 q 539 171 539 194 q 547 80 539 110 q 573 51 556 51 q 609 55 591 51 q 651 70 627 60 l 661 45 m 629 853 q 623 836 627 845 q 613 817 618 826 q 603 799 608 807 q 595 785 599 790 l 223 785 l 212 801 q 219 817 215 807 q 227 835 223 826 q 236 854 231 845 q 245 870 241 863 l 616 870 l 629 853 "},"µ":{"x_min":4.859375,"x_max":693.25,"ha":713,"o":"m 485 339 q 497 408 491 375 q 506 470 502 442 q 510 515 510 499 q 507 559 510 537 q 498 594 505 582 q 525 605 510 599 q 555 615 539 610 q 586 626 571 621 q 616 635 602 631 q 625 621 622 627 q 630 608 628 614 q 620 554 626 588 q 605 480 613 521 q 589 394 597 438 q 575 307 582 349 q 565 230 569 265 q 561 172 561 194 q 563 123 561 142 q 568 95 565 105 q 576 83 571 86 q 586 81 580 81 q 599 82 592 81 q 614 92 605 84 q 636 117 624 100 q 669 165 649 135 l 693 146 q 642 60 664 93 q 599 6 619 26 q 560 -20 580 -13 q 519 -28 541 -28 q 462 165 462 -28 q 413 87 437 123 q 364 26 389 51 q 312 -13 338 0 q 258 -28 285 -28 q 216 -18 236 -28 q 178 9 195 -8 q 148 53 161 27 q 125 110 134 78 l 120 70 q 112 -59 112 0 q 119 -167 112 -120 q 136 -245 127 -214 q 148 -285 145 -276 q 121 -296 138 -289 q 86 -311 104 -303 q 51 -327 67 -319 q 27 -339 35 -335 l 4 -319 q 17 -231 9 -281 q 34 -126 25 -182 q 54 -11 43 -70 q 74 105 64 47 q 93 217 84 163 q 109 316 102 271 q 117 370 112 343 q 125 424 121 398 q 131 473 128 449 q 134 515 134 497 q 131 540 134 531 q 126 553 129 549 q 117 559 122 558 q 107 561 112 561 q 89 558 100 561 q 65 552 77 556 q 37 544 52 549 l 27 569 q 85 594 56 582 q 139 615 114 606 q 183 629 164 624 q 210 635 201 635 q 235 622 229 635 q 242 578 242 609 q 238 531 242 558 q 231 473 235 504 q 221 411 226 443 q 210 350 215 379 q 203 294 206 320 q 200 250 200 268 q 206 182 200 213 q 223 128 212 150 q 248 93 233 106 q 281 81 263 81 q 334 98 306 81 q 392 154 362 116 q 456 250 423 192 q 476 287 466 268 q 485 339 480 312 "},"č":{"x_min":36,"x_max":586.65625,"ha":539,"o":"m 551 553 q 521 531 537 542 q 490 510 505 519 q 462 495 475 501 q 440 489 449 489 q 421 500 432 489 q 396 526 411 512 q 363 552 381 540 q 323 564 345 564 q 266 549 292 564 q 219 508 240 534 q 182 450 198 483 q 156 382 166 417 q 140 310 145 346 q 135 242 135 274 q 144 163 135 198 q 172 102 154 127 q 214 64 189 78 q 267 51 238 51 q 299 55 280 51 q 342 70 318 59 q 398 100 367 81 q 465 149 428 119 q 476 134 470 142 q 486 121 482 127 q 391 44 433 73 q 315 -1 349 14 q 253 -22 280 -17 q 201 -28 225 -28 q 149 -16 178 -28 q 96 23 121 -4 q 53 99 70 52 q 36 218 36 147 q 45 312 36 263 q 76 407 55 360 q 131 495 97 453 q 216 571 166 537 q 258 594 235 583 q 306 615 281 606 q 355 629 331 624 q 400 635 379 635 q 453 623 430 635 q 495 597 476 612 q 527 569 513 582 q 551 553 541 556 m 396 712 l 334 712 l 207 950 q 222 967 217 963 q 238 980 227 972 l 379 815 l 564 980 q 576 968 573 973 q 586 950 580 963 l 396 712 "},"’":{"x_min":123.296875,"x_max":308,"ha":278,"o":"m 308 898 q 292 827 308 862 q 254 759 277 791 q 202 698 230 726 q 147 650 173 670 l 123 674 q 149 703 135 686 q 175 741 163 721 q 195 782 187 762 q 204 820 204 803 q 186 863 204 847 q 133 879 168 879 l 127 908 q 153 927 134 917 q 194 948 172 938 q 237 964 216 958 q 268 971 257 971 q 297 940 287 958 q 308 898 308 923 "},"-":{"x_min":29.15625,"x_max":393.34375,"ha":435,"o":"m 393 367 q 379 336 387 352 q 365 309 371 320 l 41 309 l 29 325 q 42 355 34 340 q 58 384 50 370 l 380 384 l 393 367 "},"Q":{"x_min":61,"x_max":748.890625,"ha":770,"o":"m 635 513 q 622 620 635 570 q 586 709 610 671 q 528 768 563 746 q 449 791 493 791 q 356 770 397 791 q 283 717 315 750 q 229 640 251 684 q 192 548 206 596 q 170 452 177 501 q 164 361 164 404 q 177 244 164 298 q 214 151 190 190 q 273 90 239 112 q 349 68 307 68 q 443 89 402 68 q 517 145 485 110 q 571 225 548 180 q 607 321 593 271 q 628 420 622 370 q 635 513 635 470 m 748 -79 q 710 -131 729 -108 q 673 -169 691 -154 q 642 -192 656 -184 q 617 -201 628 -201 q 546 -181 579 -201 q 479 -133 512 -161 q 414 -73 447 -104 q 348 -18 382 -41 q 319 -21 334 -21 q 205 6 254 -21 q 125 82 157 34 q 76 194 92 130 q 61 329 61 258 q 68 420 61 372 q 91 515 76 467 q 126 608 105 563 q 174 691 147 653 q 236 762 203 729 q 306 821 269 796 q 387 861 344 846 q 478 876 430 876 q 593 848 544 876 q 673 772 642 820 q 720 660 705 724 q 736 525 736 596 q 728 427 736 477 q 704 330 720 378 q 665 236 688 281 q 611 152 641 191 q 532 68 574 106 q 442 6 491 30 q 493 -29 468 -9 q 542 -66 518 -49 q 589 -96 566 -84 q 636 -108 613 -108 q 652 -105 644 -108 q 672 -96 661 -102 q 698 -80 683 -90 q 734 -55 713 -70 l 748 -79 "},"M":{"x_min":2.71875,"x_max":1041.671875,"ha":1025,"o":"m 1038 826 q 996 819 1020 826 q 948 801 973 813 l 866 70 q 887 50 865 62 q 954 29 910 39 l 950 0 l 672 0 l 676 29 q 746 50 718 39 q 775 70 773 61 l 848 718 l 482 0 l 454 0 l 265 710 l 173 70 q 192 50 172 62 q 257 29 212 39 l 252 0 l 2 0 l 6 29 q 75 50 50 39 q 101 70 100 61 l 207 800 q 163 820 186 814 q 123 826 141 826 l 127 855 l 307 855 q 316 852 312 855 q 323 844 320 850 q 329 827 326 838 q 337 798 332 816 l 506 191 l 817 798 q 833 827 827 816 q 845 844 840 838 q 854 852 850 850 q 865 855 859 855 l 1041 855 l 1038 826 "},"œ":{"x_min":36,"x_max":896,"ha":932,"o":"m 651 530 q 606 481 628 510 q 567 417 585 452 q 538 346 549 383 q 527 273 527 309 q 628 316 586 296 q 699 355 670 337 q 745 389 728 373 q 771 422 762 406 q 783 453 780 438 q 786 485 786 469 q 780 521 786 506 q 766 546 775 536 q 747 559 758 555 q 723 564 735 564 q 692 556 714 564 q 651 530 671 548 m 439 342 q 402 501 439 446 q 300 556 365 556 q 248 542 271 556 q 206 507 224 529 q 174 456 188 485 q 151 396 160 427 q 138 332 142 364 q 134 270 134 299 q 144 185 134 225 q 174 114 155 144 q 219 66 193 84 q 273 49 244 49 q 324 62 301 49 q 365 100 347 76 q 397 153 384 123 q 421 216 411 184 q 434 281 430 249 q 439 342 439 314 m 896 515 q 891 475 896 496 q 873 432 887 454 q 834 385 859 409 q 768 334 809 360 q 667 280 727 308 q 526 221 608 252 q 542 152 530 183 q 570 98 554 121 q 604 63 586 76 q 641 51 623 51 q 677 54 656 51 q 724 67 697 57 q 784 97 750 77 q 860 149 817 116 q 871 136 866 145 q 879 121 877 127 q 781 44 823 73 q 705 -1 738 14 q 645 -22 672 -17 q 594 -28 619 -28 q 554 -20 576 -28 q 512 3 533 -13 q 473 46 491 20 q 445 110 455 72 q 384 42 417 72 q 348 14 367 27 q 308 -7 329 1 q 268 -22 288 -17 q 229 -28 248 -28 q 149 -7 185 -28 q 88 46 113 12 q 49 129 63 81 q 36 233 36 177 q 44 327 36 282 q 71 414 52 372 q 120 494 90 455 q 192 569 150 533 q 267 616 225 597 q 347 635 308 635 q 463 594 419 635 q 524 479 508 553 q 567 528 544 505 q 618 574 590 552 q 653 597 633 586 q 694 617 673 608 q 737 630 715 625 q 780 635 759 635 q 831 624 809 635 q 867 596 853 613 q 888 558 881 580 q 896 515 896 537 "},"ě":{"x_min":43,"x_max":573.421875,"ha":546,"o":"m 264 530 q 220 481 241 510 q 181 417 198 451 q 152 346 164 383 q 141 273 141 309 q 280 336 229 308 q 358 390 332 364 q 392 438 385 415 q 400 485 400 461 q 394 521 400 506 q 380 545 389 536 q 360 559 371 555 q 337 564 348 564 q 305 556 326 564 q 264 530 284 548 m 509 515 q 504 475 509 496 q 486 432 500 454 q 447 385 472 409 q 381 334 422 360 q 281 280 340 308 q 140 221 222 252 q 156 152 144 183 q 184 98 168 120 q 218 63 200 76 q 255 51 237 51 q 290 54 269 51 q 337 67 310 57 q 397 97 364 77 q 472 149 431 116 q 485 136 479 145 q 493 121 491 127 q 394 44 437 73 q 318 -1 352 14 q 258 -22 285 -17 q 207 -28 231 -28 q 156 -15 184 -28 q 102 24 127 -2 q 60 96 77 52 q 43 205 43 140 q 55 309 43 258 q 92 408 68 360 q 152 497 116 455 q 232 573 187 539 q 267 597 247 586 q 308 617 287 608 q 351 630 329 625 q 395 635 374 635 q 445 624 424 635 q 481 596 466 613 q 502 558 495 580 q 509 515 509 537 m 383 712 l 320 712 l 193 950 q 208 967 203 963 q 224 980 214 972 l 366 815 l 551 980 q 563 968 559 973 q 573 950 567 963 l 383 712 "},"ũ":{"x_min":26.390625,"x_max":661.46875,"ha":693,"o":"m 661 45 q 568 -9 606 9 q 505 -28 530 -28 q 480 -16 492 -28 q 458 22 467 -4 q 445 93 449 50 q 442 201 442 137 q 386 109 416 151 q 322 36 355 66 q 253 -11 288 5 q 181 -28 218 -28 q 150 -17 168 -28 q 118 14 133 -6 q 92 66 103 35 q 82 138 82 97 q 85 190 82 159 q 94 257 89 221 q 107 332 100 293 q 119 406 113 370 q 128 470 124 441 q 132 515 132 499 q 129 540 132 531 q 124 553 127 549 q 115 559 120 558 q 104 561 110 561 q 86 558 98 561 q 63 552 75 556 q 34 544 50 549 l 26 569 q 83 594 54 582 q 136 615 112 606 q 179 629 161 624 q 206 635 198 635 q 233 622 226 635 q 240 577 240 609 q 235 526 240 558 q 225 456 231 494 q 213 377 219 418 q 200 299 206 337 q 190 229 194 261 q 186 177 186 197 q 199 83 186 112 q 238 54 213 54 q 274 67 252 54 q 325 109 297 80 q 387 187 354 139 q 457 303 421 234 q 467 361 461 332 q 477 418 472 391 q 484 471 481 446 q 488 515 488 495 q 486 540 488 531 q 481 553 484 549 q 473 559 477 558 q 462 561 468 561 q 445 558 456 561 q 424 552 435 556 q 398 544 412 549 l 388 569 q 444 594 417 582 q 496 615 472 606 q 537 629 519 624 q 563 635 554 635 q 588 622 582 635 q 595 577 595 609 q 590 526 595 558 q 580 457 586 495 q 567 378 574 419 q 553 299 559 337 q 543 227 547 261 q 539 171 539 194 q 547 80 539 110 q 573 51 556 51 q 609 55 591 51 q 651 70 627 60 l 661 45 m 632 899 q 600 845 618 872 q 560 796 582 818 q 515 762 539 775 q 465 749 491 749 q 426 760 443 749 q 392 786 408 772 q 361 811 376 799 q 327 823 345 823 q 279 801 303 823 q 226 742 254 780 l 197 756 q 229 810 211 783 q 268 858 247 836 q 314 892 290 879 q 364 906 339 906 q 405 894 387 906 q 440 869 424 882 q 471 843 457 855 q 500 832 485 832 q 549 853 523 832 q 601 912 575 874 l 632 899 "},"ŭ":{"x_min":26.390625,"x_max":661.46875,"ha":693,"o":"m 661 45 q 568 -9 606 9 q 505 -28 530 -28 q 480 -16 492 -28 q 458 22 467 -4 q 445 93 449 50 q 442 201 442 137 q 386 109 416 151 q 322 36 355 66 q 253 -11 288 5 q 181 -28 218 -28 q 150 -17 168 -28 q 118 14 133 -6 q 92 66 103 35 q 82 138 82 97 q 85 190 82 159 q 94 257 89 221 q 107 332 100 293 q 119 406 113 370 q 128 470 124 441 q 132 515 132 499 q 129 540 132 531 q 124 553 127 549 q 115 559 120 558 q 104 561 110 561 q 86 558 98 561 q 63 552 75 556 q 34 544 50 549 l 26 569 q 83 594 54 582 q 136 615 112 606 q 179 629 161 624 q 206 635 198 635 q 233 622 226 635 q 240 577 240 609 q 235 526 240 558 q 225 456 231 494 q 213 377 219 418 q 200 299 206 337 q 190 229 194 261 q 186 177 186 197 q 199 83 186 112 q 238 54 213 54 q 274 67 252 54 q 325 109 297 80 q 387 187 354 139 q 457 303 421 234 q 467 361 461 332 q 477 418 472 391 q 484 471 481 446 q 488 515 488 495 q 486 540 488 531 q 481 553 484 549 q 473 559 477 558 q 462 561 468 561 q 445 558 456 561 q 424 552 435 556 q 398 544 412 549 l 388 569 q 444 594 417 582 q 496 615 472 606 q 537 629 519 624 q 563 635 554 635 q 588 622 582 635 q 595 577 595 609 q 590 526 595 558 q 580 457 586 495 q 567 378 574 419 q 553 299 559 337 q 543 227 547 261 q 539 171 539 194 q 547 80 539 110 q 573 51 556 51 q 609 55 591 51 q 651 70 627 60 l 661 45 m 620 905 q 568 813 595 850 q 512 754 540 776 q 455 721 483 731 q 399 712 426 712 q 343 721 369 712 q 295 754 317 731 q 257 814 274 777 q 228 905 240 851 q 246 923 238 917 q 265 935 255 929 q 291 871 275 897 q 326 830 307 846 q 366 807 345 814 q 407 800 387 800 q 453 807 428 800 q 501 830 477 814 q 548 871 525 846 q 591 935 571 897 q 607 924 601 929 q 620 905 614 918 "},"{":{"x_min":69.484375,"x_max":502.515625,"ha":435,"o":"m 502 1053 q 451 1016 475 1037 q 409 969 428 995 q 377 914 390 944 q 359 849 364 884 q 354 784 354 809 q 354 737 354 759 q 354 690 354 715 q 351 625 354 665 q 335 570 347 597 q 306 519 324 543 q 265 475 289 495 q 212 443 241 455 q 263 422 243 437 q 293 383 283 406 q 304 329 304 360 q 298 261 304 298 q 285 192 293 220 q 270 138 278 163 q 254 88 261 113 q 242 29 246 63 q 237 -36 237 -7 q 246 -88 237 -65 q 274 -132 255 -112 q 323 -171 293 -152 l 304 -213 q 220 -164 255 -190 q 166 -108 186 -139 q 140 -38 146 -76 q 140 49 133 0 q 153 115 146 89 q 169 165 161 141 q 186 217 178 189 q 200 286 194 244 q 185 369 207 341 q 116 398 163 398 l 104 398 q 97 397 100 398 q 89 396 93 397 q 75 393 84 395 l 69 429 q 191 492 147 450 q 242 585 234 534 q 246 632 246 612 q 246 667 246 651 q 244 697 246 683 q 243 727 243 711 q 243 762 243 742 q 247 810 243 782 q 324 970 260 902 q 490 1085 388 1039 l 502 1053 "},"¼":{"x_min":89.734375,"x_max":739.109375,"ha":753,"o":"m 597 332 l 450 153 l 572 153 l 597 332 m 675 142 q 659 124 666 132 q 643 111 652 116 l 625 111 l 615 39 q 616 34 615 36 q 621 29 617 32 q 633 24 625 27 q 655 19 641 22 l 652 0 l 485 0 l 487 19 q 523 25 509 22 q 545 31 537 28 q 555 37 552 34 q 558 42 558 39 l 567 111 l 397 111 l 387 121 l 593 381 q 625 393 609 387 q 652 405 641 400 l 663 393 l 630 153 l 667 153 l 675 142 m 89 432 l 93 455 q 137 461 120 457 q 165 468 155 465 q 179 476 175 472 q 184 484 184 480 l 217 732 q 220 752 220 745 q 215 763 220 759 q 209 766 214 765 q 195 768 205 768 q 170 765 185 768 q 131 759 154 763 l 127 781 q 163 792 141 785 q 206 807 184 799 q 248 822 228 814 q 280 837 268 831 l 291 825 l 245 484 q 247 477 245 480 q 257 469 249 473 q 281 461 266 465 q 322 455 296 457 l 319 432 l 89 432 m 165 1 q 136 -10 149 -5 q 105 -20 122 -15 l 93 0 l 669 815 q 697 827 681 820 q 726 837 712 833 l 739 818 l 165 1 "},"#":{"x_min":37.296875,"x_max":630.703125,"ha":558,"o":"m 240 400 l 359 400 l 423 574 l 304 574 l 240 400 m 522 652 l 617 652 l 630 635 q 617 602 625 620 q 602 574 609 585 l 493 574 l 429 400 l 527 400 l 540 381 q 527 350 535 368 q 514 322 520 333 l 400 322 l 323 115 q 295 98 311 105 q 262 85 280 92 l 248 99 l 330 322 l 211 322 l 134 115 q 106 98 122 105 q 73 85 91 92 l 58 99 l 141 322 l 50 322 l 37 338 q 50 369 42 352 q 65 400 57 386 l 169 400 l 233 574 l 140 574 l 127 590 q 140 621 132 605 q 155 652 147 638 l 263 652 l 336 848 q 365 865 350 859 q 396 876 381 870 l 410 861 l 332 652 l 452 652 l 524 848 q 555 865 539 859 q 584 876 570 870 l 600 861 l 522 652 "},"ꞌ":{"x_min":157,"x_max":291.28125,"ha":292,"o":"m 192 484 q 175 476 184 478 q 157 474 167 474 l 157 934 q 180 944 166 938 q 209 955 194 950 q 237 964 223 960 q 259 970 250 968 l 291 952 l 192 484 "},"Ⱡ":{"x_min":0,"x_max":575.09375,"ha":623,"o":"m 405 432 l 247 432 l 237 358 l 397 358 l 410 342 l 388 297 l 228 297 l 202 104 q 205 83 201 92 q 222 70 209 75 q 256 63 234 65 q 312 61 278 61 l 398 61 q 447 64 427 61 q 483 79 467 67 q 514 114 499 91 q 548 177 529 137 l 575 165 q 547 63 561 106 q 524 0 533 19 l 0 0 l 4 29 q 72 49 46 38 q 99 70 98 61 l 130 297 l 31 297 l 21 313 q 30 335 25 324 q 40 358 35 347 l 139 358 l 149 432 l 48 432 l 38 448 q 47 470 42 459 q 57 493 52 482 l 158 493 l 198 783 q 179 803 200 791 q 113 825 158 815 l 118 854 l 396 854 l 391 825 q 323 804 349 815 q 295 783 297 792 l 255 493 l 414 493 l 427 477 l 405 432 "},"Ĳ":{"x_min":14.015625,"x_max":815.609375,"ha":781,"o":"m 406 825 q 337 804 363 816 q 310 783 311 793 l 211 70 q 231 50 210 62 q 296 29 252 38 l 292 0 l 14 0 l 18 29 q 86 49 61 38 q 114 70 112 61 l 211 783 q 191 804 212 791 q 127 825 170 816 l 132 855 l 410 855 l 406 825 m 811 825 q 742 804 768 816 q 715 783 716 793 l 626 139 q 597 4 615 58 q 558 -86 580 -49 q 510 -148 536 -123 q 456 -195 484 -174 q 417 -221 438 -209 q 374 -241 395 -232 q 334 -253 353 -249 q 304 -258 316 -258 q 268 -251 285 -258 q 238 -236 251 -245 q 217 -219 225 -228 q 210 -203 210 -209 q 219 -185 210 -197 q 242 -163 229 -173 q 270 -144 256 -152 q 292 -136 283 -136 q 305 -142 298 -136 q 322 -155 313 -148 q 346 -168 332 -162 q 382 -175 361 -175 q 418 -163 398 -175 q 457 -122 437 -151 q 494 -40 477 -92 q 522 90 511 10 l 618 783 q 614 792 618 787 q 597 802 610 797 q 562 813 585 808 q 502 825 539 819 l 505 855 l 815 855 l 811 825 "},"Ê":{"x_min":-0.203125,"x_max":634.5625,"ha":642,"o":"m 580 165 q 552 63 566 106 q 531 0 538 19 l 0 0 l 3 29 q 72 49 46 38 q 99 70 98 61 l 198 783 q 178 803 199 791 q 113 825 157 816 l 117 855 l 617 855 l 634 837 q 626 799 631 820 q 614 757 621 778 q 601 717 608 736 q 588 685 594 698 l 559 685 q 562 737 562 716 q 557 770 562 757 q 544 787 552 782 q 523 793 536 793 l 296 793 l 256 498 l 509 498 l 523 479 q 508 459 516 469 q 490 439 499 449 q 472 421 481 429 q 456 406 463 412 q 433 425 446 418 q 403 437 421 433 q 359 442 385 442 q 295 442 333 442 l 248 442 l 202 104 q 204 86 201 94 q 220 72 208 78 q 258 64 233 67 q 323 61 282 61 l 405 61 q 453 64 433 61 q 489 79 473 67 q 519 114 505 91 q 553 177 534 137 l 580 165 m 595 943 q 581 924 586 930 q 565 913 576 918 l 419 1052 l 239 913 q 228 923 233 917 q 216 943 223 930 l 403 1148 l 465 1148 l 595 943 "},")":{"x_min":-55.390625,"x_max":349,"ha":409,"o":"m 334 425 q 284 212 318 313 q 202 27 250 111 q 92 -118 153 -56 q -38 -213 31 -180 l -55 -183 q 35 -95 -9 -150 q 117 34 79 -40 q 184 203 155 109 q 229 405 214 296 q 243 601 243 504 q 228 785 243 699 q 186 943 213 872 q 119 1057 158 1013 l 144 1088 q 254 986 209 1054 q 324 830 299 919 q 349 637 349 741 q 334 425 349 533 "},"Å":{"x_min":-23.4375,"x_max":726.671875,"ha":778,"o":"m 251 301 l 154 75 q 165 45 145 54 q 237 29 185 36 l 233 0 l -23 0 l -19 29 q 49 46 23 37 q 83 75 74 56 l 414 833 q 435 850 422 841 q 460 866 447 858 q 484 881 473 874 q 505 893 496 888 l 652 75 q 657 59 653 66 q 669 46 660 51 q 691 36 677 40 q 726 29 704 32 l 723 0 l 462 0 l 465 31 q 534 42 513 31 q 551 75 555 54 l 512 301 l 251 301 m 501 363 l 437 731 l 278 363 l 501 363 m 551 1059 q 540 1102 551 1083 q 509 1121 530 1121 q 476 1112 490 1121 q 452 1089 462 1103 q 437 1058 442 1075 q 433 1025 433 1041 q 444 981 433 1000 q 476 963 455 963 q 508 972 494 963 q 532 995 522 981 q 546 1026 541 1009 q 551 1059 551 1043 m 608 1085 q 596 1027 608 1057 q 563 971 584 997 q 515 929 542 946 q 456 913 487 913 q 424 919 439 913 q 398 938 409 926 q 381 964 387 949 q 376 996 376 979 q 387 1058 376 1027 q 420 1114 399 1089 q 468 1156 441 1140 q 528 1173 496 1173 q 586 1148 564 1173 q 608 1085 608 1123 "},"¸":{"x_min":-85,"x_max":149,"ha":220,"o":"m 149 -149 q 127 -215 149 -185 q 73 -262 106 -245 q -2 -279 39 -279 q -85 -254 -44 -279 l -85 -228 q -22 -246 -50 -246 q 24 -237 5 -246 q 53 -213 43 -229 q 63 -182 63 -198 q 47 -154 63 -164 q 0 -145 31 -145 q 15 -101 9 -120 q 27 -65 22 -82 q 35 -32 31 -48 q 43 2 39 -16 l 89 2 q 79 -43 83 -26 q 71 -78 75 -60 q 127 -97 105 -78 q 149 -149 149 -116 "},"a":{"x_min":36,"x_max":611.359375,"ha":626,"o":"m 409 292 q 419 355 414 322 q 431 419 425 388 q 441 475 437 449 q 448 515 446 500 q 426 532 438 523 q 400 548 414 540 q 370 559 386 555 q 339 564 355 564 q 280 548 308 564 q 229 508 253 533 q 187 450 206 483 q 156 384 169 418 q 136 316 143 350 q 129 257 129 283 q 136 177 129 213 q 156 117 143 142 q 187 78 169 92 q 225 65 205 65 q 265 85 241 65 q 314 139 288 106 q 364 212 339 172 q 409 292 389 253 m 611 45 q 516 -10 552 7 q 460 -28 479 -28 q 436 -19 448 -28 q 416 12 425 -11 q 403 77 408 35 q 398 184 398 118 q 354 116 380 153 q 300 47 329 79 q 240 -6 271 14 q 180 -28 209 -28 q 132 -15 158 -28 q 85 25 107 -2 q 50 98 64 54 q 36 206 36 143 q 48 311 36 260 q 86 409 61 362 q 147 497 111 456 q 232 571 183 538 q 272 594 250 583 q 317 615 294 606 q 364 629 341 624 q 408 635 387 635 q 436 631 422 635 q 462 621 449 627 q 487 608 475 615 q 508 594 498 601 q 542 616 524 605 q 578 635 559 626 l 591 611 q 572 594 580 601 q 559 577 565 586 q 549 552 553 567 q 540 515 545 538 q 521 415 530 466 q 505 318 512 364 q 495 238 499 273 q 492 188 492 203 q 494 123 492 150 q 500 81 496 97 q 510 58 504 65 q 525 51 517 51 q 557 54 538 51 q 603 70 576 58 l 611 45 "},"=":{"x_min":33.90625,"x_max":545.921875,"ha":570,"o":"m 545 506 q 540 491 543 499 l 533 474 q 526 458 530 466 q 519 445 522 450 l 73 445 l 61 461 q 73 492 66 474 q 88 523 81 509 l 533 523 l 545 506 m 518 302 q 513 287 516 295 l 506 270 q 499 254 503 262 q 492 241 495 246 l 46 241 l 33 257 q 46 288 39 270 q 61 319 54 305 l 506 319 l 518 302 "},"˚":{"x_min":90,"x_max":322,"ha":304,"o":"m 265 842 q 254 885 265 866 q 223 904 244 904 q 190 895 204 904 q 166 872 176 886 q 151 841 156 858 q 147 808 147 824 q 158 764 147 783 q 190 746 169 746 q 222 755 208 746 q 246 778 236 764 q 260 809 255 792 q 265 842 265 826 m 322 868 q 310 810 322 840 q 277 754 298 780 q 229 712 256 729 q 170 696 201 696 q 138 702 153 696 q 112 721 123 709 q 95 747 101 732 q 90 779 90 762 q 101 841 90 810 q 134 897 113 872 q 182 939 155 923 q 242 956 210 956 q 300 931 278 956 q 322 868 322 906 "},"ú":{"x_min":26.390625,"x_max":661.46875,"ha":693,"o":"m 661 45 q 568 -9 606 9 q 505 -28 530 -28 q 480 -16 492 -28 q 458 22 467 -4 q 445 93 449 50 q 442 201 442 137 q 386 109 416 151 q 322 36 355 66 q 253 -11 288 5 q 181 -28 218 -28 q 150 -17 168 -28 q 118 14 133 -6 q 92 66 103 35 q 82 138 82 97 q 85 190 82 159 q 94 257 89 221 q 107 332 100 293 q 119 406 113 370 q 128 470 124 441 q 132 515 132 499 q 129 540 132 531 q 124 553 127 549 q 115 559 120 558 q 104 561 110 561 q 86 558 98 561 q 63 552 75 556 q 34 544 50 549 l 26 569 q 83 594 54 582 q 136 615 112 606 q 179 629 161 624 q 206 635 198 635 q 233 622 226 635 q 240 577 240 609 q 235 526 240 558 q 225 456 231 494 q 213 377 219 418 q 200 299 206 337 q 190 229 194 261 q 186 177 186 197 q 199 83 186 112 q 238 54 213 54 q 274 67 252 54 q 325 109 297 80 q 387 187 354 139 q 457 303 421 234 q 467 361 461 332 q 477 418 472 391 q 484 471 481 446 q 488 515 488 495 q 486 540 488 531 q 481 553 484 549 q 473 559 477 558 q 462 561 468 561 q 445 558 456 561 q 424 552 435 556 q 398 544 412 549 l 388 569 q 444 594 417 582 q 496 615 472 606 q 537 629 519 624 q 563 635 554 635 q 588 622 582 635 q 595 577 595 609 q 590 526 595 558 q 580 457 586 495 q 567 378 574 419 q 553 299 559 337 q 543 227 547 261 q 539 171 539 194 q 547 80 539 110 q 573 51 556 51 q 609 55 591 51 q 651 70 627 60 l 661 45 m 628 932 l 387 696 q 371 703 376 698 q 356 719 366 708 l 541 989 q 558 984 547 987 q 580 977 569 981 q 602 970 592 974 q 618 962 612 966 l 628 932 "},"¯":{"x_min":148.515625,"x_max":565.59375,"ha":543,"o":"m 565 853 q 559 836 563 845 q 549 817 554 826 q 539 799 544 807 q 531 785 535 790 l 159 785 l 148 801 q 155 817 151 807 q 163 835 159 826 q 172 854 168 845 q 181 870 177 863 l 552 870 l 565 853 "},"Z":{"x_min":21.015625,"x_max":694.453125,"ha":693,"o":"m 164 68 l 493 68 q 518 74 506 68 q 543 97 531 80 q 570 142 556 114 q 601 215 583 171 l 634 205 q 625 155 630 183 q 616 100 621 128 q 606 45 611 71 q 598 0 602 19 l 33 0 l 21 30 l 556 792 l 270 792 q 247 784 260 792 q 219 760 233 777 q 190 718 204 744 q 164 653 176 691 l 128 661 l 177 872 q 207 862 193 865 q 234 856 221 858 q 262 855 248 855 q 294 855 276 855 l 682 855 l 694 823 l 164 68 "},"u":{"x_min":26.390625,"x_max":661.46875,"ha":693,"o":"m 661 45 q 568 -9 606 9 q 505 -28 530 -28 q 480 -16 492 -28 q 458 22 467 -4 q 445 93 449 50 q 442 201 442 137 q 386 109 416 151 q 322 36 355 66 q 253 -11 288 5 q 181 -28 218 -28 q 150 -17 168 -28 q 118 14 133 -6 q 92 66 103 35 q 82 138 82 97 q 85 190 82 159 q 94 257 89 221 q 107 332 100 293 q 119 406 113 370 q 128 470 124 441 q 132 515 132 499 q 129 540 132 531 q 124 553 127 549 q 115 559 120 558 q 104 561 110 561 q 86 558 98 561 q 63 552 75 556 q 34 544 50 549 l 26 569 q 83 594 54 582 q 136 615 112 606 q 179 629 161 624 q 206 635 198 635 q 233 622 226 635 q 240 577 240 609 q 235 526 240 558 q 225 456 231 494 q 213 377 219 418 q 200 299 206 337 q 190 229 194 261 q 186 177 186 197 q 199 83 186 112 q 238 54 213 54 q 274 67 252 54 q 325 109 297 80 q 387 187 354 139 q 457 303 421 234 q 467 361 461 332 q 477 418 472 391 q 484 471 481 446 q 488 515 488 495 q 486 540 488 531 q 481 553 484 549 q 473 559 477 558 q 462 561 468 561 q 445 558 456 561 q 424 552 435 556 q 398 544 412 549 l 388 569 q 444 594 417 582 q 496 615 472 606 q 537 629 519 624 q 563 635 554 635 q 588 622 582 635 q 595 577 595 609 q 590 526 595 558 q 580 457 586 495 q 567 378 574 419 q 553 299 559 337 q 543 227 547 261 q 539 171 539 194 q 547 80 539 110 q 573 51 556 51 q 609 55 591 51 q 651 70 627 60 l 661 45 "},"k":{"x_min":58.609375,"x_max":610,"ha":610,"o":"m 299 961 q 294 894 299 934 q 284 805 290 855 q 269 699 277 756 q 250 583 260 643 q 231 462 241 523 q 212 343 221 401 l 358 454 q 435 514 405 489 q 473 554 465 539 q 466 576 481 570 q 404 583 450 583 l 401 608 q 478 622 441 614 q 558 631 515 631 q 600 621 591 631 q 610 588 610 612 q 595 560 610 578 q 552 517 580 542 q 484 463 524 492 q 393 402 444 434 l 314 354 q 350 302 332 332 q 386 237 368 271 q 421 170 404 203 q 454 110 438 137 q 486 67 471 84 q 514 51 500 51 q 548 52 530 51 q 591 68 565 54 l 603 45 q 524 -9 558 7 q 465 -27 491 -27 q 418 -3 441 -27 q 373 55 395 19 q 330 134 351 91 q 289 218 309 178 q 250 292 269 259 q 212 339 231 325 q 196 229 203 282 q 184 134 189 177 q 180 62 180 92 q 183 17 180 32 q 159 6 173 13 q 131 -5 146 0 q 104 -17 117 -12 q 82 -28 90 -23 l 58 -7 q 68 56 61 12 q 84 161 74 101 q 106 293 94 221 q 129 440 118 365 q 152 588 141 515 q 172 724 163 661 q 185 836 180 787 q 191 910 191 884 q 188 937 191 927 q 182 951 186 946 q 172 956 178 955 q 158 958 166 958 q 140 954 152 958 q 116 948 128 951 q 85 939 102 944 l 75 966 q 133 990 104 979 q 187 1011 162 1002 q 231 1025 212 1020 q 258 1031 250 1031 q 275 1028 268 1031 q 288 1019 283 1026 q 296 998 293 1012 q 299 961 299 984 "},"Ù":{"x_min":113.796875,"x_max":871.515625,"ha":832,"o":"m 867 825 q 800 804 824 815 q 775 783 777 792 l 714 347 q 673 189 702 258 q 601 73 644 120 q 501 3 557 27 q 377 -21 444 -21 q 275 -4 321 -21 q 195 45 229 12 q 144 125 162 78 q 126 236 126 173 q 132 313 126 271 l 198 783 q 178 803 199 791 q 113 825 157 815 l 117 854 l 395 854 l 391 825 q 322 804 348 815 q 294 783 296 792 l 234 345 q 232 306 232 325 q 232 268 232 286 q 243 182 232 221 q 277 116 255 144 q 334 73 300 88 q 412 58 368 58 q 493 79 456 58 q 558 137 530 101 q 606 220 587 173 q 631 317 624 266 l 693 783 q 676 803 695 791 q 613 825 657 815 l 617 855 l 871 855 l 867 825 m 615 945 q 599 925 605 931 q 583 913 594 919 l 311 1078 l 319 1110 q 336 1122 325 1115 q 359 1135 347 1129 q 383 1148 371 1142 q 402 1158 394 1154 l 615 945 "},"Ů":{"x_min":113.796875,"x_max":872.109375,"ha":832,"o":"m 868 825 q 801 804 825 815 q 776 783 777 792 l 715 347 q 674 189 703 258 q 601 73 644 120 q 501 3 558 27 q 377 -21 444 -21 q 275 -4 322 -21 q 195 45 229 12 q 144 125 162 78 q 126 236 126 173 q 132 313 126 271 l 198 783 q 178 803 199 791 q 113 825 157 815 l 117 854 l 395 854 l 391 825 q 322 804 348 815 q 294 783 296 792 l 234 345 q 232 306 232 325 q 232 268 232 286 q 243 182 232 221 q 277 116 255 144 q 334 73 300 88 q 412 58 368 58 q 493 79 456 58 q 559 137 531 101 q 606 220 587 173 q 632 317 625 266 l 694 783 q 676 803 695 791 q 613 825 657 815 l 617 855 l 872 855 l 868 825 m 592 1059 q 581 1102 592 1083 q 550 1121 571 1121 q 517 1112 531 1121 q 493 1089 503 1103 q 478 1058 483 1075 q 474 1025 474 1041 q 485 981 474 1000 q 517 963 496 963 q 549 972 535 963 q 573 995 563 981 q 587 1026 582 1009 q 592 1059 592 1043 m 649 1085 q 637 1027 649 1057 q 604 971 625 997 q 556 929 583 946 q 497 913 528 913 q 465 919 480 913 q 439 938 450 926 q 422 964 428 949 q 417 996 417 979 q 428 1058 417 1027 q 461 1114 440 1089 q 509 1156 482 1140 q 569 1173 537 1173 q 627 1148 605 1173 q 649 1085 649 1123 "},"¢":{"x_min":71,"x_max":586.390625,"ha":559,"o":"m 170 345 q 177 280 170 310 q 198 227 184 251 q 229 187 211 204 q 269 161 247 170 l 334 641 q 264 599 295 631 q 212 526 233 568 q 180 435 191 483 q 170 345 170 388 m 397 711 q 416 713 407 712 q 435 715 426 715 q 488 703 465 715 q 530 678 511 692 q 562 650 548 664 q 586 634 576 637 q 558 611 572 624 q 531 588 544 598 q 508 570 519 577 q 489 563 497 563 q 475 573 482 563 q 457 597 468 584 q 429 624 446 611 q 388 642 412 637 l 321 152 q 350 156 333 152 q 388 173 366 161 q 437 204 410 184 q 500 252 465 223 q 511 236 505 243 q 521 223 517 229 q 453 165 483 189 q 398 124 423 141 q 351 97 372 107 q 311 82 330 87 l 298 -12 q 288 -20 292 -17 q 279 -26 283 -24 q 270 -29 275 -28 q 257 -33 265 -30 l 244 -18 l 257 75 l 249 75 q 214 79 233 75 q 175 95 195 84 q 137 125 155 106 q 103 171 118 144 q 79 235 88 198 q 71 319 71 271 q 80 410 71 364 q 111 501 89 457 q 167 585 132 545 q 252 659 201 626 q 294 681 271 671 q 342 699 317 691 l 357 803 q 370 813 365 809 q 377 817 374 816 q 384 820 380 819 q 397 824 388 822 l 411 809 l 397 711 "},"é":{"x_min":43,"x_max":580.203125,"ha":546,"o":"m 264 530 q 220 481 241 510 q 181 417 198 451 q 152 346 164 383 q 141 273 141 309 q 280 336 229 308 q 358 390 332 364 q 392 438 385 415 q 400 485 400 461 q 394 521 400 506 q 380 545 389 536 q 360 559 371 555 q 337 564 348 564 q 305 556 326 564 q 264 530 284 548 m 509 515 q 504 475 509 496 q 486 432 500 454 q 447 385 472 409 q 381 334 422 360 q 281 280 340 308 q 140 221 222 252 q 156 152 144 183 q 184 98 168 120 q 218 63 200 76 q 255 51 237 51 q 290 54 269 51 q 337 67 310 57 q 397 97 364 77 q 472 149 431 116 q 485 136 479 145 q 493 121 491 127 q 394 44 437 73 q 318 -1 352 14 q 258 -22 285 -17 q 207 -28 231 -28 q 156 -15 184 -28 q 102 24 127 -2 q 60 96 77 52 q 43 205 43 140 q 55 309 43 258 q 92 408 68 360 q 152 497 116 455 q 232 573 187 539 q 267 597 247 586 q 308 617 287 608 q 351 630 329 625 q 395 635 374 635 q 445 624 424 635 q 481 596 466 613 q 502 558 495 580 q 509 515 509 537 m 580 932 l 338 696 q 323 703 328 698 q 308 719 317 708 l 493 989 q 510 984 500 987 q 532 977 521 981 q 554 970 544 974 q 570 962 564 966 l 580 932 "},"B":{"x_min":0.375,"x_max":634,"ha":688,"o":"m 374 817 q 335 817 353 817 q 300 817 317 817 l 256 492 l 278 492 q 370 499 325 492 q 449 526 414 507 q 503 580 483 546 q 524 669 524 615 q 509 738 524 710 q 472 784 494 767 q 423 809 450 802 q 374 817 397 817 m 351 439 q 296 436 321 439 q 248 430 271 433 l 199 70 q 206 57 197 65 q 235 46 219 51 q 267 39 250 42 q 300 37 283 37 q 330 37 316 37 q 411 55 375 37 q 473 104 447 74 q 513 174 499 135 q 528 254 528 213 q 518 321 528 288 q 487 381 508 354 q 432 423 466 407 q 351 439 399 439 m 634 279 q 608 159 634 213 q 538 65 582 104 q 435 4 494 26 q 313 -17 377 -17 q 280 -17 299 -17 q 240 -17 261 -17 q 196 -17 218 -17 q 151 -10 173 -17 q 45 0 100 -6 l 0 0 l 4 29 q 72 50 47 39 q 100 70 98 61 l 201 808 q 145 800 170 804 q 96 789 120 795 l 96 832 q 159 848 127 840 q 228 862 192 856 q 304 871 264 868 q 392 875 345 875 q 491 863 447 875 q 565 829 535 851 q 613 776 596 807 q 630 705 630 744 q 618 637 630 670 q 587 575 607 604 q 539 525 567 547 q 479 490 512 503 q 542 463 514 482 q 591 417 570 444 q 622 355 611 390 q 634 279 634 320 "},"…":{"x_min":35,"x_max":748,"ha":834,"o":"m 748 103 q 740 60 748 82 q 720 20 733 38 q 689 -9 707 2 q 647 -21 670 -21 q 605 -2 620 -21 q 590 46 590 15 q 598 87 590 65 q 620 126 606 108 q 652 155 634 143 q 692 167 670 167 q 732 149 717 167 q 748 103 748 131 m 470 103 q 462 60 470 82 q 442 20 455 38 q 411 -9 429 2 q 369 -21 392 -21 q 327 -2 342 -21 q 313 46 313 15 q 320 87 313 65 q 342 126 328 108 q 374 155 356 143 q 414 167 392 167 q 454 149 439 167 q 470 103 470 131 m 192 103 q 184 60 192 82 q 164 20 177 38 q 133 -9 151 2 q 91 -21 114 -21 q 49 -2 64 -21 q 35 46 35 15 q 42 87 35 65 q 64 126 50 108 q 96 155 78 143 q 136 167 114 167 q 176 149 161 167 q 192 103 192 131 "},"ē":{"x_min":43,"x_max":581.5625,"ha":546,"o":"m 264 530 q 220 480 241 510 q 181 417 198 451 q 152 346 164 383 q 141 273 141 309 q 280 336 229 308 q 358 389 332 364 q 392 438 385 415 q 400 485 400 461 q 394 521 400 506 q 380 545 389 536 q 360 559 371 555 q 337 563 348 563 q 305 556 326 563 q 264 530 284 548 m 509 515 q 504 475 509 496 q 486 431 500 454 q 447 385 472 409 q 381 334 422 360 q 281 280 340 308 q 140 221 222 252 q 156 152 144 183 q 184 98 168 120 q 218 63 200 76 q 255 51 237 51 q 290 54 269 51 q 337 67 310 57 q 397 97 364 77 q 472 149 431 116 q 485 136 479 145 q 493 121 491 127 q 394 44 437 73 q 318 -1 352 14 q 258 -22 285 -17 q 207 -28 231 -28 q 156 -15 184 -28 q 102 24 127 -2 q 60 96 77 52 q 43 205 43 140 q 55 309 43 258 q 92 408 68 360 q 152 497 116 455 q 232 573 187 539 q 267 597 247 586 q 308 617 287 608 q 351 630 329 625 q 395 635 374 635 q 445 624 424 635 q 481 596 466 613 q 502 558 495 580 q 509 515 509 537 m 581 853 q 575 836 579 845 q 565 817 570 826 q 555 799 560 807 q 547 785 551 790 l 174 785 l 164 801 q 170 817 166 807 q 179 835 174 826 q 188 854 183 845 q 197 870 193 863 l 568 870 l 581 853 "},"H":{"x_min":0,"x_max":872.125,"ha":838,"o":"m 391 826 q 323 805 349 816 q 295 784 297 793 l 254 479 l 631 479 l 673 784 q 653 804 674 792 q 590 826 632 816 l 592 855 l 872 855 l 868 826 q 799 805 825 816 q 772 784 773 793 l 673 71 q 693 51 672 62 q 758 29 714 39 l 754 0 l 476 0 l 480 29 q 548 50 523 39 q 575 71 573 61 l 622 417 l 245 417 l 198 71 q 218 51 196 62 q 282 29 239 39 l 278 0 l 0 0 l 4 29 q 72 50 46 39 q 99 71 98 61 l 198 784 q 179 804 200 792 q 113 826 158 816 l 118 855 l 396 855 l 391 826 "},"î":{"x_min":47.703125,"x_max":439.359375,"ha":342,"o":"m 308 48 q 251 15 276 29 q 204 -8 225 1 q 166 -23 183 -18 q 135 -28 150 -28 q 98 -6 112 -28 q 85 51 85 14 q 90 109 85 71 q 102 192 95 146 q 119 288 110 238 q 135 383 127 338 q 147 463 142 428 q 153 515 153 499 q 150 540 153 531 q 145 553 148 549 q 136 559 142 558 q 125 561 131 561 q 108 558 119 561 q 85 552 97 556 q 57 544 72 549 l 47 569 q 104 594 76 582 q 156 615 132 606 q 199 629 181 624 q 226 635 217 635 q 253 622 245 635 q 261 577 261 609 q 255 519 261 558 q 242 434 250 481 q 226 334 234 386 q 209 235 217 282 q 196 149 201 187 q 191 91 191 110 q 195 60 191 70 q 211 51 199 51 q 251 56 232 51 q 298 73 270 61 l 308 48 m 439 726 q 424 706 429 712 q 408 696 419 700 l 267 875 l 82 696 q 72 706 76 700 q 60 726 67 712 l 252 978 l 315 978 l 439 726 "},"¥":{"x_min":15.15625,"x_max":662.8125,"ha":558,"o":"m 659 799 q 601 782 622 791 q 570 756 580 773 l 340 354 l 340 346 l 482 346 l 493 330 l 474 286 l 332 286 l 306 75 q 323 53 305 66 q 389 28 341 40 l 386 0 l 123 0 l 127 28 q 199 52 178 40 q 221 75 219 65 l 247 286 l 102 286 l 93 302 l 110 346 l 254 346 l 256 361 q 228 465 245 409 q 191 575 211 521 q 149 677 171 629 q 108 758 127 725 q 95 774 101 768 q 79 783 89 780 q 55 786 69 786 q 20 783 40 786 l 15 811 q 49 820 30 815 q 87 829 68 825 q 123 835 106 833 q 151 837 139 837 q 181 812 166 837 q 208 761 194 791 q 236 697 222 731 q 264 628 251 664 q 289 560 278 593 q 309 496 300 526 q 322 445 317 466 l 504 756 q 501 783 514 773 q 447 799 487 793 l 451 827 l 662 827 l 659 799 "},"Ĥ":{"x_min":0,"x_max":872.125,"ha":838,"o":"m 391 826 q 323 805 349 816 q 295 784 297 793 l 254 479 l 631 479 l 673 784 q 653 804 674 792 q 590 826 632 816 l 592 855 l 872 855 l 868 826 q 799 805 825 816 q 772 784 773 793 l 673 71 q 693 51 672 62 q 758 29 714 39 l 754 0 l 476 0 l 480 29 q 548 50 523 39 q 575 71 573 61 l 622 417 l 245 417 l 198 71 q 218 51 196 62 q 282 29 239 39 l 278 0 l 0 0 l 4 29 q 72 50 46 39 q 99 71 98 61 l 198 784 q 179 804 200 792 q 113 826 158 816 l 118 855 l 396 855 l 391 826 m 695 944 q 680 924 685 930 q 664 913 675 918 l 518 1052 l 338 913 q 327 924 332 917 q 316 944 322 930 l 502 1148 l 564 1148 l 695 944 "},"U":{"x_min":113.796875,"x_max":871.515625,"ha":832,"o":"m 867 825 q 800 804 824 815 q 775 783 777 792 l 714 347 q 673 189 702 258 q 601 73 644 120 q 501 3 557 27 q 377 -21 444 -21 q 275 -4 321 -21 q 195 45 229 12 q 144 125 162 78 q 126 236 126 173 q 132 313 126 271 l 198 783 q 178 803 199 791 q 113 825 157 815 l 117 854 l 395 854 l 391 825 q 322 804 348 815 q 294 783 296 792 l 234 345 q 232 306 232 325 q 232 268 232 286 q 243 182 232 221 q 277 116 255 144 q 334 73 300 88 q 412 58 368 58 q 493 79 456 58 q 558 137 530 101 q 606 220 587 173 q 631 317 624 266 l 693 783 q 676 803 695 791 q 613 825 657 815 l 617 855 l 871 855 l 867 825 "},"Ñ":{"x_min":0,"x_max":877.546875,"ha":840,"o":"m 873 825 q 806 806 828 818 q 781 783 783 794 l 670 -21 q 644 -16 656 -19 q 623 -8 633 -13 q 606 6 614 -2 q 590 30 598 15 l 252 681 l 169 70 q 186 49 167 62 q 251 29 205 36 l 247 0 l 0 0 l 4 29 q 72 48 50 35 q 96 70 95 61 l 195 782 q 157 811 178 803 q 107 825 136 820 l 111 854 l 231 854 q 255 854 246 854 q 270 848 263 854 q 282 832 276 843 q 298 801 288 821 l 626 175 l 710 783 q 706 793 710 787 q 692 804 702 799 q 666 816 682 810 q 626 825 650 821 l 630 855 l 877 855 l 873 825 m 734 1094 q 702 1040 720 1067 q 663 991 684 1013 q 618 957 642 970 q 567 944 594 944 q 528 955 545 944 q 495 981 511 967 q 463 1006 479 994 q 429 1018 447 1018 q 381 996 406 1018 q 328 937 357 975 l 299 951 q 331 1005 314 978 q 371 1053 349 1031 q 417 1087 392 1074 q 467 1101 441 1101 q 508 1089 489 1101 q 543 1064 526 1077 q 573 1038 559 1050 q 602 1027 587 1027 q 652 1048 625 1027 q 703 1107 678 1069 l 734 1094 "},"F":{"x_min":-0.3125,"x_max":639.875,"ha":604,"o":"m 639 837 q 631 799 636 820 q 619 757 626 778 q 606 717 613 736 q 594 685 599 698 l 566 685 q 568 737 568 716 q 563 770 568 757 q 550 787 558 782 q 529 793 542 793 l 296 793 l 255 498 l 474 498 l 490 479 q 474 459 482 469 q 456 439 465 449 q 439 421 447 429 q 423 406 430 412 q 370 436 400 429 q 295 444 340 444 l 247 444 l 197 70 q 218 51 195 62 q 300 28 241 41 l 296 0 l 0 0 l 3 28 q 72 49 46 38 q 99 70 98 60 l 198 783 q 178 803 199 791 q 113 825 157 816 l 117 855 l 623 855 l 639 837 "},"ā":{"x_min":36,"x_max":611.359375,"ha":626,"o":"m 409 292 q 419 355 414 322 q 431 419 425 388 q 441 475 437 449 q 448 515 446 500 q 426 532 438 523 q 400 547 414 540 q 370 559 386 555 q 339 563 355 563 q 280 548 308 563 q 229 508 253 533 q 187 450 206 483 q 156 384 169 418 q 136 316 143 350 q 129 257 129 283 q 136 177 129 212 q 156 117 143 142 q 187 78 169 92 q 225 65 205 65 q 265 85 241 65 q 314 139 288 106 q 364 212 339 172 q 409 292 389 252 m 611 45 q 516 -10 552 7 q 460 -28 479 -28 q 436 -19 448 -28 q 416 12 425 -11 q 403 77 408 35 q 398 184 398 118 q 354 116 380 153 q 300 47 329 79 q 240 -6 271 14 q 180 -28 209 -28 q 132 -15 158 -28 q 85 25 107 -2 q 50 98 64 54 q 36 206 36 143 q 48 311 36 260 q 86 409 61 362 q 147 497 111 456 q 232 571 183 538 q 272 594 250 583 q 317 615 294 606 q 364 629 341 624 q 408 635 387 635 q 436 631 422 635 q 462 621 449 627 q 487 608 475 615 q 508 594 498 601 q 542 616 524 605 q 578 635 559 626 l 591 611 q 572 594 580 601 q 559 576 565 586 q 549 552 553 567 q 540 515 545 538 q 521 415 530 466 q 505 318 512 364 q 495 238 499 273 q 492 188 492 203 q 494 123 492 150 q 500 81 496 97 q 510 58 504 65 q 525 51 517 51 q 557 54 538 51 q 603 70 576 58 l 611 45 m 608 853 q 602 836 606 845 q 592 817 597 826 q 582 799 587 807 q 574 785 578 790 l 202 785 l 191 801 q 198 817 194 807 q 206 835 202 826 q 215 854 211 845 q 224 870 220 863 l 595 870 l 608 853 "},"Ĩ":{"x_min":13.5625,"x_max":509.984375,"ha":389,"o":"m 405 825 q 337 804 362 816 q 309 783 311 793 l 210 70 q 230 50 209 62 q 295 29 251 38 l 291 0 l 13 0 l 18 29 q 86 49 61 38 q 113 70 111 61 l 210 783 q 191 804 212 791 q 127 825 170 816 l 132 855 l 409 855 l 405 825 m 509 1094 q 477 1040 495 1067 q 438 991 459 1013 q 393 957 417 970 q 343 944 369 944 q 304 955 321 944 q 270 981 286 967 q 239 1006 254 994 q 205 1018 223 1018 q 157 996 181 1018 q 104 937 132 975 l 75 951 q 107 1005 89 978 q 146 1053 125 1031 q 192 1087 168 1074 q 242 1101 217 1101 q 283 1089 265 1101 q 318 1064 302 1077 q 349 1038 335 1050 q 377 1027 363 1027 q 427 1048 401 1027 q 479 1107 453 1069 l 509 1094 "},"ă":{"x_min":36,"x_max":611.359375,"ha":626,"o":"m 409 292 q 419 355 414 322 q 431 419 425 388 q 441 475 437 449 q 448 515 446 500 q 426 532 438 523 q 400 548 414 540 q 370 559 386 555 q 339 564 355 564 q 280 548 308 564 q 229 508 253 533 q 187 450 206 483 q 156 384 169 418 q 136 316 143 350 q 129 257 129 283 q 136 177 129 213 q 156 117 143 142 q 187 78 169 92 q 225 65 205 65 q 265 85 241 65 q 314 139 288 106 q 364 212 339 172 q 409 292 389 253 m 611 45 q 516 -10 552 7 q 460 -28 479 -28 q 436 -19 448 -28 q 416 12 425 -11 q 403 77 408 35 q 398 184 398 118 q 354 116 380 153 q 300 47 329 79 q 240 -6 271 14 q 180 -28 209 -28 q 132 -15 158 -28 q 85 25 107 -2 q 50 98 64 54 q 36 206 36 143 q 48 311 36 260 q 86 409 61 362 q 147 497 111 456 q 232 571 183 538 q 272 594 250 583 q 317 615 294 606 q 364 629 341 624 q 408 635 387 635 q 436 631 422 635 q 462 621 449 627 q 487 608 475 615 q 508 594 498 601 q 542 616 524 605 q 578 635 559 626 l 591 611 q 572 594 580 601 q 559 577 565 586 q 549 552 553 567 q 540 515 545 538 q 521 415 530 466 q 505 318 512 364 q 495 238 499 273 q 492 188 492 203 q 494 123 492 150 q 500 81 496 97 q 510 58 504 65 q 525 51 517 51 q 557 54 538 51 q 603 70 576 58 l 611 45 m 599 905 q 547 813 574 850 q 491 754 519 776 q 434 721 462 731 q 378 712 405 712 q 322 721 348 712 q 274 754 296 731 q 236 814 253 777 q 207 905 219 851 q 226 923 217 917 q 245 935 234 929 q 270 871 254 897 q 305 830 286 846 q 346 807 325 814 q 386 800 367 800 q 432 807 407 800 q 480 830 456 814 q 527 871 504 846 q 570 935 551 897 q 586 924 580 929 q 599 905 593 918 "},"*":{"x_min":-3.875,"x_max":518.5625,"ha":492,"o":"m 281 805 l 465 938 q 479 928 471 934 q 494 917 486 923 q 508 905 502 911 q 518 893 515 898 l 515 865 l 296 769 l 473 682 q 466 642 470 665 q 456 604 462 619 l 431 588 l 269 733 l 269 512 q 251 503 261 508 q 231 494 241 498 q 211 486 221 489 q 194 481 201 482 l 173 493 l 232 732 l 49 599 q 19 621 36 608 q -3 644 3 634 l 0 673 l 217 768 l 40 856 q 43 874 42 864 q 48 896 45 885 q 52 916 50 907 q 58 933 55 926 l 83 949 l 245 805 l 245 1026 q 261 1035 252 1030 q 282 1044 271 1040 q 302 1053 292 1049 q 319 1059 311 1056 l 342 1044 l 281 805 "},"†":{"x_min":103.75,"x_max":624.8125,"ha":596,"o":"m 624 728 q 596 676 613 705 q 560 622 579 647 q 480 646 521 638 q 388 654 439 654 q 380 557 380 607 q 384 461 380 508 q 346 310 361 386 q 320 169 330 234 q 310 85 314 130 q 307 0 307 40 q 277 -15 294 -10 q 245 -27 261 -21 l 229 -12 q 249 80 239 32 q 266 169 260 128 q 276 311 276 236 q 276 461 276 386 q 309 558 297 508 q 328 655 320 608 q 274 652 300 655 q 221 645 247 649 q 169 635 196 641 q 114 622 143 629 l 103 651 q 132 703 115 674 q 168 757 149 731 q 247 733 206 741 q 338 725 287 725 q 345 842 345 786 q 336 948 345 898 q 390 979 362 965 q 440 1003 418 994 l 464 986 q 425 856 441 923 q 398 725 409 789 q 453 727 426 725 q 505 734 479 729 q 558 744 531 738 q 613 757 585 750 l 624 728 "},"°":{"x_min":121,"x_max":417,"ha":427,"o":"m 246 577 q 288 588 269 577 q 319 618 307 600 q 339 657 332 636 q 346 697 346 678 q 331 752 346 730 q 291 775 317 775 q 255 765 273 775 q 223 739 237 755 q 201 701 210 723 q 193 655 193 679 q 196 625 193 639 q 206 600 199 611 q 223 583 213 589 q 246 577 233 577 m 417 728 q 407 668 417 696 q 381 616 397 639 q 344 573 365 592 q 302 541 323 555 q 259 521 280 528 q 221 515 238 515 q 180 523 199 515 q 148 546 161 531 q 128 580 135 561 q 121 622 121 600 q 140 706 121 667 q 189 774 159 745 q 252 821 218 804 q 316 838 286 838 q 356 829 338 838 q 388 806 374 821 q 409 771 402 791 q 417 728 417 751 "},"å":{"x_min":36,"x_max":611.40625,"ha":626,"o":"m 409 292 q 419 355 414 322 q 431 419 425 388 q 441 475 437 449 q 448 515 445 500 q 426 532 438 523 q 400 548 414 540 q 370 559 386 555 q 339 564 355 564 q 280 548 308 564 q 229 508 253 533 q 187 450 206 483 q 156 384 169 418 q 136 316 143 350 q 129 257 129 283 q 136 177 129 213 q 156 117 143 142 q 187 78 169 92 q 225 65 205 65 q 265 85 241 65 q 314 139 288 106 q 364 212 339 172 q 409 292 389 253 m 611 45 q 516 -10 552 7 q 460 -28 479 -28 q 436 -19 448 -28 q 416 12 425 -11 q 403 77 408 35 q 398 184 398 118 q 354 116 380 153 q 300 47 329 79 q 240 -6 270 14 q 180 -28 209 -28 q 132 -15 158 -28 q 85 25 107 -2 q 50 98 64 54 q 36 206 36 143 q 48 311 36 260 q 86 409 61 362 q 147 497 111 456 q 232 571 183 538 q 272 594 250 583 q 317 615 294 606 q 364 629 341 624 q 408 635 387 635 q 436 631 422 635 q 462 621 449 627 q 487 608 475 615 q 509 594 498 601 q 542 616 524 605 q 578 635 559 626 l 591 611 q 572 594 580 601 q 559 577 565 586 q 549 552 553 567 q 540 515 545 538 q 521 415 530 466 q 505 318 512 364 q 495 238 499 273 q 492 188 492 203 q 494 123 492 150 q 500 81 496 97 q 511 58 504 65 q 525 51 517 51 q 557 54 538 51 q 603 70 576 58 l 611 45 m 452 842 q 441 885 452 866 q 410 904 431 904 q 377 895 391 904 q 353 872 363 886 q 338 841 343 858 q 334 808 334 824 q 345 764 334 783 q 377 746 356 746 q 409 755 395 746 q 433 778 423 764 q 447 809 442 792 q 452 842 452 826 m 509 868 q 497 810 509 840 q 464 754 485 780 q 416 712 443 729 q 357 696 388 696 q 325 702 340 696 q 299 721 310 709 q 282 747 288 732 q 277 779 277 762 q 288 841 277 810 q 321 897 300 872 q 369 939 342 923 q 429 956 397 956 q 487 931 465 956 q 509 868 509 906 "},"0":{"x_min":32,"x_max":545,"ha":559,"o":"m 437 533 q 427 631 437 588 q 402 702 418 673 q 365 745 386 730 q 320 760 343 760 q 253 734 282 760 q 203 668 224 709 q 168 576 182 627 q 146 474 154 525 q 138 376 138 423 q 138 298 138 330 q 169 118 138 178 q 255 58 201 58 q 324 84 295 58 q 374 152 353 110 q 408 247 394 194 q 429 352 421 299 q 437 453 437 405 q 437 533 437 500 m 545 531 q 540 444 545 491 q 526 349 536 398 q 499 252 516 300 q 456 160 481 203 q 408 89 433 122 q 353 31 382 56 q 290 -6 324 7 q 216 -21 255 -21 q 134 2 169 -21 q 77 66 99 25 q 43 164 54 107 q 32 286 32 220 q 36 371 32 325 q 50 463 40 416 q 76 559 60 510 q 116 652 92 607 q 162 724 137 690 q 218 783 188 758 q 282 823 248 808 q 358 838 317 838 q 441 814 405 838 q 499 751 476 791 q 533 654 522 710 q 545 531 545 597 "},"ō":{"x_min":36,"x_max":577.796875,"ha":586,"o":"m 453 342 q 415 500 453 445 q 307 556 377 556 q 225 527 258 556 q 171 456 192 499 q 142 364 151 414 q 134 270 134 314 q 145 184 134 225 q 176 114 156 144 q 223 66 196 83 q 280 48 249 48 q 336 62 312 48 q 380 99 361 76 q 413 153 400 123 q 436 216 427 183 q 448 281 444 249 q 453 342 453 314 m 550 379 q 539 287 550 333 q 510 196 529 240 q 461 113 490 153 q 394 42 432 73 q 357 15 377 28 q 317 -7 337 2 q 276 -22 297 -17 q 234 -28 255 -28 q 150 -7 187 -28 q 87 46 113 12 q 49 129 62 81 q 36 233 36 177 q 44 327 36 282 q 70 414 52 372 q 119 495 88 456 q 194 569 149 533 q 270 616 229 597 q 354 635 311 635 q 444 616 406 635 q 504 563 481 597 q 539 482 528 529 q 550 379 550 435 m 577 853 q 571 836 575 845 q 561 817 566 826 q 552 799 556 807 q 543 785 547 790 l 171 785 l 161 801 q 167 817 163 807 q 176 835 171 826 q 185 854 180 845 q 194 870 190 863 l 564 870 l 577 853 "},"”":{"x_min":123.296875,"x_max":574,"ha":566,"o":"m 308 898 q 292 827 308 862 q 254 759 277 791 q 202 698 230 726 q 147 650 173 670 l 123 674 q 149 703 135 686 q 175 741 163 721 q 195 782 187 762 q 204 820 204 803 q 186 863 204 847 q 133 879 168 879 l 127 908 q 153 927 134 917 q 194 948 172 938 q 237 964 216 958 q 268 971 257 971 q 297 940 287 958 q 308 898 308 923 m 574 898 q 558 827 574 862 q 519 759 543 791 q 468 698 496 726 q 413 650 439 670 l 389 674 q 415 703 401 686 q 441 741 429 721 q 461 782 453 762 q 469 820 469 803 q 451 863 469 847 q 399 879 433 879 l 394 908 q 420 927 401 917 q 461 948 439 938 q 504 964 483 958 q 536 971 525 971 q 564 940 554 958 q 574 898 574 923 "},"ŵ":{"x_min":3.15625,"x_max":867,"ha":875,"o":"m 867 583 q 863 541 867 565 q 851 484 860 517 q 825 406 841 451 q 783 303 809 362 q 720 170 757 244 q 632 1 683 95 q 618 -5 625 -2 q 601 -13 610 -9 q 584 -21 592 -17 q 569 -27 576 -25 l 547 -6 q 536 75 542 31 q 524 165 530 120 q 510 256 517 211 q 497 341 504 301 q 483 414 490 381 q 471 468 477 447 q 462 424 471 453 q 441 357 454 396 q 409 274 427 318 q 370 182 391 229 q 326 90 349 135 q 281 6 304 45 q 266 -1 275 3 q 248 -10 258 -5 q 229 -20 239 -15 q 214 -27 220 -25 l 192 -6 q 182 77 187 31 q 172 173 177 124 q 161 272 167 222 q 150 365 156 321 q 139 446 145 409 q 127 505 134 482 q 118 534 123 523 q 105 551 112 545 q 92 559 99 557 q 79 561 85 561 q 62 558 73 561 q 40 552 51 556 q 12 544 27 549 l 3 570 q 57 594 31 583 q 104 615 83 606 q 141 629 125 624 q 165 635 157 635 q 194 612 184 635 q 215 542 203 590 q 225 488 219 523 q 236 412 230 454 q 247 324 242 370 q 258 237 253 278 q 265 162 262 196 q 269 112 269 129 q 325 228 296 165 q 377 354 353 291 q 417 478 401 418 q 434 586 434 538 q 456 604 444 595 q 480 619 468 612 q 503 630 492 626 q 521 635 513 635 q 528 623 524 635 q 537 594 532 612 q 547 551 541 575 q 557 502 552 527 l 566 452 q 574 407 571 427 q 586 336 579 375 q 599 257 592 297 q 611 175 605 216 q 620 99 617 134 q 703 264 671 193 q 754 389 736 335 q 778 479 772 442 q 785 542 785 516 q 775 564 785 556 q 747 573 765 573 q 724 570 738 573 q 695 562 710 567 l 683 587 q 727 610 706 601 q 765 624 748 619 q 793 632 782 630 q 809 635 805 635 q 831 633 821 635 q 849 626 841 631 q 862 610 857 620 q 867 583 867 600 m 708 726 q 693 706 698 712 q 677 696 688 700 l 536 875 l 351 696 q 340 706 345 700 q 329 726 335 712 l 521 978 l 583 978 l 708 726 "},"ö":{"x_min":36,"x_max":555,"ha":586,"o":"m 453 342 q 415 500 453 445 q 307 556 377 556 q 225 527 258 556 q 171 456 192 499 q 142 364 151 414 q 134 270 134 314 q 145 184 134 225 q 176 114 156 144 q 223 66 196 83 q 280 48 249 48 q 336 62 312 48 q 380 99 361 76 q 413 153 400 123 q 436 216 427 183 q 448 281 444 249 q 453 342 453 314 m 550 379 q 539 287 550 333 q 510 196 529 240 q 461 113 490 153 q 394 42 432 73 q 357 15 377 28 q 317 -7 337 2 q 276 -22 297 -17 q 234 -28 255 -28 q 150 -7 187 -28 q 87 46 113 12 q 49 129 62 81 q 36 233 36 177 q 44 327 36 282 q 70 414 52 372 q 119 495 88 456 q 194 569 149 533 q 270 616 229 597 q 354 635 311 635 q 444 616 406 635 q 504 563 481 597 q 539 482 528 529 q 550 379 550 435 m 302 856 q 295 818 302 837 q 278 784 289 799 q 252 759 268 769 q 217 750 236 750 q 183 762 195 750 q 171 797 171 774 q 177 834 171 815 q 195 868 183 853 q 222 894 206 884 q 257 904 238 904 q 290 891 278 904 q 302 856 302 879 m 555 856 q 548 818 555 837 q 531 784 542 799 q 504 759 520 769 q 468 750 488 750 q 435 762 447 750 q 424 797 424 774 q 430 834 424 815 q 447 868 436 853 q 473 894 457 884 q 508 904 489 904 q 542 891 529 904 q 555 856 555 879 "},"Õ":{"x_min":61,"x_max":736,"ha":757,"o":"m 635 512 q 622 620 635 569 q 586 708 610 670 q 528 767 563 745 q 449 790 493 790 q 356 770 397 790 q 283 716 315 750 q 229 639 251 683 q 192 547 206 595 q 170 452 177 500 q 164 360 164 403 q 177 243 164 297 q 214 151 190 190 q 273 90 239 112 q 349 68 307 68 q 443 89 402 68 q 517 144 485 110 q 571 225 548 179 q 607 320 593 271 q 628 420 622 370 q 635 512 635 470 m 736 525 q 728 427 736 476 q 704 329 720 377 q 665 236 688 281 q 611 152 641 191 q 550 84 582 116 q 481 29 518 52 q 405 -7 445 6 q 319 -21 364 -21 q 205 6 254 -21 q 125 82 157 34 q 76 194 92 130 q 61 328 61 257 q 68 419 61 371 q 91 515 76 467 q 126 608 105 563 q 174 690 147 653 q 236 762 203 728 q 306 820 269 795 q 387 860 344 845 q 478 875 430 875 q 593 847 544 875 q 673 771 642 819 q 720 659 705 723 q 736 525 736 596 m 709 1094 q 677 1040 695 1067 q 638 991 659 1013 q 593 957 617 970 q 542 944 569 944 q 503 955 520 944 q 470 981 486 967 q 438 1006 454 994 q 404 1018 422 1018 q 356 996 381 1018 q 303 937 332 975 l 274 951 q 306 1005 288 978 q 346 1053 324 1031 q 392 1087 367 1074 q 442 1101 416 1101 q 483 1089 464 1101 q 518 1064 501 1077 q 548 1038 534 1050 q 577 1027 563 1027 q 627 1048 601 1027 q 679 1107 653 1069 l 709 1094 "},"ć":{"x_min":36,"x_max":593.4375,"ha":539,"o":"m 551 553 q 521 531 537 542 q 490 510 505 519 q 462 495 475 501 q 440 489 449 489 q 421 500 432 489 q 396 526 411 512 q 363 552 381 540 q 323 564 345 564 q 266 549 292 564 q 219 508 240 534 q 182 450 198 483 q 156 382 166 417 q 140 310 145 346 q 135 242 135 274 q 144 163 135 198 q 172 102 154 127 q 214 64 189 78 q 267 51 238 51 q 299 55 280 51 q 342 70 318 59 q 398 100 367 81 q 465 149 428 119 q 476 134 470 142 q 486 121 482 127 q 391 44 433 73 q 315 -1 349 14 q 253 -22 280 -17 q 201 -28 225 -28 q 149 -16 178 -28 q 96 23 121 -4 q 53 99 70 52 q 36 218 36 147 q 45 312 36 263 q 76 407 55 360 q 131 495 97 453 q 216 571 166 537 q 258 594 235 583 q 306 615 281 606 q 355 629 331 624 q 400 635 379 635 q 453 623 430 635 q 495 597 476 612 q 527 569 513 582 q 551 553 541 556 m 593 932 l 352 696 q 336 703 341 698 q 322 719 331 708 l 506 989 q 523 984 513 987 q 545 977 534 981 q 567 970 557 974 q 583 962 577 966 l 593 932 "},"þ":{"x_min":-1.703125,"x_max":600,"ha":654,"o":"m 412 546 q 368 530 395 546 q 312 484 342 514 q 253 413 282 455 q 202 322 224 372 l 183 208 q 212 160 193 186 q 254 111 231 134 q 305 73 278 89 q 358 58 332 58 q 394 65 377 58 q 423 84 410 72 q 447 113 436 97 q 466 148 457 129 q 485 203 478 174 q 496 260 493 232 q 500 314 500 288 q 500 360 500 340 q 492 443 500 408 q 472 500 485 478 q 444 534 460 523 q 412 546 429 546 m 293 967 q 288 910 293 953 q 274 801 283 868 q 252 643 265 733 q 221 442 239 552 q 301 546 264 507 q 370 603 338 584 q 426 629 401 623 q 471 635 452 635 q 521 621 498 635 q 562 581 544 607 q 589 515 579 554 q 600 425 600 476 q 581 281 600 357 q 519 127 562 205 q 482 72 503 100 q 435 22 461 45 q 380 -13 410 0 q 319 -28 351 -28 q 277 -15 298 -28 q 238 16 257 -3 q 201 62 219 37 q 167 116 184 88 q 156 60 161 88 q 145 3 151 32 q 119 -210 119 -135 q 121 -303 119 -284 q 97 -310 111 -306 q 69 -320 84 -314 q 42 -330 55 -325 q 20 -339 28 -335 l -1 -319 q 22 -179 8 -259 q 50 -8 35 -99 q 81 178 66 81 q 112 370 97 275 q 140 552 127 464 q 163 712 153 640 q 179 836 173 784 q 185 912 185 888 q 182 937 185 928 q 174 950 179 946 q 162 956 169 955 q 148 958 156 958 q 131 954 142 958 q 108 948 120 951 q 81 939 95 944 l 72 966 q 130 990 100 979 q 185 1011 160 1002 q 231 1025 211 1020 q 259 1031 251 1031 q 287 1016 281 1031 q 293 967 293 1001 "},"]":{"x_min":-58.328125,"x_max":405.546875,"ha":397,"o":"m 222 -228 l -38 -228 l -58 -208 q -45 -175 -52 -192 q -33 -150 -38 -158 l 144 -150 l 307 1009 l 134 1009 l 115 1026 q 126 1057 119 1041 q 140 1085 134 1073 l 405 1085 l 222 -228 "},"ĭ":{"x_min":47.703125,"x_max":468.515625,"ha":342,"o":"m 308 48 q 251 15 276 29 q 204 -8 225 1 q 166 -23 183 -18 q 135 -28 150 -28 q 98 -6 112 -28 q 85 51 85 14 q 90 109 85 71 q 102 192 95 146 q 119 288 110 238 q 135 383 127 338 q 147 463 142 428 q 153 515 153 499 q 150 540 153 531 q 145 553 148 549 q 136 559 142 558 q 125 561 131 561 q 108 558 119 561 q 85 552 97 556 q 57 544 72 549 l 47 569 q 104 594 76 582 q 156 615 132 606 q 199 629 181 624 q 226 635 217 635 q 253 622 245 635 q 261 577 261 609 q 255 519 261 558 q 242 434 250 481 q 226 334 234 386 q 209 235 217 282 q 196 149 201 187 q 191 91 191 110 q 195 60 191 70 q 211 51 199 51 q 251 56 232 51 q 298 73 270 61 l 308 48 m 468 905 q 416 813 443 850 q 360 754 388 776 q 303 721 331 731 q 247 712 274 712 q 191 721 217 712 q 143 754 165 731 q 105 814 122 777 q 76 905 88 851 q 95 923 86 917 q 114 935 104 929 q 139 871 123 897 q 174 830 155 846 q 215 807 194 814 q 255 800 236 800 q 301 807 276 800 q 349 830 325 814 q 396 871 373 846 q 439 935 419 897 q 455 924 448 929 q 468 905 461 918 "},"8":{"x_min":22,"x_max":527,"ha":558,"o":"m 194 637 q 205 590 194 611 q 236 553 217 570 q 280 521 255 536 q 332 492 305 506 q 373 524 354 506 q 405 562 392 541 q 427 607 419 582 q 435 661 435 631 q 403 745 435 716 q 318 774 371 774 q 268 762 291 774 q 229 731 246 750 q 203 688 212 712 q 194 637 194 663 m 401 232 q 389 296 401 269 q 357 344 377 323 q 312 382 337 365 q 261 414 287 399 q 201 369 227 392 q 157 319 175 346 q 129 259 139 292 q 120 186 120 227 q 128 132 120 157 q 154 88 137 106 q 195 58 171 69 q 249 48 219 48 q 315 64 286 48 q 363 107 344 81 q 391 166 382 134 q 401 232 401 199 m 527 679 q 514 610 527 641 q 480 553 501 579 q 431 506 459 527 q 375 466 404 484 q 423 431 401 450 q 463 389 446 413 q 491 336 481 366 q 502 269 502 306 q 478 159 502 211 q 414 66 454 106 q 320 2 373 26 q 210 -21 268 -21 q 128 -5 163 -21 q 69 36 93 10 q 33 97 45 63 q 22 169 22 131 q 38 256 22 216 q 83 330 55 296 q 146 391 110 363 q 219 439 181 418 q 177 467 197 452 q 143 502 158 483 q 119 546 128 522 q 111 603 111 571 q 131 695 111 652 q 186 770 152 738 q 266 820 221 802 q 358 838 310 838 q 431 826 400 838 q 484 793 463 814 q 516 743 506 772 q 527 679 527 713 "},"꞊":{"x_min":20.34375,"x_max":399.4375,"ha":427,"o":"m 399 407 q 385 375 394 392 q 371 346 377 358 l 56 346 l 46 364 q 57 394 50 377 q 73 424 65 410 l 385 424 l 399 407 m 373 235 q 360 203 368 220 q 345 174 351 186 l 31 174 l 20 192 q 31 222 24 205 q 48 252 39 238 l 359 252 l 373 235 "},"R":{"x_min":0.375,"x_max":730.46875,"ha":730,"o":"m 730 73 q 678 40 704 56 q 630 14 652 25 q 591 -3 609 2 q 565 -10 574 -10 q 543 -6 554 -10 q 522 6 533 -3 q 500 34 512 16 q 476 79 489 51 l 323 400 q 282 403 303 400 q 245 410 262 406 l 199 70 q 218 50 196 62 q 282 29 239 38 l 278 0 l 0 0 l 4 29 q 72 49 47 38 q 100 70 98 61 l 201 808 q 148 801 174 805 q 96 791 122 796 l 96 832 q 157 848 126 840 q 222 862 188 856 q 294 871 255 868 q 379 875 333 875 q 487 861 438 875 q 570 819 535 847 q 624 751 605 792 q 642 658 642 711 q 631 593 642 632 q 592 517 619 555 q 522 448 565 480 q 415 404 478 417 l 573 124 q 597 91 586 103 q 623 77 608 79 q 661 80 638 74 q 718 99 683 86 l 730 73 m 348 817 l 324 817 q 300 817 312 817 l 251 459 q 290 451 271 454 q 329 449 310 449 q 411 460 371 449 q 480 496 450 472 q 528 554 510 519 q 546 638 546 590 q 527 722 546 688 q 479 777 508 756 q 416 807 451 798 q 348 817 381 817 "},"Ż":{"x_min":21.453125,"x_max":694.40625,"ha":693,"o":"m 164 68 l 493 68 q 518 74 506 68 q 543 97 531 80 q 569 142 556 114 q 601 215 583 171 l 634 205 q 625 155 630 183 q 616 100 621 128 q 606 45 611 71 q 598 0 602 19 l 33 0 l 21 30 l 556 792 l 270 792 q 247 784 260 792 q 219 760 234 777 q 190 718 205 744 q 164 653 176 691 l 129 661 l 178 872 q 207 862 194 865 q 235 856 221 858 q 262 855 248 855 q 294 855 277 855 l 682 855 l 694 823 l 164 68 m 514 1051 q 508 1013 514 1031 q 491 979 502 994 q 465 954 480 964 q 430 945 449 945 q 398 957 409 945 q 387 992 387 969 q 393 1029 387 1010 q 409 1063 399 1048 q 435 1089 420 1079 q 470 1099 451 1099 q 502 1086 491 1099 q 514 1051 514 1074 "},"o":{"x_min":36,"x_max":550,"ha":586,"o":"m 453 342 q 415 500 453 445 q 307 556 377 556 q 225 527 258 556 q 171 456 192 499 q 142 364 151 414 q 134 270 134 314 q 145 184 134 225 q 176 114 156 144 q 223 66 196 83 q 280 48 249 48 q 336 62 312 48 q 380 99 361 76 q 413 153 400 123 q 436 216 427 183 q 448 281 444 249 q 453 342 453 314 m 550 379 q 539 287 550 333 q 510 196 529 240 q 461 113 490 153 q 394 42 432 73 q 357 15 377 28 q 317 -7 337 2 q 276 -22 297 -17 q 234 -28 255 -28 q 150 -7 187 -28 q 87 46 113 12 q 49 129 62 81 q 36 233 36 177 q 44 327 36 282 q 70 414 52 372 q 119 495 88 456 q 194 569 149 533 q 270 616 229 597 q 354 635 311 635 q 444 616 406 635 q 504 563 481 597 q 539 482 528 529 q 550 379 550 435 "},"5":{"x_min":-2.671875,"x_max":541.546875,"ha":558,"o":"m 541 810 q 523 787 533 799 q 502 766 513 776 q 482 746 492 755 q 465 732 473 738 l 229 732 q 217 680 225 712 q 200 616 209 649 q 183 555 191 583 q 170 511 175 526 q 229 524 196 519 q 294 529 263 529 q 377 512 341 529 q 438 466 414 495 q 476 400 463 438 q 490 323 490 363 q 481 241 490 282 q 455 162 472 200 q 414 90 439 124 q 358 32 390 56 q 288 -6 327 7 q 205 -21 250 -21 q 97 3 149 -21 q -2 80 45 27 l 25 126 q 80 87 55 102 q 126 63 105 72 q 164 52 147 55 q 200 49 182 49 q 286 71 250 49 q 345 130 322 94 q 379 211 368 166 q 390 300 390 256 q 380 362 390 334 q 352 410 371 390 q 307 442 334 430 q 247 454 281 454 q 105 399 178 454 l 80 422 q 96 478 87 446 q 116 547 105 511 q 136 620 126 583 q 155 693 146 658 q 172 761 164 729 q 184 817 180 793 l 451 817 q 482 818 468 817 q 505 823 496 820 q 525 829 517 825 l 541 810 "},"õ":{"x_min":36,"x_max":580.515625,"ha":586,"o":"m 453 342 q 415 500 453 445 q 307 556 377 556 q 225 527 258 556 q 171 456 192 499 q 142 364 151 414 q 134 270 134 314 q 145 184 134 225 q 176 114 156 144 q 223 66 196 83 q 280 48 249 48 q 336 62 312 48 q 380 99 361 76 q 413 153 400 123 q 436 216 427 183 q 448 281 444 249 q 453 342 453 314 m 550 379 q 539 287 550 333 q 510 196 529 240 q 461 113 490 153 q 394 42 432 73 q 357 15 377 28 q 317 -7 337 2 q 276 -22 297 -17 q 234 -28 255 -28 q 150 -7 187 -28 q 87 46 113 12 q 49 129 62 81 q 36 233 36 177 q 44 327 36 282 q 70 414 52 372 q 119 495 88 456 q 194 569 149 533 q 270 616 229 597 q 354 635 311 635 q 444 616 406 635 q 504 563 481 597 q 539 482 528 529 q 550 379 550 435 m 580 899 q 548 845 566 872 q 509 796 530 818 q 464 762 488 775 q 413 749 440 749 q 374 760 392 749 q 341 786 357 772 q 309 811 325 799 q 276 823 293 823 q 228 801 252 823 q 175 742 203 780 l 146 756 q 178 810 160 783 q 217 858 196 836 q 263 892 238 879 q 313 906 287 906 q 354 894 335 906 q 389 869 373 882 q 419 843 405 855 q 448 832 434 832 q 498 853 472 832 q 550 912 524 874 l 580 899 "},",":{"x_min":-11.75,"x_max":206,"ha":279,"o":"m 206 68 q 198 28 206 51 q 176 -20 190 5 q 144 -73 162 -46 q 104 -125 125 -100 q 58 -172 82 -150 q 11 -207 35 -193 l -11 -183 q 92 0 92 -73 q 88 23 92 11 q 76 43 84 35 q 53 55 67 51 q 18 56 39 59 l 12 87 q 40 106 20 95 q 83 128 60 118 q 128 147 106 139 q 161 155 151 155 q 182 141 174 148 q 195 126 190 135 q 203 103 201 117 q 206 68 206 89 "},"d":{"x_min":36,"x_max":626.453125,"ha":657,"o":"m 421 287 q 435 380 427 328 q 453 490 444 432 q 428 515 442 502 q 400 539 415 528 q 368 557 384 550 q 332 564 351 564 q 273 548 300 564 q 224 508 247 533 q 184 450 201 483 q 154 384 166 418 q 135 316 141 350 q 129 257 129 283 q 138 177 129 213 q 162 117 147 142 q 196 78 177 92 q 234 65 215 65 q 275 81 253 65 q 322 129 298 98 q 371 200 346 159 q 421 287 397 240 m 626 46 q 532 -10 569 7 q 472 -28 495 -28 q 448 -17 459 -28 q 430 18 438 -6 q 417 86 422 43 q 413 190 413 128 q 363 108 389 147 q 307 38 336 69 q 247 -10 277 7 q 187 -28 216 -28 q 137 -14 164 -28 q 88 29 111 0 q 50 104 65 58 q 36 213 36 150 q 47 317 36 267 q 82 414 59 368 q 141 499 105 459 q 225 571 177 539 q 266 594 244 583 q 311 614 288 605 q 357 629 334 624 q 401 635 380 635 q 436 624 418 635 q 471 599 454 613 q 486 695 479 648 q 499 784 493 743 q 507 858 504 825 q 511 912 511 891 q 508 937 511 928 q 501 950 506 946 q 492 956 497 955 q 480 958 486 958 q 463 954 474 958 q 439 948 451 951 q 408 939 425 944 l 400 966 q 457 990 429 979 q 511 1011 486 1002 q 554 1025 535 1020 q 581 1031 573 1031 q 609 1018 600 1031 q 619 975 619 1006 q 614 906 619 948 q 601 812 609 864 q 584 701 593 760 q 563 582 574 642 q 543 464 553 522 q 525 355 533 405 q 513 265 517 305 q 509 202 509 225 q 516 88 509 124 q 539 53 523 53 q 575 56 556 53 q 617 70 593 60 l 626 46 "},"Ꞌ":{"x_min":169,"x_max":311.421875,"ha":305,"o":"m 203 517 q 187 509 195 511 q 169 507 179 507 l 169 1001 q 193 1011 178 1005 q 225 1022 208 1017 q 256 1031 241 1027 q 279 1037 270 1035 l 311 1019 l 203 517 "},"\"":{"x_min":167,"x_max":504.640625,"ha":536,"o":"m 206 592 q 187 584 197 586 q 167 582 178 582 l 167 937 q 188 946 176 941 q 214 956 201 951 q 239 964 227 960 q 259 970 251 968 l 284 955 l 206 592 m 427 592 q 409 584 418 586 q 388 582 399 582 l 388 937 q 409 946 397 941 q 435 956 422 951 q 460 964 448 960 q 480 970 472 968 l 504 955 l 427 592 "},"˙":{"x_min":111,"x_max":238,"ha":228,"o":"m 238 855 q 232 818 238 836 q 215 784 226 799 q 189 759 204 769 q 154 750 173 750 q 122 762 133 750 q 111 797 111 774 q 117 834 111 815 q 133 868 123 853 q 159 894 144 884 q 194 904 175 904 q 226 891 215 904 q 238 855 238 878 "},"ê":{"x_min":43,"x_max":543.59375,"ha":546,"o":"m 264 530 q 220 481 241 510 q 181 417 198 451 q 152 346 164 383 q 141 273 141 309 q 280 336 229 308 q 358 390 332 364 q 392 438 385 415 q 400 485 400 461 q 394 521 400 506 q 380 545 389 536 q 360 559 371 555 q 337 564 348 564 q 305 556 326 564 q 264 530 284 548 m 509 515 q 504 475 509 496 q 486 432 500 454 q 447 385 472 409 q 381 334 422 360 q 281 280 340 308 q 140 221 222 252 q 156 152 144 183 q 184 98 168 120 q 218 63 200 76 q 255 51 237 51 q 290 54 269 51 q 337 67 310 57 q 397 97 364 77 q 472 149 431 116 q 485 136 479 145 q 493 121 491 127 q 394 44 437 73 q 318 -1 352 14 q 258 -22 285 -17 q 207 -28 231 -28 q 156 -15 184 -28 q 102 24 127 -2 q 60 96 77 52 q 43 205 43 140 q 55 309 43 258 q 92 408 68 360 q 152 497 116 455 q 232 573 187 539 q 267 597 247 586 q 308 617 287 608 q 351 630 329 625 q 395 635 374 635 q 445 624 424 635 q 481 596 466 613 q 502 558 495 580 q 509 515 509 537 m 543 726 q 529 706 534 712 q 513 696 523 700 l 371 875 l 186 696 q 175 706 180 700 q 164 726 170 712 l 356 978 l 419 978 l 543 726 "},"„":{"x_min":8.296875,"x_max":459,"ha":566,"o":"m 193 76 q 177 5 193 40 q 139 -62 162 -30 q 87 -123 115 -95 q 32 -170 58 -151 l 8 -147 q 34 -117 20 -134 q 60 -79 48 -99 q 80 -38 72 -59 q 89 0 89 -18 q 71 41 89 25 q 18 57 53 57 l 12 87 q 38 106 19 95 q 79 126 57 116 q 122 142 101 136 q 153 149 143 149 q 182 119 171 136 q 193 76 193 102 m 459 76 q 443 5 459 40 q 404 -62 428 -30 q 353 -123 381 -95 q 298 -170 324 -151 l 273 -147 q 300 -117 286 -134 q 326 -79 314 -99 q 346 -38 338 -59 q 354 0 354 -18 q 336 41 354 25 q 284 57 318 57 l 279 87 q 305 106 286 95 q 346 126 324 116 q 389 142 368 136 q 421 149 410 149 q 449 119 439 136 q 459 76 459 102 "},"Â":{"x_min":-23.734375,"x_max":726.3125,"ha":778,"o":"m 251 301 l 154 75 q 165 45 145 54 q 237 29 185 36 l 233 0 l -23 0 l -19 29 q 48 46 23 37 q 83 75 74 56 l 413 833 q 434 850 422 841 q 459 866 446 858 q 484 881 472 874 q 505 893 496 888 l 651 75 q 656 59 653 66 q 668 46 660 51 q 690 36 676 40 q 726 29 704 32 l 723 0 l 462 0 l 465 31 q 534 42 513 31 q 551 75 555 54 l 512 301 l 251 301 m 501 363 l 437 732 l 278 363 l 501 363 m 667 943 q 652 924 657 930 q 636 913 647 917 l 491 1052 l 310 913 q 299 923 304 917 q 288 943 295 930 l 474 1147 l 537 1147 l 667 943 "},"ė":{"x_min":43,"x_max":509,"ha":546,"o":"m 264 530 q 220 481 241 510 q 181 417 198 451 q 152 346 164 383 q 141 273 141 309 q 280 336 229 308 q 358 390 332 364 q 392 438 385 415 q 400 485 400 461 q 394 521 400 506 q 380 545 389 536 q 360 559 371 555 q 337 564 348 564 q 305 556 326 564 q 264 530 284 548 m 509 515 q 504 475 509 496 q 486 432 500 454 q 447 385 472 409 q 381 334 422 360 q 281 280 340 308 q 140 221 222 252 q 156 152 144 183 q 184 98 168 120 q 218 63 200 76 q 255 51 237 51 q 290 54 269 51 q 337 67 310 57 q 397 97 364 77 q 472 149 431 116 q 485 136 479 145 q 493 121 491 127 q 395 44 437 73 q 318 -1 352 14 q 258 -22 285 -17 q 207 -28 231 -28 q 156 -15 184 -28 q 102 24 127 -2 q 60 96 77 52 q 43 205 43 140 q 55 309 43 258 q 92 408 68 360 q 152 497 116 455 q 232 573 187 539 q 267 597 247 586 q 308 617 287 608 q 351 630 329 625 q 395 635 374 635 q 445 624 424 635 q 481 596 466 613 q 502 558 495 580 q 509 515 509 537 m 430 855 q 424 818 430 836 q 407 784 418 799 q 380 759 396 769 q 346 750 365 750 q 313 762 325 750 q 302 797 302 774 q 308 834 302 815 q 325 868 314 853 q 351 894 336 884 q 385 904 366 904 q 418 891 406 904 q 430 855 430 878 "},"Í":{"x_min":13.6875,"x_max":504,"ha":389,"o":"m 405 825 q 337 804 362 816 q 310 783 311 793 l 211 70 q 230 50 209 62 q 295 29 251 38 l 291 0 l 13 0 l 18 29 q 86 49 61 38 q 114 70 112 61 l 211 783 q 191 804 212 791 q 127 825 170 816 l 132 855 l 409 855 l 405 825 m 504 1078 l 195 913 q 182 925 185 919 q 173 945 179 931 l 438 1158 l 453 1148 q 472 1135 462 1142 q 491 1122 482 1129 q 504 1110 499 1115 l 504 1078 "},"´":{"x_min":116.640625,"x_max":387.90625,"ha":411,"o":"m 387 932 l 147 696 q 131 703 136 698 q 116 719 126 708 l 301 989 q 318 984 307 987 q 340 977 328 981 q 362 970 351 974 q 377 962 372 966 l 387 932 "},"Ú":{"x_min":113.796875,"x_max":872.203125,"ha":832,"o":"m 868 825 q 801 804 825 815 q 776 783 777 792 l 715 347 q 674 189 703 258 q 601 73 644 120 q 501 3 558 27 q 377 -21 444 -21 q 275 -4 322 -21 q 195 45 229 12 q 144 125 162 78 q 126 236 126 173 q 132 313 126 271 l 198 783 q 178 803 199 791 q 113 825 157 815 l 117 854 l 395 854 l 391 825 q 322 804 348 815 q 294 783 296 792 l 234 345 q 232 306 232 325 q 232 268 232 286 q 243 182 232 221 q 277 116 255 144 q 334 73 300 88 q 412 58 368 58 q 493 79 456 58 q 559 137 530 101 q 606 220 587 173 q 631 317 625 266 l 694 783 q 676 803 695 791 q 613 825 657 815 l 617 855 l 872 855 l 868 825 m 742 1078 l 433 913 q 420 925 423 919 q 410 945 416 931 l 676 1158 l 691 1148 q 710 1135 700 1142 q 729 1122 720 1129 q 742 1110 737 1115 l 742 1078 "},"Ŷ":{"x_min":69.171875,"x_max":816.515625,"ha":777,"o":"m 497 0 l 194 0 l 198 29 q 281 55 257 42 q 307 77 305 68 l 347 373 q 315 480 335 423 q 272 593 295 537 q 224 698 248 649 q 176 782 199 748 q 161 798 169 792 q 142 807 153 804 q 115 811 131 811 q 75 808 99 811 l 69 837 q 109 847 87 842 q 153 856 131 852 q 194 863 174 860 q 226 866 213 866 q 261 839 244 866 q 292 785 276 816 q 325 720 308 755 q 357 649 341 685 q 385 578 372 613 q 408 512 398 543 q 423 459 418 482 l 633 780 q 629 809 644 799 q 568 825 614 818 l 572 855 l 816 855 l 812 825 q 745 807 769 816 q 710 780 721 798 l 445 367 l 405 77 q 409 68 404 73 q 424 55 413 62 q 454 42 436 48 q 501 29 473 35 l 497 0 m 661 944 q 646 924 651 930 q 630 913 641 918 l 484 1052 l 304 913 q 293 923 298 917 q 282 944 288 930 l 468 1148 l 531 1148 l 661 944 "},"ŝ":{"x_min":-3,"x_max":493.0625,"ha":482,"o":"m 472 572 q 445 544 459 557 q 421 522 432 532 q 400 508 409 513 q 386 503 391 503 q 367 514 377 503 q 345 540 357 526 q 316 566 333 554 q 277 578 299 578 q 240 570 258 578 q 207 551 222 563 q 184 520 193 538 q 175 481 175 502 q 197 430 175 457 q 274 379 220 404 q 330 349 302 366 q 380 310 358 332 q 416 260 402 288 q 430 196 430 232 q 405 108 430 149 q 344 36 381 67 q 260 -10 306 6 q 170 -28 214 -28 q 107 -18 138 -28 q 51 4 76 -9 q 12 35 27 18 q -3 66 -3 52 q 5 87 -3 73 q 24 116 13 102 q 47 140 35 129 q 66 151 58 151 q 75 142 70 151 q 88 121 80 134 q 107 93 96 108 q 134 66 118 79 q 172 45 150 53 q 224 37 194 37 q 269 46 248 37 q 306 70 290 55 q 331 106 322 85 q 341 151 341 127 q 330 198 341 177 q 301 237 319 220 q 260 269 283 254 q 210 295 236 283 q 150 329 175 312 q 110 364 125 346 q 89 401 95 381 q 83 443 83 421 q 104 521 83 485 q 158 581 125 556 q 232 621 191 607 q 313 635 273 635 q 371 626 347 635 q 413 607 395 618 q 444 586 431 597 q 472 572 458 576 m 493 726 q 478 706 483 712 q 462 696 473 700 l 321 875 l 136 696 q 125 706 130 700 q 114 726 121 712 l 306 978 l 368 978 l 493 726 "},"Ý":{"x_min":68.71875,"x_max":816.0625,"ha":777,"o":"m 496 0 l 194 0 l 198 29 q 281 55 257 42 q 306 77 305 68 l 346 373 q 314 480 334 423 q 271 593 295 537 q 223 698 248 649 q 175 782 198 748 q 161 798 169 792 q 142 807 153 804 q 114 811 131 811 q 74 808 98 811 l 68 837 q 109 847 87 842 q 152 856 131 852 q 193 863 174 860 q 226 866 213 866 q 260 839 243 866 q 291 785 275 816 q 324 720 308 755 q 356 649 341 685 q 385 578 371 613 q 408 512 398 543 q 423 459 417 482 l 632 780 q 629 809 644 799 q 567 825 613 818 l 571 855 l 816 855 l 812 825 q 745 807 769 816 q 709 780 721 798 l 445 367 l 405 77 q 408 68 404 73 q 424 55 413 62 q 454 42 435 48 q 500 29 472 35 l 496 0 m 694 1079 l 385 913 q 372 925 375 919 q 363 945 369 931 l 628 1159 l 643 1148 q 662 1136 652 1142 q 681 1122 672 1129 q 694 1110 689 1115 l 694 1079 "},"Ĉ":{"x_min":52,"x_max":689.796875,"ha":675,"o":"m 689 807 q 684 792 691 803 q 665 766 676 780 q 639 738 653 752 q 617 717 626 724 l 597 722 q 530 772 569 752 q 434 793 490 793 q 373 780 407 793 q 312 746 339 767 q 239 662 269 712 q 190 557 209 612 q 162 447 171 501 q 154 349 154 392 q 174 222 154 276 q 225 133 194 168 q 294 81 257 98 q 368 65 332 65 q 459 89 406 65 q 588 173 512 113 q 594 167 592 172 q 600 158 597 163 q 604 149 602 153 q 608 143 607 145 q 521 65 562 97 q 445 16 481 34 q 375 -10 408 -2 q 310 -18 342 -18 q 212 4 259 -18 q 130 68 165 26 q 73 171 94 110 q 52 311 52 232 q 64 441 52 375 q 103 570 77 507 q 171 689 129 632 q 269 791 212 746 q 376 852 319 830 q 497 875 433 875 q 611 855 564 875 q 689 807 659 835 m 660 943 q 646 923 651 929 q 630 913 640 917 l 484 1052 l 303 913 q 293 923 297 917 q 281 943 288 929 l 468 1147 l 530 1147 l 660 943 "},"Ö":{"x_min":61,"x_max":736,"ha":757,"o":"m 635 512 q 622 620 635 569 q 586 708 610 670 q 528 767 563 745 q 449 790 493 790 q 356 770 397 790 q 283 716 315 750 q 229 639 251 683 q 192 547 206 595 q 170 452 177 500 q 164 360 164 403 q 177 243 164 297 q 214 151 190 190 q 273 90 239 112 q 349 68 307 68 q 443 89 402 68 q 517 144 485 110 q 571 225 548 179 q 607 320 593 271 q 628 420 622 370 q 635 512 635 470 m 736 525 q 728 427 736 476 q 704 329 720 377 q 665 236 688 281 q 611 152 641 191 q 550 84 582 116 q 481 29 518 52 q 405 -7 445 6 q 319 -21 364 -21 q 205 6 254 -21 q 125 82 157 34 q 76 194 92 130 q 61 328 61 257 q 68 419 61 371 q 91 515 76 467 q 126 608 105 563 q 174 690 147 653 q 236 762 203 728 q 306 820 269 795 q 387 860 344 845 q 478 875 430 875 q 593 847 544 875 q 673 771 642 819 q 720 659 705 723 q 736 525 736 596 m 431 1050 q 424 1013 431 1031 q 407 979 418 994 q 381 954 397 963 q 346 945 365 945 q 312 957 324 945 q 300 992 300 969 q 306 1029 300 1010 q 324 1063 312 1048 q 351 1089 335 1079 q 386 1098 367 1098 q 419 1086 407 1098 q 431 1050 431 1073 m 684 1050 q 677 1013 684 1031 q 660 979 671 994 q 633 954 649 964 q 597 945 617 945 q 564 957 576 945 q 553 992 553 969 q 559 1029 553 1010 q 576 1063 565 1048 q 602 1089 586 1079 q 637 1099 618 1099 q 671 1086 658 1099 q 684 1050 684 1073 "},"z":{"x_min":-2.71875,"x_max":526.265625,"ha":526,"o":"m 526 599 q 425 480 470 539 q 338 359 381 420 q 252 233 296 298 q 155 101 208 169 q 173 107 157 102 q 210 112 189 112 q 247 105 224 112 q 297 91 269 99 q 352 76 324 82 q 405 70 380 70 q 420 71 411 70 q 439 80 429 73 q 461 103 449 88 q 487 143 474 118 l 511 130 q 478 60 492 88 q 447 16 463 32 q 408 -7 430 0 q 354 -14 387 -14 q 290 -6 320 -14 q 234 8 261 0 q 184 23 208 16 q 139 31 160 31 q 116 27 128 31 q 90 17 105 24 q 56 1 75 10 q 12 -21 37 -8 l -2 0 q 67 90 31 41 q 140 191 103 139 q 212 295 177 243 q 280 394 248 347 q 339 478 311 440 q 385 539 366 515 l 181 539 q 154 535 165 539 q 133 523 143 532 q 116 497 124 514 q 98 451 108 479 l 71 456 q 97 561 84 517 q 115 634 109 605 q 143 625 128 630 q 181 620 158 620 l 512 620 l 526 599 "},"Ř":{"x_min":0.375,"x_max":730.46875,"ha":730,"o":"m 730 73 q 678 40 704 56 q 630 14 652 25 q 591 -3 609 2 q 565 -10 574 -10 q 543 -6 554 -10 q 522 6 533 -3 q 500 34 512 16 q 476 79 489 51 l 323 400 q 282 403 303 400 q 245 410 262 406 l 199 70 q 218 50 196 62 q 282 29 239 38 l 278 0 l 0 0 l 4 29 q 72 49 47 38 q 100 70 98 61 l 201 808 q 148 801 174 805 q 96 791 122 796 l 96 832 q 157 848 126 840 q 222 862 188 856 q 294 871 255 868 q 379 875 333 875 q 487 861 438 875 q 570 819 535 847 q 624 751 605 792 q 642 658 642 711 q 631 593 642 632 q 592 517 619 555 q 522 448 565 480 q 415 404 478 417 l 573 124 q 597 91 586 103 q 623 77 608 79 q 661 80 638 74 q 718 99 683 86 l 730 73 m 348 817 l 324 817 q 300 817 312 817 l 251 459 q 290 451 271 454 q 329 449 310 449 q 411 460 371 449 q 480 496 450 472 q 528 554 510 519 q 546 638 546 590 q 527 722 546 688 q 479 777 508 756 q 416 807 451 798 q 348 817 381 817 m 455 929 l 392 929 l 262 1133 q 276 1150 271 1146 q 292 1163 282 1155 l 438 1025 l 619 1163 q 631 1151 627 1156 q 640 1133 634 1146 l 455 929 "},"ã":{"x_min":36,"x_max":611.359375,"ha":626,"o":"m 409 292 q 419 355 414 322 q 431 419 425 388 q 441 475 437 449 q 448 515 446 500 q 426 532 438 523 q 400 547 414 540 q 370 559 386 555 q 339 563 355 563 q 280 548 308 563 q 229 508 253 533 q 187 450 206 483 q 156 384 169 418 q 136 316 143 350 q 129 257 129 283 q 136 177 129 212 q 156 117 143 142 q 187 78 169 92 q 225 65 205 65 q 265 85 241 65 q 314 139 288 106 q 364 212 339 172 q 409 292 389 252 m 611 45 q 516 -10 552 7 q 460 -28 479 -28 q 436 -19 448 -28 q 416 12 425 -11 q 403 77 408 35 q 398 184 398 118 q 354 116 380 153 q 300 47 329 79 q 240 -6 271 14 q 180 -28 209 -28 q 132 -15 158 -28 q 85 25 107 -2 q 50 98 64 54 q 36 206 36 143 q 48 311 36 260 q 86 409 61 362 q 147 497 111 456 q 232 571 183 538 q 272 594 250 583 q 317 615 294 606 q 364 629 341 624 q 408 635 387 635 q 436 631 422 635 q 462 621 449 627 q 487 608 475 615 q 508 594 498 601 q 542 616 524 605 q 578 635 559 626 l 591 611 q 572 594 580 601 q 559 577 565 586 q 549 552 553 567 q 540 515 545 538 q 521 415 530 466 q 505 318 512 364 q 495 238 499 273 q 492 188 492 203 q 494 123 492 150 q 500 81 496 97 q 510 58 504 65 q 525 51 517 51 q 557 54 538 51 q 603 70 576 58 l 611 45 m 611 899 q 579 845 597 872 q 540 796 561 818 q 495 762 519 775 q 444 749 471 749 q 405 760 423 749 q 372 786 388 772 q 340 811 356 799 q 306 823 324 823 q 258 801 283 823 q 205 742 234 780 l 176 756 q 208 810 190 783 q 248 858 226 836 q 294 892 269 879 q 344 906 318 906 q 385 894 366 906 q 420 869 404 882 q 450 843 436 855 q 479 832 464 832 q 528 853 502 832 q 580 912 555 874 l 611 899 "},"Ň":{"x_min":0,"x_max":877.546875,"ha":840,"o":"m 873 825 q 806 806 828 818 q 781 783 783 794 l 670 -21 q 644 -16 656 -19 q 623 -8 633 -13 q 606 6 614 -2 q 590 30 598 15 l 252 681 l 169 70 q 186 49 167 62 q 251 29 205 36 l 247 0 l 0 0 l 4 29 q 72 48 50 35 q 96 70 95 61 l 195 782 q 157 811 178 803 q 107 825 136 820 l 111 854 l 231 854 q 255 854 246 854 q 270 848 263 854 q 282 832 276 843 q 298 801 288 821 l 626 175 l 710 783 q 706 793 710 787 q 692 804 702 799 q 666 816 682 810 q 626 825 650 821 l 630 855 l 877 855 l 873 825 m 535 929 l 473 929 l 342 1133 q 357 1150 351 1146 q 373 1163 362 1155 l 518 1025 l 699 1163 q 711 1151 708 1156 q 721 1133 715 1146 l 535 929 "},"æ":{"x_min":36,"x_max":862,"ha":899,"o":"m 617 530 q 573 481 594 510 q 534 418 551 451 q 505 347 517 384 q 494 274 494 310 q 633 336 582 308 q 711 390 685 365 q 745 438 738 415 q 753 485 753 461 q 747 521 753 506 q 733 546 742 536 q 713 559 724 555 q 690 564 701 564 q 658 556 679 564 q 617 530 637 548 m 406 300 q 415 364 410 331 q 425 427 421 397 q 434 480 430 457 q 440 515 437 504 l 440 517 q 417 533 429 525 q 391 548 405 541 q 363 559 378 555 q 331 564 347 564 q 273 548 300 564 q 224 508 246 533 q 183 450 201 483 q 154 384 166 418 q 135 316 141 350 q 129 257 129 283 q 136 177 129 213 q 155 117 143 142 q 184 78 167 92 q 221 65 201 65 q 261 86 237 65 q 310 142 284 108 q 361 218 336 177 q 406 300 386 260 m 584 611 q 567 596 574 603 q 555 580 560 589 q 545 561 550 572 q 537 534 541 551 q 583 574 559 555 q 619 597 599 586 q 661 617 639 608 q 704 630 682 625 q 747 635 726 635 q 798 624 777 635 q 834 597 819 613 q 855 558 848 580 q 862 515 862 537 q 857 475 862 496 q 839 432 853 454 q 800 385 825 409 q 734 334 775 360 q 634 280 693 308 q 493 221 575 252 q 509 152 497 183 q 537 98 521 121 q 571 63 553 76 q 608 51 590 51 q 643 54 622 51 q 690 67 663 57 q 750 97 717 77 q 825 149 784 117 q 838 136 833 145 q 846 122 842 127 q 747 44 789 73 q 670 -1 704 14 q 609 -22 636 -17 q 558 -28 582 -28 q 509 -16 536 -28 q 458 19 482 -5 q 415 85 433 44 q 398 183 398 125 q 352 115 379 151 q 297 46 326 78 q 236 -6 267 14 q 177 -28 204 -28 q 129 -15 154 -28 q 83 25 104 -2 q 49 98 63 54 q 36 206 36 143 q 47 311 36 260 q 83 409 59 362 q 144 497 107 456 q 229 571 180 538 q 269 594 247 583 q 312 615 290 606 q 357 629 335 624 q 401 635 380 635 q 429 631 415 635 q 455 621 443 627 q 481 607 468 615 q 504 593 493 600 q 536 615 519 605 q 571 635 553 626 l 584 611 "},"ĩ":{"x_min":45.671875,"x_max":480.046875,"ha":342,"o":"m 308 48 q 251 15 276 29 q 204 -8 225 1 q 166 -23 183 -18 q 135 -28 150 -28 q 98 -6 112 -28 q 85 51 85 14 q 90 109 85 71 q 102 192 95 146 q 119 288 110 238 q 135 383 127 338 q 147 463 142 428 q 153 515 153 499 q 150 540 153 531 q 145 553 148 549 q 136 559 142 558 q 125 561 131 561 q 108 558 119 561 q 85 552 97 556 q 57 544 72 549 l 47 569 q 104 594 76 582 q 156 615 132 606 q 199 629 181 624 q 226 635 217 635 q 253 622 245 635 q 261 577 261 609 q 255 519 261 558 q 242 434 250 481 q 226 334 234 386 q 209 235 217 282 q 196 149 201 187 q 191 91 191 110 q 195 60 191 70 q 211 51 199 51 q 251 56 232 51 q 298 73 270 61 l 308 48 m 480 899 q 447 845 465 872 q 408 796 429 818 q 363 762 387 775 q 313 749 339 749 q 274 760 291 749 q 241 786 256 772 q 209 811 225 799 q 175 823 193 823 q 127 801 152 823 q 74 742 103 780 l 45 756 q 77 810 59 783 q 117 858 95 836 q 162 892 138 879 q 212 906 187 906 q 253 894 235 906 q 288 869 272 882 q 319 843 305 855 q 347 832 333 832 q 397 853 371 832 q 449 912 423 874 l 480 899 "},"É":{"x_min":-0.203125,"x_max":634.421875,"ha":641,"o":"m 580 165 q 552 63 566 106 q 531 0 538 19 l 0 0 l 3 29 q 72 49 46 38 q 99 70 98 61 l 198 783 q 178 803 199 791 q 113 825 157 816 l 117 855 l 617 855 l 634 837 q 625 799 631 820 q 614 757 620 778 q 601 717 608 736 q 588 685 594 698 l 559 685 q 562 737 562 716 q 557 770 562 757 q 544 787 552 782 q 523 793 536 793 l 296 793 l 256 498 l 509 498 l 523 479 q 508 459 516 469 q 490 439 499 449 q 472 421 481 429 q 456 406 463 412 q 433 425 446 418 q 403 437 421 433 q 359 442 385 442 q 295 442 333 442 l 248 442 l 202 104 q 204 86 201 94 q 220 72 208 78 q 258 64 233 67 q 323 61 282 61 l 405 61 q 453 64 433 61 q 489 79 473 67 q 519 114 505 91 q 553 177 534 137 l 580 165 m 629 1078 l 320 913 q 307 925 311 919 q 298 945 304 931 l 563 1158 l 578 1148 q 597 1135 587 1142 q 616 1122 607 1129 q 629 1110 624 1115 l 629 1078 "},"~":{"x_min":61.03125,"x_max":653.75,"ha":667,"o":"m 653 525 q 610 456 635 491 q 556 391 585 420 q 496 342 527 361 q 436 324 465 324 q 381 341 408 324 q 326 378 354 358 q 270 415 298 398 q 216 433 243 433 q 154 406 185 433 q 91 322 124 379 l 61 341 q 103 409 78 374 q 158 474 128 445 q 218 523 187 504 q 278 542 248 542 q 336 525 307 542 q 391 488 364 508 q 445 450 419 467 q 497 434 471 434 q 558 460 527 434 q 623 542 588 486 l 653 525 "},"Ċ":{"x_min":52,"x_max":689.8125,"ha":675,"o":"m 689 807 q 684 792 691 803 q 665 766 676 780 q 639 738 653 752 q 617 717 626 724 l 597 722 q 530 772 569 752 q 434 793 490 793 q 373 780 407 793 q 312 746 339 767 q 239 662 269 712 q 190 557 209 612 q 162 447 171 501 q 154 349 154 392 q 174 222 154 276 q 225 133 194 168 q 294 81 257 98 q 368 65 332 65 q 459 89 406 65 q 588 173 512 113 q 594 167 592 172 q 600 158 597 163 q 605 149 602 153 q 608 143 607 145 q 521 65 562 97 q 445 16 481 34 q 375 -10 408 -2 q 310 -18 342 -18 q 212 4 259 -18 q 130 68 165 26 q 73 171 94 110 q 52 311 52 232 q 64 441 52 375 q 103 570 77 507 q 171 689 129 632 q 269 791 212 746 q 376 852 319 830 q 497 875 433 875 q 611 855 564 875 q 689 807 659 835 m 546 1050 q 540 1013 546 1031 q 523 979 534 994 q 497 954 512 963 q 462 945 481 945 q 430 957 441 945 q 419 992 419 969 q 425 1029 419 1010 q 441 1063 431 1048 q 467 1089 452 1079 q 502 1098 483 1098 q 534 1086 523 1098 q 546 1050 546 1073 "},"³":{"x_min":25.15625,"x_max":385,"ha":390,"o":"m 385 820 q 377 779 385 798 q 355 744 369 760 q 322 716 341 728 q 279 696 303 704 q 318 684 301 694 q 347 659 335 674 q 366 626 359 644 q 373 587 373 607 q 358 514 373 549 q 316 455 343 480 q 251 414 289 429 q 165 400 212 400 q 96 414 131 400 q 25 461 61 428 l 43 495 q 77 473 61 482 q 106 458 92 463 q 133 451 120 453 q 160 449 146 449 q 215 458 191 449 q 256 485 239 468 q 281 526 273 503 q 290 576 290 549 q 282 615 290 599 q 262 643 275 632 q 234 658 250 653 q 202 663 218 663 l 193 663 q 189 662 191 663 q 184 661 187 662 q 174 660 181 660 l 171 691 q 223 707 198 698 q 265 730 247 716 q 293 762 282 743 q 304 809 304 781 q 288 852 304 834 q 239 871 272 871 q 192 853 211 871 q 173 808 173 836 q 136 796 156 800 q 97 793 115 793 l 87 805 q 106 841 90 822 q 147 877 122 861 q 202 905 171 894 q 265 916 233 916 q 319 907 296 916 q 356 886 342 899 q 378 856 371 873 q 385 820 385 839 "},"¡":{"x_min":-34.875,"x_max":233,"ha":278,"o":"m 75 507 q 82 549 75 527 q 102 589 89 571 q 134 619 115 607 q 174 631 152 631 q 217 612 201 631 q 233 563 233 594 q 225 522 233 544 q 203 483 217 501 q 171 454 190 466 q 131 443 152 443 q 90 460 105 443 q 75 507 75 478 m 106 -299 q 82 -316 96 -306 q 51 -335 67 -325 q 19 -352 35 -344 q -9 -364 3 -360 l -34 -347 l 96 345 q 120 361 110 355 q 146 372 131 367 l 163 358 l 106 -299 "},"[":{"x_min":1.359375,"x_max":465.21875,"ha":397,"o":"m 465 1067 q 453 1033 461 1050 q 440 1009 445 1017 l 262 1009 l 99 -150 l 273 -150 l 292 -169 q 281 -199 288 -183 q 267 -228 274 -216 l 1 -228 l 185 1085 l 446 1085 l 465 1067 "},"%":{"x_min":70.25,"x_max":828.109375,"ha":892,"o":"m 729 262 q 708 353 729 324 q 658 383 687 383 q 621 370 637 383 q 594 336 606 357 q 574 289 582 315 q 562 237 566 263 q 556 187 558 211 q 554 146 554 162 q 573 62 554 89 q 625 35 593 35 q 660 47 644 35 q 687 79 676 59 q 706 123 699 98 q 719 174 714 148 q 726 222 724 199 q 729 262 729 245 m 822 255 q 806 162 822 211 q 760 72 790 113 q 691 5 731 31 q 601 -21 650 -21 q 542 -6 568 -21 q 499 32 517 7 q 471 90 481 57 q 462 164 462 124 q 469 225 462 193 q 489 287 476 257 q 522 345 503 318 q 566 393 542 373 q 620 426 591 414 q 682 439 649 439 q 741 425 715 439 q 785 386 767 411 q 812 328 802 361 q 822 255 822 294 m 173 11 q 155 1 166 6 q 129 -8 143 -3 q 103 -16 116 -12 q 83 -23 91 -20 l 70 0 l 723 805 q 767 825 742 817 q 811 839 792 833 l 828 816 l 173 11 m 343 661 q 322 752 343 723 q 270 782 301 782 q 234 769 249 782 q 206 735 218 756 q 187 688 195 714 q 175 636 179 662 q 169 585 171 610 q 167 545 167 561 q 187 461 167 488 q 238 434 207 434 q 273 446 258 434 q 301 478 289 458 q 320 522 312 497 q 333 573 328 547 q 340 621 338 598 q 343 661 343 644 m 435 654 q 427 593 435 624 q 407 530 420 561 q 374 472 393 500 q 330 423 354 444 q 276 390 305 402 q 213 378 246 378 q 155 392 180 378 q 112 431 130 406 q 84 489 94 456 q 75 562 75 523 q 82 624 75 592 q 102 686 89 656 q 135 744 116 717 q 179 792 155 772 q 233 825 204 813 q 295 838 262 838 q 354 824 328 838 q 398 785 380 810 q 425 727 415 760 q 435 654 435 693 "},"P":{"x_min":0.375,"x_max":662,"ha":655,"o":"m 662 637 q 639 529 662 580 q 578 442 617 479 q 486 384 539 405 q 375 363 434 363 q 323 369 349 363 q 278 386 296 375 l 270 436 q 316 420 294 426 q 361 414 339 414 q 443 428 405 414 q 507 469 480 443 q 549 532 534 496 q 564 613 564 569 q 545 709 564 670 q 496 772 527 748 q 423 807 464 796 q 336 818 382 818 l 318 818 q 300 818 309 818 l 199 70 q 201 62 197 66 q 217 51 205 57 q 249 41 228 46 q 301 29 269 35 l 297 0 l 0 0 l 4 29 q 72 50 47 39 q 100 71 98 61 l 201 811 q 151 803 177 807 q 96 790 125 798 l 96 831 q 154 851 124 842 q 219 866 184 860 q 293 872 254 872 q 379 872 333 872 q 497 857 444 872 q 585 812 549 842 q 642 739 622 783 q 662 637 662 695 "},"_":{"x_min":-35.9375,"x_max":495.734375,"ha":606,"o":"m 495 -105 q 483 -137 491 -120 q 469 -167 476 -154 l -25 -167 l -35 -148 q -24 -118 -31 -135 q -8 -89 -16 -102 l 483 -89 l 495 -105 "},"Ŕ":{"x_min":0.375,"x_max":730.734375,"ha":731,"o":"m 730 73 q 678 40 704 56 q 630 14 652 25 q 591 -3 609 2 q 565 -10 574 -10 q 543 -6 554 -10 q 522 6 533 -3 q 500 34 512 16 q 476 79 489 51 l 323 400 q 282 403 303 400 q 245 410 262 406 l 199 70 q 218 50 196 62 q 282 29 239 38 l 278 0 l 0 0 l 4 29 q 72 49 47 38 q 100 70 98 61 l 201 808 q 148 801 174 805 q 96 791 122 796 l 96 832 q 157 848 126 840 q 222 862 188 856 q 294 871 255 868 q 379 875 333 875 q 487 861 438 875 q 570 819 535 847 q 624 751 605 792 q 642 658 642 711 q 631 593 642 632 q 592 517 619 555 q 522 448 565 480 q 415 404 478 417 l 574 124 q 597 91 586 103 q 623 77 608 79 q 661 80 639 74 q 718 99 683 86 l 730 73 m 348 817 l 324 817 q 300 817 312 817 l 251 459 q 290 451 271 454 q 329 449 310 449 q 411 460 371 449 q 480 496 450 472 q 528 554 510 519 q 546 638 546 590 q 527 722 546 688 q 479 777 508 756 q 416 807 451 798 q 348 817 381 817 m 648 1078 l 339 913 q 326 925 329 919 q 316 944 323 931 l 581 1158 l 597 1148 q 616 1135 606 1142 q 635 1121 626 1128 q 648 1110 643 1115 l 648 1078 "},"ñ":{"x_min":31.84375,"x_max":659.328125,"ha":686,"o":"m 659 48 q 554 -8 597 11 q 486 -28 511 -28 q 449 -6 462 -28 q 436 51 436 14 q 440 94 436 63 q 451 168 444 126 q 466 257 458 210 q 481 348 474 305 q 492 424 488 390 q 497 474 497 458 q 486 546 497 526 q 445 567 475 567 q 414 556 436 567 q 364 523 392 545 q 306 469 337 501 q 251 393 276 436 q 219 314 232 360 q 194 203 207 269 q 183 99 183 143 q 183 16 183 56 q 159 6 172 11 q 132 -5 146 0 q 105 -17 118 -11 q 84 -28 92 -23 l 62 -7 q 81 89 71 37 q 98 194 90 142 q 114 298 107 247 q 127 392 122 349 q 135 468 132 435 q 139 516 139 500 q 137 541 139 532 q 132 554 135 550 q 124 560 129 559 q 113 562 120 562 q 95 559 107 562 q 71 553 84 556 q 41 544 57 549 l 31 571 q 88 594 60 583 q 142 615 117 606 q 186 629 167 624 q 212 635 204 635 q 227 631 222 635 q 235 620 233 628 q 238 597 238 612 q 238 558 238 582 q 238 537 238 550 q 238 510 238 524 q 235 481 238 495 q 233 459 233 467 q 307 539 269 505 q 380 593 344 572 q 449 625 416 615 q 513 635 483 635 q 551 628 534 635 q 578 608 567 622 q 595 572 589 594 q 601 516 601 549 q 596 457 601 493 q 585 381 592 422 q 570 296 578 340 q 555 213 562 253 q 544 142 548 174 q 540 91 540 110 q 546 59 540 67 q 564 51 552 51 q 600 56 580 51 q 649 73 620 61 l 659 48 m 633 899 q 601 845 619 872 q 562 796 583 818 q 517 762 541 775 q 467 749 493 749 q 428 760 445 749 q 394 786 410 772 q 363 811 379 799 q 329 823 347 823 q 281 801 305 823 q 228 742 256 780 l 199 756 q 231 810 213 783 q 270 858 249 836 q 316 892 292 879 q 366 906 341 906 q 407 894 389 906 q 442 869 426 882 q 473 843 459 855 q 501 832 487 832 q 551 853 525 832 q 603 912 577 874 l 633 899 "},"‚":{"x_min":8.296875,"x_max":193,"ha":315,"o":"m 193 76 q 177 5 193 40 q 139 -62 162 -30 q 87 -123 115 -95 q 32 -170 58 -151 l 8 -147 q 34 -117 20 -134 q 60 -79 48 -99 q 80 -38 72 -59 q 89 0 89 -18 q 71 41 89 25 q 18 57 53 57 l 12 87 q 38 106 19 95 q 79 126 57 116 q 122 142 101 136 q 153 149 143 149 q 182 119 171 136 q 193 76 193 102 "},"ˋ":{"x_min":135.640625,"x_max":347.21875,"ha":212,"o":"m 347 710 q 325 698 333 701 q 305 696 317 696 l 135 958 l 157 982 q 178 986 165 984 q 204 988 190 988 q 231 988 218 988 q 252 988 244 988 l 347 710 "},"Æ":{"x_min":-23.265625,"x_max":986.53125,"ha":993,"o":"m 555 778 q 551 789 556 785 q 537 791 545 793 q 520 784 529 790 q 505 766 511 778 l 374 499 l 518 499 l 555 778 m 936 165 q 909 63 922 106 q 888 0 896 19 l 361 0 l 366 29 q 433 49 408 38 q 460 70 458 61 l 510 445 l 346 445 l 161 75 q 168 45 151 55 q 233 29 185 35 l 231 0 l -23 0 l -19 29 q 47 46 22 37 q 82 75 73 55 l 431 768 q 431 787 436 780 q 411 802 425 795 q 373 814 396 808 q 321 825 350 819 l 325 855 l 971 855 l 986 837 q 978 799 983 820 q 966 757 972 778 q 954 717 960 736 q 942 685 947 698 l 914 685 q 916 737 916 716 q 911 770 916 757 q 899 787 907 782 q 878 793 890 793 l 656 793 l 615 499 l 863 499 l 876 480 q 861 460 869 470 q 844 439 852 449 q 826 421 835 429 q 810 407 817 413 q 792 424 802 417 q 769 436 783 431 q 738 442 756 440 q 694 445 720 445 l 608 445 l 561 104 q 563 86 559 94 q 579 72 566 78 q 616 64 592 67 q 681 61 640 61 l 758 61 q 807 64 787 61 q 844 79 827 67 q 877 114 861 91 q 911 177 892 137 l 936 165 "},"ğ":{"x_min":-3,"x_max":596.5625,"ha":618,"o":"m 229 65 q 268 87 243 65 q 320 148 292 110 q 377 236 348 186 q 428 341 406 286 q 434 395 431 367 q 443 455 437 423 q 448 482 445 469 q 457 507 452 495 q 435 524 447 515 q 408 543 422 534 q 376 557 393 551 q 340 563 359 563 q 281 548 309 563 q 230 507 253 532 q 188 450 207 482 q 156 384 169 418 q 136 316 143 349 q 129 256 129 283 q 137 177 129 212 q 158 117 145 142 q 190 78 172 92 q 229 65 209 65 m 596 611 q 557 564 573 592 q 535 487 542 536 q 524 340 524 406 q 524 215 524 273 q 519 105 524 157 q 505 0 515 52 q 461 -131 493 -69 q 387 -239 430 -193 q 292 -312 344 -285 q 186 -339 240 -339 q 124 -330 157 -339 q 63 -309 91 -322 q 15 -283 34 -297 q -3 -256 -3 -268 q 5 -230 -3 -245 q 26 -203 14 -215 q 48 -181 37 -190 q 64 -173 60 -173 q 75 -179 70 -173 q 90 -196 81 -186 q 110 -218 98 -206 q 139 -240 122 -230 q 181 -257 156 -250 q 237 -264 205 -264 q 343 -204 304 -264 q 402 -32 382 -145 q 412 38 408 5 q 416 103 416 72 q 416 165 416 135 q 416 227 416 195 q 370 139 399 185 q 309 57 341 94 q 243 -3 277 20 q 180 -28 210 -28 q 132 -15 158 -28 q 85 25 107 -2 q 49 98 63 54 q 35 206 35 143 q 47 311 35 260 q 84 409 59 362 q 146 496 108 455 q 233 571 183 537 q 274 594 252 583 q 319 615 296 606 q 364 629 342 624 q 408 635 387 635 q 437 630 423 635 q 465 619 452 626 q 490 604 478 612 q 513 589 502 596 q 546 615 528 604 q 580 635 563 626 l 596 611 m 576 905 q 523 813 551 850 q 467 754 496 776 q 410 721 439 731 q 354 712 382 712 q 298 721 325 712 q 251 754 272 731 q 212 814 229 777 q 183 905 195 851 q 202 923 193 917 q 221 935 211 929 q 246 871 230 897 q 282 830 262 846 q 322 807 301 814 q 363 800 343 800 q 408 807 384 800 q 457 830 433 814 q 504 871 481 846 q 547 935 527 897 q 562 924 556 929 q 576 905 569 918 "},"Ū":{"x_min":113.796875,"x_max":871.515625,"ha":832,"o":"m 867 825 q 800 804 824 815 q 775 783 777 792 l 714 347 q 673 189 702 258 q 601 73 644 120 q 501 3 557 27 q 377 -21 444 -21 q 275 -4 321 -21 q 195 45 229 12 q 144 125 162 78 q 126 236 126 173 q 132 313 126 271 l 198 783 q 178 803 199 791 q 113 825 157 815 l 117 854 l 395 854 l 391 825 q 322 804 348 815 q 294 783 296 792 l 234 345 q 232 306 232 325 q 232 268 232 286 q 243 182 232 221 q 277 116 255 144 q 334 73 300 88 q 412 58 368 58 q 493 79 456 58 q 558 137 530 101 q 606 220 587 173 q 631 317 624 266 l 693 783 q 676 803 695 791 q 613 825 657 815 l 617 855 l 871 855 l 867 825 m 744 1048 q 738 1031 742 1040 q 728 1012 733 1021 q 718 994 723 1002 q 710 980 714 985 l 338 980 l 327 996 q 334 1012 330 1002 q 342 1030 338 1021 q 352 1049 347 1040 q 360 1065 356 1058 l 731 1065 l 744 1048 "},"ª":{"x_min":40.125,"x_max":381.75,"ha":397,"o":"m 372 431 q 364 414 368 420 q 356 398 360 407 l 51 398 l 40 411 q 47 430 43 422 q 55 448 51 437 l 359 448 l 372 431 m 271 652 q 277 688 274 669 q 283 724 280 707 q 288 754 285 741 q 292 775 291 768 q 266 792 281 784 q 234 801 252 801 q 188 783 209 801 q 153 740 168 765 q 130 686 138 714 q 122 636 122 657 q 136 560 122 588 q 173 532 151 532 q 194 542 182 532 q 220 571 206 553 q 247 610 234 588 q 271 652 260 631 m 381 521 q 330 492 350 501 q 299 484 310 484 q 286 488 292 484 q 275 504 280 492 q 268 539 271 517 q 266 596 266 561 q 243 559 256 579 q 214 523 230 540 q 181 495 198 506 q 149 484 165 484 q 124 490 137 484 q 99 512 110 497 q 79 551 87 527 q 72 608 72 574 q 98 718 72 667 q 177 805 125 769 q 199 818 187 811 q 223 829 211 824 q 248 837 235 833 q 271 840 260 840 q 301 832 287 840 q 326 817 315 825 q 364 840 342 829 l 370 826 q 360 817 364 821 q 352 808 355 813 q 347 795 349 803 q 343 776 345 788 q 332 721 336 749 q 324 669 328 694 q 319 626 321 645 q 318 599 318 608 q 322 541 318 557 q 334 526 326 526 q 351 527 342 526 q 376 534 361 529 l 381 521 "},"Œ":{"x_min":61,"x_max":1002.890625,"ha":1010,"o":"m 345 68 q 432 77 395 68 q 504 110 470 86 l 590 733 q 445 790 531 790 q 352 769 393 790 q 279 715 311 749 q 225 636 248 681 q 188 543 202 592 q 166 446 173 495 q 160 355 160 398 q 173 238 160 291 q 211 147 187 185 q 270 89 235 110 q 345 68 304 68 m 951 165 q 924 62 938 107 q 903 -1 911 18 l 504 -1 q 448 -4 472 -1 q 404 -11 425 -7 q 363 -18 384 -15 q 316 -21 342 -21 q 206 5 254 -21 q 126 77 158 31 q 77 184 94 123 q 61 315 61 246 q 75 453 61 385 q 117 584 90 522 q 181 700 144 647 q 265 791 219 752 q 363 852 311 830 q 472 875 416 875 q 515 872 498 875 q 549 865 533 869 q 583 858 565 861 q 624 855 601 855 l 985 855 l 1002 837 q 994 799 999 820 q 983 757 989 778 q 970 717 977 736 q 958 685 964 698 l 928 685 q 931 736 931 716 q 926 770 931 757 q 914 787 922 782 q 894 793 906 793 l 696 793 l 655 499 l 877 499 l 891 480 q 876 460 884 470 q 858 439 867 449 q 840 421 849 429 q 825 407 831 413 q 807 424 816 417 q 785 436 798 431 q 753 442 772 440 q 709 445 735 445 l 647 445 l 600 104 q 599 86 599 94 q 607 72 599 78 q 635 64 615 67 q 696 61 656 61 l 774 61 q 822 64 802 61 q 859 79 842 67 q 891 114 876 91 q 926 178 907 137 l 951 165 "},"T":{"x_min":76.59375,"x_max":758.140625,"ha":724,"o":"m 463 0 l 161 0 l 165 29 q 247 55 223 41 q 273 77 271 68 l 372 793 l 189 793 q 172 789 180 793 q 155 773 164 785 q 132 737 145 761 q 101 674 119 714 l 76 687 q 83 727 78 705 q 93 772 87 749 q 105 816 98 795 q 117 855 111 838 l 743 855 l 758 837 q 751 800 755 821 q 741 758 747 780 q 730 715 736 736 q 719 677 724 694 l 691 677 q 688 733 691 711 q 680 769 685 756 q 666 787 675 782 q 644 793 658 793 l 469 793 l 372 77 q 391 55 370 69 q 467 29 412 41 l 463 0 "},"š":{"x_min":-3,"x_max":522.90625,"ha":482,"o":"m 472 572 q 445 544 459 557 q 421 522 432 532 q 400 508 409 513 q 386 503 391 503 q 367 514 377 503 q 345 540 357 526 q 316 566 333 554 q 277 578 299 578 q 240 570 258 578 q 207 551 222 563 q 184 520 193 538 q 175 481 175 502 q 197 430 175 457 q 274 379 220 404 q 330 349 302 366 q 380 310 358 332 q 416 260 402 288 q 430 196 430 232 q 405 108 430 149 q 344 36 381 67 q 260 -10 306 6 q 170 -28 214 -28 q 107 -18 138 -28 q 51 4 76 -9 q 12 35 27 18 q -3 66 -3 52 q 5 87 -3 73 q 24 116 13 102 q 47 140 35 129 q 66 151 58 151 q 75 142 70 151 q 88 121 80 134 q 107 93 96 108 q 134 66 118 79 q 172 45 150 53 q 224 37 194 37 q 269 46 248 37 q 306 70 290 55 q 331 106 322 85 q 341 151 341 127 q 330 198 341 177 q 301 237 319 220 q 260 269 283 254 q 210 295 236 283 q 150 329 175 312 q 110 364 125 346 q 89 401 95 381 q 83 443 83 421 q 104 521 83 485 q 158 581 125 556 q 232 621 191 607 q 313 635 273 635 q 371 626 347 635 q 413 607 395 618 q 444 586 431 597 q 472 572 458 576 m 332 712 l 270 712 l 144 950 q 159 967 153 963 q 175 980 164 972 l 316 815 l 501 980 q 513 968 509 973 q 522 950 516 963 l 332 712 "},"Þ":{"x_min":2.21875,"x_max":636,"ha":654,"o":"m 409 825 q 355 814 377 819 q 321 803 334 808 q 302 793 308 798 q 296 783 297 788 l 282 684 q 377 692 326 692 q 485 676 437 692 q 567 630 534 660 q 618 560 600 601 q 636 468 636 518 q 613 356 636 409 q 552 264 591 303 q 460 202 513 225 q 346 179 407 179 q 294 184 318 179 q 251 201 270 189 l 243 251 q 291 235 268 238 q 335 232 314 232 q 419 248 381 232 q 484 292 457 264 q 525 359 510 320 q 540 441 540 397 q 524 524 540 488 q 481 585 508 560 q 416 623 453 610 q 335 636 379 636 q 305 634 320 636 q 275 629 290 632 l 199 70 q 202 61 198 66 q 217 51 206 56 q 249 40 229 45 q 299 28 268 34 l 295 0 l 2 0 l 6 28 q 74 49 49 38 q 101 70 99 60 l 199 783 q 179 803 200 791 q 116 825 158 816 l 120 854 l 413 854 l 409 825 "},"j":{"x_min":-260,"x_max":311,"ha":341,"o":"m 255 590 q 253 564 255 582 q 248 520 251 545 q 243 466 246 495 q 237 410 240 437 q 231 359 233 382 q 227 320 228 335 q 221 267 224 297 q 214 201 219 236 q 206 126 210 166 q 194 44 201 86 q 160 -88 181 -34 q 117 -179 140 -142 q 66 -241 93 -216 q 12 -287 39 -265 q -27 -311 -6 -301 q -70 -327 -49 -321 q -110 -336 -91 -333 q -140 -339 -128 -339 q -180 -333 -159 -339 q -219 -320 -201 -328 q -248 -303 -236 -311 q -260 -287 -260 -294 q -251 -264 -260 -278 q -230 -236 -242 -250 q -205 -213 -217 -223 q -186 -204 -192 -204 q -172 -212 -180 -204 q -150 -232 -164 -221 q -116 -251 -137 -242 q -66 -260 -96 -260 q 28 -190 -8 -260 q 87 7 65 -120 q 102 103 96 57 q 112 187 108 148 q 119 256 116 225 q 124 306 121 286 q 126 334 124 316 q 130 373 128 352 q 135 416 132 394 q 139 457 137 438 q 142 492 142 477 q 142 515 142 508 q 140 540 142 531 q 134 553 138 549 q 125 559 130 558 q 115 561 120 561 q 98 558 109 561 q 75 552 87 556 q 48 544 62 549 l 37 569 q 94 594 66 582 q 147 615 123 606 q 190 629 172 624 q 217 635 208 635 q 245 626 236 635 q 255 590 255 618 m 311 856 q 304 819 311 837 q 287 785 298 800 q 260 760 276 770 q 226 751 245 751 q 183 798 183 751 q 188 835 183 816 q 205 869 194 854 q 231 895 216 885 q 266 905 246 905 q 299 892 287 905 q 311 856 311 879 "},"1":{"x_min":42.328125,"x_max":456.703125,"ha":558,"o":"m 451 0 l 42 0 l 47 35 q 128 49 95 42 q 181 65 161 57 q 210 81 201 73 q 220 97 219 89 l 293 637 q 298 679 298 664 q 292 704 298 694 q 279 710 289 707 q 250 713 269 713 q 201 708 230 713 q 131 694 172 704 l 123 729 q 186 751 149 737 q 261 782 223 765 q 334 815 300 799 q 391 844 369 832 l 410 820 l 312 97 q 316 82 310 90 q 338 66 322 74 q 382 50 354 58 q 456 35 411 42 l 451 0 "},"›":{"x_min":40.515625,"x_max":324,"ha":376,"o":"m 40 24 l 217 305 q 210 325 218 304 q 192 376 203 346 q 167 444 180 407 q 142 511 154 480 q 123 562 131 542 l 116 583 l 144 603 l 324 329 q 323 320 324 327 q 321 303 322 312 l 318 280 l 63 4 l 40 24 "},"<":{"x_min":33.90625,"x_max":545.921875,"ha":570,"o":"m 545 592 q 540 577 543 586 q 533 558 537 567 q 526 539 530 548 q 520 523 523 529 l 154 382 l 482 240 l 490 215 q 476 203 482 208 l 464 194 q 452 184 459 189 q 434 173 444 179 l 48 341 l 33 359 q 46 394 37 375 q 59 424 54 413 l 533 609 l 545 592 "},"t":{"x_min":39.53125,"x_max":436.859375,"ha":426,"o":"m 392 79 q 326 33 359 53 q 263 0 293 13 q 210 -20 234 -13 q 171 -28 186 -28 q 139 -17 154 -28 q 112 10 124 -7 q 93 53 100 28 q 87 108 87 78 q 87 134 87 121 q 87 161 87 147 q 89 190 87 175 q 95 225 91 206 l 147 553 l 49 553 l 39 574 l 108 614 l 156 614 l 160 637 q 169 683 164 665 q 179 714 173 702 q 192 734 185 726 q 207 749 198 742 l 276 797 l 295 780 q 284 759 290 774 q 273 720 280 745 q 260 653 267 695 l 254 614 l 423 614 l 436 595 q 418 574 430 585 q 393 553 406 563 q 368 534 380 543 q 350 522 356 526 q 339 538 346 532 q 320 548 332 544 q 290 552 308 552 q 246 552 272 552 l 244 552 l 195 241 q 191 213 193 228 q 190 185 190 199 q 190 161 190 172 q 190 142 190 149 q 205 80 190 100 q 239 61 220 61 q 296 71 262 61 q 381 104 330 81 l 392 79 "},"¬":{"x_min":34.59375,"x_max":516.765625,"ha":558,"o":"m 491 219 q 459 199 478 208 q 425 184 441 189 l 410 201 l 432 343 l 47 343 l 34 359 q 47 389 40 372 q 62 419 54 405 l 501 419 l 516 404 l 491 219 "},"ù":{"x_min":26.390625,"x_max":661.46875,"ha":693,"o":"m 661 45 q 568 -9 606 9 q 505 -28 530 -28 q 480 -16 492 -28 q 458 22 467 -4 q 445 93 449 50 q 442 201 442 137 q 386 109 416 151 q 322 36 355 66 q 253 -11 288 5 q 181 -28 218 -28 q 150 -17 168 -28 q 118 14 133 -6 q 92 66 103 35 q 82 138 82 97 q 85 190 82 159 q 94 257 89 221 q 107 332 100 293 q 119 406 113 370 q 128 470 124 441 q 132 515 132 499 q 129 540 132 531 q 124 553 127 549 q 115 559 120 558 q 104 561 110 561 q 86 558 98 561 q 63 552 75 556 q 34 544 50 549 l 26 569 q 83 594 54 582 q 136 615 112 606 q 179 629 161 624 q 206 635 198 635 q 233 622 226 635 q 240 577 240 609 q 235 526 240 558 q 225 456 231 494 q 213 377 219 418 q 200 299 206 337 q 190 229 194 261 q 186 177 186 197 q 199 83 186 112 q 238 54 213 54 q 274 67 252 54 q 325 109 297 80 q 387 187 354 139 q 457 303 421 234 q 467 361 461 332 q 477 418 472 391 q 484 471 481 446 q 488 515 488 495 q 486 540 488 531 q 481 553 484 549 q 473 559 477 558 q 462 561 468 561 q 445 558 456 561 q 424 552 435 556 q 398 544 412 549 l 388 569 q 444 594 417 582 q 496 615 472 606 q 537 629 519 624 q 563 635 554 635 q 588 622 582 635 q 595 577 595 609 q 590 526 595 558 q 580 457 586 495 q 567 378 574 419 q 553 299 559 337 q 543 227 547 261 q 539 171 539 194 q 547 80 539 110 q 573 51 556 51 q 609 55 591 51 q 651 70 627 60 l 661 45 m 441 710 q 419 698 427 701 q 399 696 411 696 l 229 958 l 251 982 q 272 986 259 984 q 298 988 284 988 q 325 988 312 988 q 347 988 338 988 l 441 710 "},"ĉ":{"x_min":36,"x_max":556.828125,"ha":539,"o":"m 551 553 q 521 531 537 542 q 490 510 505 519 q 462 495 475 501 q 440 489 449 489 q 421 500 432 489 q 396 526 411 512 q 363 552 381 540 q 323 564 345 564 q 266 549 292 564 q 219 508 240 534 q 182 450 198 483 q 156 382 166 417 q 140 310 145 346 q 135 242 135 274 q 144 163 135 198 q 172 102 154 127 q 214 64 189 78 q 267 51 238 51 q 299 55 280 51 q 342 70 318 59 q 398 100 367 81 q 465 149 428 119 q 476 134 470 142 q 486 121 482 127 q 391 44 433 73 q 315 -1 349 14 q 253 -22 280 -17 q 201 -28 225 -28 q 149 -16 178 -28 q 96 23 121 -4 q 53 99 70 52 q 36 218 36 147 q 45 312 36 263 q 76 407 55 360 q 131 495 97 453 q 216 571 166 537 q 258 594 235 583 q 306 615 281 606 q 355 629 331 624 q 400 635 379 635 q 453 623 430 635 q 495 597 476 612 q 527 569 513 582 q 551 553 541 556 m 556 726 q 542 706 547 712 q 526 696 537 700 l 385 875 l 200 696 q 189 706 194 700 q 177 726 184 712 l 370 978 l 432 978 l 556 726 "},"ï":{"x_min":47.9375,"x_max":455,"ha":343,"o":"m 309 48 q 251 15 277 29 q 205 -8 226 1 q 167 -23 184 -18 q 135 -28 150 -28 q 98 -6 112 -28 q 85 51 85 14 q 90 109 85 71 q 102 192 95 146 q 119 288 110 238 q 135 383 127 338 q 147 463 142 428 q 153 515 153 499 q 150 540 153 531 q 145 553 148 549 q 136 559 142 558 q 125 561 131 561 q 108 558 119 561 q 85 552 97 556 q 57 544 73 549 l 47 569 q 104 594 76 582 q 157 615 132 606 q 200 629 181 624 q 227 635 218 635 q 254 622 246 635 q 262 577 262 609 q 256 519 262 558 q 243 434 251 481 q 226 334 235 386 q 209 235 217 282 q 196 149 201 187 q 191 91 191 110 q 195 60 191 70 q 211 51 199 51 q 252 56 232 51 q 299 73 271 61 l 309 48 m 202 855 q 195 818 202 836 q 178 784 189 799 q 152 759 168 769 q 117 750 136 750 q 83 762 95 750 q 71 797 71 774 q 77 834 71 815 q 95 868 83 853 q 122 894 106 884 q 157 904 138 904 q 190 891 178 904 q 202 855 202 878 m 455 855 q 448 818 455 836 q 431 784 442 799 q 404 759 420 769 q 368 750 388 750 q 335 762 347 750 q 324 797 324 774 q 330 834 324 815 q 347 868 336 853 q 373 894 357 884 q 408 904 389 904 q 442 891 429 904 q 455 855 455 878 "},"ī":{"x_min":47.703125,"x_max":436.640625,"ha":342,"o":"m 308 48 q 251 15 276 29 q 204 -8 225 1 q 166 -23 183 -18 q 135 -28 150 -28 q 98 -6 112 -28 q 85 51 85 14 q 90 109 85 71 q 102 192 95 146 q 119 288 110 238 q 135 383 127 338 q 147 463 142 428 q 153 515 153 499 q 150 540 153 531 q 145 553 148 549 q 136 559 142 558 q 125 561 131 561 q 108 558 119 561 q 85 552 97 556 q 57 544 72 549 l 47 569 q 104 594 76 582 q 156 615 132 606 q 199 629 181 624 q 226 635 217 635 q 253 622 245 635 q 261 577 261 609 q 255 519 261 558 q 242 434 250 481 q 226 334 234 386 q 209 235 217 282 q 196 149 201 187 q 191 91 191 110 q 195 60 191 70 q 211 51 199 51 q 251 56 232 51 q 298 73 270 61 l 308 48 m 436 853 q 430 836 434 845 q 420 817 425 826 q 410 799 415 807 q 402 785 406 790 l 112 785 l 101 801 q 108 817 104 807 q 116 835 112 826 q 125 854 121 845 q 134 870 130 863 l 423 870 l 436 853 "},"Ò":{"x_min":61,"x_max":736,"ha":757,"o":"m 635 512 q 622 620 635 569 q 586 708 610 670 q 528 767 563 745 q 449 790 493 790 q 356 770 397 790 q 283 716 315 750 q 229 639 251 683 q 192 547 206 595 q 170 452 177 500 q 164 360 164 403 q 177 243 164 297 q 214 151 190 190 q 273 90 239 112 q 349 68 307 68 q 443 89 402 68 q 517 144 485 110 q 571 225 548 179 q 607 320 593 271 q 628 420 622 370 q 635 512 635 470 m 736 525 q 728 427 736 476 q 704 329 720 377 q 665 236 688 281 q 611 152 641 191 q 550 84 582 116 q 481 29 518 52 q 405 -7 445 6 q 319 -21 364 -21 q 205 6 254 -21 q 125 82 157 34 q 76 194 92 130 q 61 328 61 257 q 68 419 61 371 q 91 515 76 467 q 126 608 105 563 q 174 690 147 653 q 236 762 203 728 q 306 820 269 795 q 387 860 344 845 q 478 875 430 875 q 593 847 544 875 q 673 771 642 819 q 720 659 705 723 q 736 525 736 596 m 577 944 q 562 925 567 931 q 545 913 556 919 l 273 1078 l 281 1110 q 298 1121 287 1115 q 321 1135 309 1128 q 345 1148 333 1142 q 364 1158 356 1154 l 577 944 "},"Ď":{"x_min":0.015625,"x_max":731,"ha":759,"o":"m 731 505 q 719 384 731 445 q 684 268 707 324 q 627 163 661 212 q 548 77 593 113 q 447 20 503 41 q 326 0 392 0 l 0 0 l 4 29 q 72 49 46 38 q 99 70 98 61 l 200 808 l 97 797 l 97 840 q 251 867 175 859 q 397 875 327 875 q 538 848 477 875 q 643 773 600 822 q 708 657 686 725 q 731 505 731 589 m 342 817 l 321 817 q 301 817 311 817 l 202 94 q 205 77 201 84 q 221 65 209 70 q 254 59 232 61 q 308 57 275 57 q 401 75 359 57 q 478 127 443 94 q 539 203 513 159 q 584 295 566 246 q 611 394 602 343 q 621 492 621 445 q 602 624 621 565 q 549 726 584 684 q 461 793 513 769 q 342 817 409 817 m 483 929 l 420 929 l 289 1133 q 304 1150 299 1146 q 320 1163 310 1155 l 466 1025 l 647 1163 q 659 1151 655 1156 q 669 1133 663 1146 l 483 929 "},"&":{"x_min":42.78125,"x_max":864.15625,"ha":807,"o":"m 350 766 q 349 685 344 727 q 365 597 353 642 q 441 649 410 624 q 491 697 471 674 q 520 743 510 721 q 533 787 530 765 q 537 835 537 812 q 528 874 537 857 q 503 901 519 891 q 461 911 486 911 q 417 898 436 911 q 384 865 398 885 q 362 819 370 845 q 350 766 353 793 m 302 57 q 403 74 357 57 q 488 120 450 91 q 435 197 462 155 q 383 284 408 238 q 337 379 359 330 q 298 478 314 427 q 234 422 261 448 q 189 368 207 395 q 160 315 171 342 q 146 259 150 288 q 150 174 139 212 q 184 110 161 137 q 237 70 206 84 q 302 57 268 57 m 864 507 q 829 472 846 486 q 796 446 812 458 q 772 457 786 452 q 745 466 759 462 q 718 471 731 469 q 694 474 704 474 q 701 450 699 462 q 704 425 704 439 q 704 394 704 411 q 699 353 704 377 q 668 255 693 307 q 604 154 643 203 q 636 117 620 134 q 665 86 651 100 q 712 57 686 64 q 776 59 738 50 l 776 30 q 681 -8 718 4 q 630 -21 644 -21 q 589 4 617 -21 q 524 74 561 29 q 408 5 471 31 q 273 -21 344 -21 q 170 -3 216 -21 q 94 48 125 14 q 50 132 63 82 q 46 245 37 182 q 69 323 51 284 q 118 399 88 362 q 189 473 148 437 q 279 544 230 510 q 264 638 264 592 q 270 728 264 684 q 299 829 277 783 q 353 911 321 876 q 424 964 385 945 q 503 984 463 984 q 567 969 542 984 q 606 930 592 954 q 623 875 620 906 q 622 809 627 843 q 559 679 612 740 q 429 568 507 618 l 382 538 q 419 449 398 493 q 464 360 440 404 q 515 277 489 317 q 568 201 542 236 q 603 264 590 231 q 622 326 617 296 q 622 386 627 358 q 605 434 617 414 q 578 466 594 454 q 543 478 562 478 l 532 497 q 554 516 541 506 q 582 532 568 526 l 852 532 l 864 507 "},"˝":{"x_min":86.8125,"x_max":481.5,"ha":437,"o":"m 118 696 q 102 701 108 697 q 86 713 96 705 l 230 989 q 246 986 237 988 q 265 982 255 985 q 283 977 274 980 q 297 972 291 975 l 307 945 l 118 696 m 292 696 q 276 701 282 697 q 260 713 269 705 l 404 989 q 420 986 410 988 q 438 982 429 985 q 456 977 448 980 q 470 972 465 975 l 481 945 l 292 696 "},"I":{"x_min":13.5625,"x_max":409.609375,"ha":389,"o":"m 405 825 q 337 804 362 816 q 309 783 311 793 l 210 70 q 230 50 209 62 q 295 29 251 38 l 291 0 l 13 0 l 18 29 q 86 49 61 38 q 113 70 111 61 l 210 783 q 191 804 212 791 q 127 825 170 816 l 132 855 l 409 855 l 405 825 "},"G":{"x_min":52,"x_max":721.296875,"ha":728,"o":"m 717 365 q 663 340 680 355 q 644 310 646 325 q 637 262 641 291 q 629 202 633 233 q 621 144 625 172 q 616 104 618 117 q 526 38 565 63 q 454 0 486 13 q 395 -16 422 -12 q 340 -21 367 -21 q 232 1 284 -21 q 140 68 180 24 q 76 175 100 111 q 52 320 52 239 q 66 450 52 385 q 109 576 81 516 q 174 687 136 636 q 258 775 212 738 q 386 847 316 820 q 538 875 457 875 q 582 870 558 875 q 629 856 606 865 q 675 834 653 847 q 715 805 698 821 q 712 790 719 802 q 692 765 705 779 q 666 737 680 751 q 643 716 652 724 l 624 720 q 587 756 606 741 q 544 778 567 770 q 495 790 521 787 q 439 794 469 794 q 376 776 413 794 q 302 728 339 758 q 240 656 268 701 q 193 559 213 611 q 163 452 174 506 q 153 350 153 397 q 175 224 153 277 q 231 136 197 171 q 308 83 266 100 q 393 67 351 67 q 465 77 430 67 q 524 106 500 88 l 551 310 q 549 323 552 317 q 530 337 545 330 q 485 350 515 344 q 404 365 455 357 l 408 395 l 721 395 l 717 365 "},"`":{"x_min":171.578125,"x_max":383.171875,"ha":411,"o":"m 383 710 q 361 698 369 701 q 341 696 353 696 l 171 958 l 193 982 q 213 986 201 984 q 240 988 226 988 q 267 988 254 988 q 288 988 280 988 l 383 710 "},"·":{"x_min":71,"x_max":228,"ha":278,"o":"m 228 460 q 220 418 228 439 q 200 378 213 396 q 169 349 187 361 q 128 338 151 338 q 85 355 100 338 q 71 404 71 373 q 78 444 71 423 q 100 483 86 466 q 132 512 113 500 q 172 524 150 524 q 213 506 198 524 q 228 460 228 488 "},"ŏ":{"x_min":36,"x_max":568.984375,"ha":586,"o":"m 453 342 q 415 500 453 445 q 307 556 377 556 q 225 527 258 556 q 171 456 192 499 q 142 364 151 414 q 134 270 134 314 q 145 184 134 225 q 176 114 156 144 q 223 66 196 83 q 280 48 249 48 q 336 62 312 48 q 380 99 361 76 q 413 153 400 123 q 436 216 427 183 q 448 281 444 249 q 453 342 453 314 m 550 379 q 539 287 550 333 q 510 196 529 240 q 461 113 490 153 q 394 42 432 73 q 357 15 377 28 q 317 -7 337 2 q 276 -22 297 -17 q 234 -28 255 -28 q 150 -7 187 -28 q 87 46 113 12 q 49 129 62 81 q 36 233 36 177 q 44 327 36 282 q 70 414 52 372 q 119 495 88 456 q 194 569 149 533 q 270 616 229 597 q 354 635 311 635 q 444 616 406 635 q 504 563 481 597 q 539 482 528 529 q 550 379 550 435 m 568 905 q 516 813 543 850 q 460 754 489 776 q 403 721 432 731 q 348 712 375 712 q 292 721 318 712 q 244 754 266 731 q 205 814 222 777 q 177 905 188 851 q 195 923 186 917 q 214 935 204 929 q 240 871 224 897 q 275 830 255 846 q 315 807 294 814 q 356 800 336 800 q 401 807 377 800 q 450 830 425 814 q 497 871 474 846 q 539 935 520 897 q 555 924 549 929 q 568 905 562 918 "},"¿":{"x_min":-11,"x_max":427.9375,"ha":551,"o":"m 239 508 q 246 550 239 529 q 266 589 253 571 q 297 619 279 607 q 339 631 316 631 q 381 612 366 631 q 396 563 396 594 q 388 523 396 544 q 366 484 380 502 q 334 455 352 467 q 294 444 315 444 q 254 461 269 444 q 239 508 239 478 m 427 -129 q 408 -214 427 -172 q 354 -288 389 -255 q 269 -340 319 -320 q 156 -360 218 -360 q 82 -346 113 -360 q 30 -311 50 -333 q 0 -258 9 -288 q -11 -193 -11 -228 q 6 -89 -11 -134 q 50 -7 23 -43 q 108 59 76 28 q 168 124 139 91 q 219 194 197 156 q 249 280 241 231 l 258 345 q 281 362 271 355 q 308 374 291 369 l 321 359 l 321 280 q 303 196 321 234 q 261 124 286 158 q 207 57 235 89 q 154 -7 178 25 q 113 -77 129 -41 q 97 -155 97 -113 q 126 -259 97 -223 q 215 -295 156 -295 q 265 -282 243 -295 q 300 -247 287 -269 q 317 -196 313 -225 q 316 -135 322 -167 q 342 -124 331 -128 q 364 -116 353 -119 q 387 -112 375 -113 q 413 -109 399 -110 l 427 -129 "},"ý":{"x_min":-123,"x_max":617.53125,"ha":628,"o":"m 606 583 q 593 524 606 560 q 552 427 580 487 q 478 276 524 366 q 367 55 432 185 q 276 -105 321 -33 q 183 -230 231 -178 q 84 -310 136 -282 q -24 -339 33 -339 q -62 -335 -44 -339 q -94 -327 -80 -332 q -115 -315 -107 -322 q -123 -304 -123 -309 q -116 -281 -123 -296 q -100 -251 -110 -267 q -79 -221 -91 -235 q -59 -203 -68 -208 q -30 -221 -42 -214 q -7 -230 -17 -227 q 14 -233 3 -233 q 37 -233 25 -233 q 145 -179 92 -233 q 254 -29 197 -126 q 238 59 248 9 q 216 160 228 108 q 191 265 204 213 q 165 364 178 318 q 141 447 153 410 q 119 505 129 484 q 92 550 103 539 q 70 561 81 561 q 53 558 64 561 q 31 552 41 556 q 3 544 18 549 l -4 569 q 49 594 24 582 q 96 615 75 606 q 132 629 117 624 q 156 635 148 635 q 173 630 165 635 q 187 615 180 625 q 200 588 193 605 q 214 548 206 571 q 242 462 227 512 q 273 354 258 412 q 304 235 289 297 q 331 112 319 173 q 375 199 353 154 q 417 287 397 243 q 455 370 438 330 q 485 443 472 410 q 506 500 499 476 q 514 537 514 524 q 478 571 514 571 q 416 556 456 574 l 404 581 q 490 622 453 610 q 550 635 527 635 q 572 633 561 635 q 589 626 582 631 q 601 610 597 620 q 606 583 606 600 m 617 932 l 376 696 q 360 703 365 698 q 345 719 355 708 l 530 989 q 547 984 537 987 q 569 977 558 981 q 591 970 581 974 q 607 962 601 966 l 617 932 "},"º":{"x_min":39.734375,"x_max":351,"ha":344,"o":"m 298 682 q 277 767 298 737 q 220 798 257 798 q 176 782 194 798 q 146 744 157 767 q 130 693 135 720 q 126 643 126 666 q 132 597 126 619 q 149 559 138 576 q 174 533 159 543 q 205 524 188 524 q 248 540 230 524 q 277 580 266 556 q 292 632 287 605 q 298 682 298 660 m 317 431 q 309 414 314 420 q 302 398 305 407 l 51 398 l 39 411 q 47 430 43 422 q 55 448 51 437 l 305 448 l 317 431 m 351 701 q 345 652 351 677 q 329 603 340 626 q 303 559 319 580 q 267 521 287 538 q 225 494 247 505 q 181 484 203 484 q 136 494 155 484 q 102 523 116 505 q 82 568 89 542 q 75 624 75 593 q 93 721 75 675 q 159 804 111 766 q 200 828 178 818 q 245 839 223 839 q 294 828 274 839 q 327 800 315 818 q 345 757 340 782 q 351 701 351 731 "},"ź":{"x_min":-2.71875,"x_max":571.703125,"ha":526,"o":"m 526 599 q 425 480 470 539 q 338 359 381 420 q 252 233 296 298 q 155 101 208 169 q 173 107 157 102 q 210 112 189 112 q 247 105 224 112 q 297 91 269 99 q 352 76 324 82 q 405 70 380 70 q 420 71 411 70 q 439 80 429 73 q 461 103 449 88 q 487 143 474 118 l 511 130 q 478 60 492 88 q 447 16 463 32 q 408 -7 430 0 q 354 -14 387 -14 q 290 -6 320 -14 q 234 8 261 0 q 184 23 208 16 q 139 31 160 31 q 116 27 128 31 q 90 17 105 24 q 56 1 75 10 q 12 -21 37 -8 l -2 0 q 67 90 31 41 q 140 191 103 139 q 212 295 177 243 q 280 394 248 347 q 339 478 311 440 q 385 539 366 515 l 181 539 q 154 535 165 539 q 133 523 143 532 q 116 497 124 514 q 98 451 108 479 l 71 456 q 97 561 84 517 q 115 634 109 605 q 143 625 128 630 q 181 620 158 620 l 512 620 l 526 599 m 571 931 l 330 695 q 315 702 320 698 q 300 719 309 707 l 484 989 q 502 983 491 987 q 524 977 512 980 q 545 969 535 973 q 561 961 556 965 l 571 931 "},"ű":{"x_min":26.390625,"x_max":686.5625,"ha":693,"o":"m 661 45 q 568 -9 606 9 q 505 -28 530 -28 q 480 -16 492 -28 q 458 22 467 -4 q 445 93 449 50 q 442 201 442 137 q 386 109 416 151 q 322 36 355 66 q 253 -11 288 5 q 181 -28 218 -28 q 150 -17 168 -28 q 118 14 133 -6 q 92 66 103 35 q 82 138 82 97 q 85 190 82 159 q 94 257 89 221 q 107 332 100 293 q 119 406 113 370 q 128 470 124 441 q 132 515 132 499 q 129 540 132 531 q 124 553 127 549 q 115 559 120 558 q 104 561 110 561 q 86 558 98 561 q 63 552 75 556 q 34 544 50 549 l 26 569 q 83 594 54 582 q 136 615 112 606 q 179 629 161 624 q 206 635 198 635 q 233 622 226 635 q 240 577 240 609 q 235 526 240 558 q 225 456 231 494 q 213 377 219 418 q 200 299 206 337 q 190 229 194 261 q 186 177 186 197 q 199 83 186 112 q 238 54 213 54 q 274 67 252 54 q 325 109 297 80 q 387 187 354 139 q 457 303 421 234 q 467 361 461 332 q 477 418 472 391 q 484 471 481 446 q 488 515 488 495 q 486 540 488 531 q 481 553 484 549 q 473 559 477 558 q 462 561 468 561 q 445 558 456 561 q 424 552 435 556 q 398 544 412 549 l 388 569 q 444 594 417 582 q 496 615 472 606 q 537 629 519 624 q 563 635 554 635 q 588 622 582 635 q 595 577 595 609 q 590 526 595 558 q 580 457 586 495 q 567 378 574 419 q 553 299 559 337 q 543 227 547 261 q 539 171 539 194 q 547 80 539 110 q 573 51 556 51 q 609 55 591 51 q 651 70 627 60 l 661 45 m 323 696 q 307 701 313 697 q 291 713 301 705 l 435 989 q 451 986 442 988 q 470 982 460 985 q 488 977 479 980 q 502 972 496 975 l 512 945 l 323 696 m 497 696 q 481 701 487 697 q 465 713 474 705 l 609 989 q 625 986 616 988 q 643 982 634 985 q 661 977 653 980 q 675 972 670 975 l 686 945 l 497 696 "},"ń":{"x_min":31.84375,"x_max":659.328125,"ha":686,"o":"m 659 48 q 554 -8 597 11 q 486 -28 511 -28 q 449 -6 462 -28 q 436 51 436 14 q 440 94 436 63 q 451 168 444 126 q 466 257 458 210 q 481 348 474 305 q 492 424 488 390 q 497 474 497 458 q 486 546 497 526 q 445 567 475 567 q 414 556 436 567 q 364 523 392 545 q 306 469 337 501 q 251 393 276 436 q 219 314 232 360 q 194 203 207 269 q 183 99 183 143 q 183 16 183 56 q 159 6 172 11 q 132 -5 146 0 q 105 -17 118 -11 q 84 -28 92 -23 l 62 -7 q 81 89 71 37 q 98 194 90 142 q 114 298 107 247 q 127 392 122 349 q 135 468 132 435 q 139 516 139 500 q 137 541 139 532 q 132 554 135 550 q 124 560 129 559 q 113 562 120 562 q 95 559 107 562 q 71 553 84 556 q 41 544 57 549 l 31 571 q 88 594 60 583 q 142 615 117 606 q 186 629 167 624 q 212 635 204 635 q 227 631 222 635 q 235 620 233 628 q 238 597 238 612 q 238 558 238 582 q 238 537 238 550 q 238 510 238 524 q 235 481 238 495 q 233 459 233 467 q 307 539 269 505 q 380 593 344 572 q 449 625 416 615 q 513 635 483 635 q 551 628 534 635 q 578 608 567 622 q 595 572 589 594 q 601 516 601 549 q 596 457 601 493 q 585 381 592 422 q 570 296 578 340 q 555 213 562 253 q 544 142 548 174 q 540 91 540 110 q 546 59 540 67 q 564 51 552 51 q 600 56 580 51 q 649 73 620 61 l 659 48 m 629 932 l 389 696 q 373 703 378 698 q 358 719 368 708 l 542 989 q 559 984 549 987 q 582 977 570 981 q 603 970 593 974 q 619 962 613 966 l 629 932 "},";":{"x_min":-11.75,"x_max":260,"ha":278,"o":"m 260 587 q 252 545 260 567 q 233 505 245 523 q 201 476 220 488 q 160 465 183 465 q 118 483 133 465 q 104 531 104 501 q 111 572 104 550 q 133 611 119 593 q 164 640 146 628 q 204 652 183 652 q 244 634 229 652 q 260 587 260 617 m 206 68 q 198 28 206 51 q 176 -20 190 5 q 144 -73 162 -46 q 104 -125 125 -100 q 58 -172 82 -150 q 11 -207 35 -193 l -11 -183 q 92 0 92 -73 q 88 23 92 11 q 76 43 84 35 q 53 55 67 51 q 18 56 39 59 l 12 87 q 40 106 20 95 q 83 128 60 118 q 129 147 107 139 q 162 155 151 155 q 182 141 174 148 q 195 126 190 135 q 203 103 201 117 q 206 68 206 89 "},"Ġ":{"x_min":52,"x_max":720.90625,"ha":728,"o":"m 716 365 q 663 340 680 355 q 644 310 646 325 q 637 262 641 291 q 629 202 633 233 q 621 144 625 172 q 616 104 617 117 q 525 38 564 63 q 454 0 486 13 q 395 -16 422 -12 q 340 -21 367 -21 q 232 1 284 -21 q 140 68 180 24 q 76 175 100 111 q 52 320 52 239 q 66 450 52 385 q 109 576 81 516 q 174 687 136 636 q 258 775 212 738 q 386 847 316 820 q 537 875 457 875 q 581 870 558 875 q 629 856 605 865 q 675 834 653 847 q 715 805 697 821 q 712 790 719 802 q 692 765 704 779 q 666 737 680 751 q 642 716 652 724 l 623 720 q 586 756 606 741 q 544 778 567 770 q 495 790 521 787 q 439 794 469 794 q 376 776 413 794 q 302 728 339 758 q 240 656 268 701 q 193 559 213 611 q 163 452 174 506 q 153 350 153 397 q 175 224 153 277 q 231 136 197 171 q 308 83 266 100 q 393 67 351 67 q 465 77 430 67 q 524 106 500 88 l 551 310 q 548 323 552 317 q 530 337 545 330 q 485 350 514 344 q 404 365 455 357 l 408 395 l 720 395 l 716 365 m 569 1050 q 563 1013 569 1031 q 546 979 557 994 q 520 954 535 964 q 485 945 504 945 q 453 957 464 945 q 442 992 442 969 q 448 1029 442 1010 q 464 1063 454 1048 q 490 1089 475 1079 q 525 1099 506 1099 q 557 1086 546 1099 q 569 1050 569 1073 "},"6":{"x_min":46,"x_max":542.09375,"ha":558,"o":"m 305 447 q 229 428 266 447 q 154 365 193 410 q 148 309 148 337 q 148 253 148 281 q 183 101 148 151 q 280 52 219 52 q 328 63 307 52 q 365 93 349 74 q 391 136 380 112 q 408 186 402 161 q 417 238 414 212 q 421 286 421 264 q 410 365 421 334 q 383 414 400 396 q 346 439 366 432 q 305 447 326 447 m 542 806 q 408 757 468 791 q 302 675 349 722 q 223 568 256 627 q 172 444 191 509 q 262 505 219 488 q 341 522 305 522 q 472 470 428 522 q 517 327 517 418 q 508 250 517 290 q 483 171 500 210 q 443 97 466 132 q 389 36 419 63 q 322 -5 358 10 q 244 -21 285 -21 q 163 -1 200 -21 q 101 52 127 17 q 60 136 75 87 q 46 244 46 185 q 61 387 46 317 q 106 521 76 457 q 178 639 135 584 q 275 737 220 694 q 395 808 329 779 q 536 846 461 836 l 542 806 "},"n":{"x_min":31.84375,"x_max":659.328125,"ha":686,"o":"m 659 48 q 554 -8 597 11 q 486 -28 511 -28 q 449 -6 462 -28 q 436 51 436 14 q 440 94 436 63 q 451 168 444 126 q 466 257 458 210 q 481 348 474 305 q 492 424 488 390 q 497 474 497 458 q 486 546 497 526 q 445 567 475 567 q 414 556 436 567 q 364 523 392 545 q 306 469 337 501 q 251 393 276 436 q 219 314 232 360 q 194 203 207 269 q 183 99 183 143 q 183 16 183 56 q 159 6 172 11 q 132 -5 146 0 q 105 -17 118 -11 q 84 -28 92 -23 l 62 -7 q 81 89 71 37 q 98 194 90 142 q 114 298 107 247 q 127 392 122 349 q 135 468 132 435 q 139 516 139 500 q 137 541 139 532 q 132 554 135 550 q 124 560 129 559 q 113 562 120 562 q 95 559 107 562 q 71 553 84 556 q 41 544 57 549 l 31 571 q 88 594 60 583 q 142 615 117 606 q 186 629 167 624 q 212 635 204 635 q 227 631 222 635 q 235 620 233 628 q 238 597 238 612 q 238 558 238 582 q 238 537 238 550 q 238 510 238 524 q 235 481 238 495 q 233 459 233 467 q 307 539 269 505 q 380 593 344 572 q 449 625 416 615 q 513 635 483 635 q 551 628 534 635 q 578 608 567 622 q 595 572 589 594 q 601 516 601 549 q 596 457 601 493 q 585 381 592 422 q 570 296 578 340 q 555 213 562 253 q 544 142 548 174 q 540 91 540 110 q 546 59 540 67 q 564 51 552 51 q 600 56 580 51 q 649 73 620 61 l 659 48 "},"¤":{"x_min":71.203125,"x_max":510.65625,"ha":558,"o":"m 308 522 q 264 513 284 522 q 227 488 243 504 q 202 452 212 473 q 189 407 191 431 q 191 365 186 385 q 208 329 196 344 q 237 303 219 313 q 276 294 254 294 q 320 303 300 294 q 356 327 340 312 q 381 364 371 343 q 394 408 391 384 q 392 449 397 429 q 376 486 387 469 q 348 512 365 502 q 308 522 330 522 m 417 189 l 364 260 q 267 230 320 230 q 218 238 240 230 q 179 262 196 246 l 104 191 l 84 191 q 77 211 81 200 q 71 234 73 222 l 146 305 q 130 406 123 351 q 145 465 134 439 q 172 511 156 491 l 113 587 l 118 610 q 141 619 127 616 q 164 627 154 622 l 219 554 q 269 579 244 571 q 317 587 295 587 q 364 577 343 587 q 403 553 386 568 l 477 625 l 498 625 l 510 580 l 436 509 q 451 459 447 486 q 452 406 455 433 q 409 303 444 348 l 468 227 l 466 204 l 417 189 "},"Ĝ":{"x_min":52,"x_max":721.296875,"ha":728,"o":"m 717 365 q 663 340 680 355 q 644 310 646 325 q 637 262 641 291 q 629 202 633 233 q 621 144 625 172 q 616 104 618 117 q 526 38 565 63 q 454 0 486 13 q 395 -16 422 -12 q 340 -21 367 -21 q 232 1 284 -21 q 140 68 180 24 q 76 175 100 111 q 52 320 52 239 q 66 450 52 385 q 109 576 81 516 q 174 687 136 636 q 258 775 212 738 q 386 847 316 820 q 538 875 457 875 q 582 870 558 875 q 629 856 606 865 q 675 834 653 847 q 715 805 698 821 q 712 790 719 802 q 692 765 705 779 q 666 737 680 751 q 643 716 652 724 l 624 720 q 587 756 606 741 q 544 778 567 770 q 495 790 521 787 q 439 794 469 794 q 376 776 413 794 q 302 728 339 758 q 240 656 268 701 q 193 559 213 611 q 163 452 174 506 q 153 350 153 397 q 175 224 153 277 q 231 136 197 171 q 308 83 266 100 q 393 67 351 67 q 465 77 430 67 q 524 106 500 88 l 551 310 q 549 323 552 317 q 530 337 545 330 q 485 350 515 344 q 404 365 455 357 l 408 395 l 721 395 l 717 365 m 684 943 q 669 923 674 930 q 653 913 664 917 l 507 1052 l 327 913 q 316 923 321 917 q 304 943 311 930 l 491 1148 l 553 1148 l 684 943 "},"p":{"x_min":-4.390625,"x_max":599,"ha":653,"o":"m 411 546 q 365 529 393 546 q 307 481 338 512 q 247 407 277 450 q 196 312 218 364 l 179 213 q 208 167 189 192 q 250 121 226 143 q 301 86 273 100 q 356 72 328 72 q 421 92 392 72 q 465 148 449 112 q 484 203 477 175 q 495 260 492 232 q 499 314 499 289 q 499 360 499 340 q 491 443 499 408 q 471 500 484 478 q 443 534 459 523 q 411 546 428 546 m 235 590 q 230 533 235 569 q 216 436 226 496 q 298 543 260 503 q 367 603 336 582 q 424 629 399 623 q 470 635 450 635 q 520 621 497 635 q 561 581 543 607 q 588 515 578 554 q 599 425 599 476 q 580 281 599 357 q 518 127 561 205 q 482 72 502 100 q 439 22 462 45 q 388 -13 415 0 q 332 -28 361 -28 q 287 -14 309 -28 q 244 22 265 0 q 203 73 222 44 q 165 130 183 101 l 142 4 q 117 -210 117 -135 q 118 -303 117 -284 q 95 -310 108 -306 q 67 -320 81 -314 q 39 -330 52 -325 q 17 -339 26 -335 l -4 -319 q 5 -258 -1 -300 q 22 -161 12 -217 q 43 -40 32 -106 q 67 93 55 25 q 90 227 79 161 q 109 351 101 294 q 123 450 118 407 q 128 515 128 493 q 125 540 128 531 q 117 553 122 549 q 107 559 113 558 q 96 561 102 561 q 79 558 90 561 q 56 552 68 556 q 28 544 43 549 l 19 569 q 76 594 47 582 q 131 615 105 606 q 175 629 156 624 q 203 635 195 635 q 225 625 216 635 q 235 590 235 616 "},"‡":{"x_min":48.609375,"x_max":624.421875,"ha":596,"o":"m 624 728 q 595 676 612 705 q 560 622 578 647 q 479 645 519 637 q 388 654 439 654 q 383 573 383 612 q 388 488 383 534 q 361 401 371 443 q 343 321 350 360 q 398 323 371 321 q 450 330 424 326 q 503 341 476 335 q 558 354 530 347 l 570 325 q 541 273 558 302 q 505 218 524 244 q 425 240 466 231 q 333 250 384 250 q 325 132 325 185 q 334 28 325 79 q 281 -3 309 11 q 231 -27 253 -17 l 207 -10 q 247 118 231 54 q 274 251 264 182 q 220 247 246 251 q 167 240 193 244 q 114 231 141 236 q 59 218 87 225 l 48 247 q 77 299 60 271 q 113 354 94 328 q 192 330 152 338 q 283 322 233 322 q 288 402 288 360 q 284 488 288 444 q 312 573 302 535 q 329 654 322 612 q 222 644 272 654 q 114 622 171 635 l 103 651 q 132 703 115 674 q 167 757 148 731 q 247 733 206 741 q 339 725 288 725 q 346 843 346 788 q 337 948 346 897 q 391 979 363 965 q 440 1003 418 994 l 465 986 q 427 857 444 923 q 398 725 410 792 q 453 727 427 725 q 505 734 479 729 q 558 744 531 738 q 613 757 585 750 l 624 728 "},"ň":{"x_min":31.84375,"x_max":659.328125,"ha":686,"o":"m 659 48 q 554 -8 597 11 q 486 -28 511 -28 q 449 -6 462 -28 q 436 51 436 14 q 440 94 436 63 q 451 168 444 126 q 466 257 458 210 q 481 348 474 305 q 492 424 488 390 q 497 474 497 458 q 486 546 497 526 q 445 567 475 567 q 414 556 436 567 q 364 523 392 545 q 306 469 337 501 q 251 393 276 436 q 219 314 232 360 q 194 203 207 269 q 183 99 183 143 q 183 16 183 56 q 159 6 172 11 q 132 -5 146 0 q 105 -17 118 -11 q 84 -28 92 -23 l 62 -7 q 81 89 71 37 q 98 194 90 142 q 114 298 107 247 q 127 392 122 349 q 135 468 132 435 q 139 516 139 500 q 137 541 139 532 q 132 554 135 550 q 124 560 129 559 q 113 562 120 562 q 95 559 107 562 q 71 553 84 556 q 41 544 57 549 l 31 571 q 88 594 60 583 q 142 615 117 606 q 186 629 167 624 q 212 635 204 635 q 227 631 222 635 q 235 620 233 628 q 238 597 238 612 q 238 558 238 582 q 238 537 238 550 q 238 510 238 524 q 235 481 238 495 q 233 459 233 467 q 307 539 269 505 q 380 593 344 572 q 449 625 416 615 q 513 635 483 635 q 551 628 534 635 q 578 608 567 622 q 595 572 589 594 q 601 516 601 549 q 596 457 601 493 q 585 381 592 422 q 570 296 578 340 q 555 213 562 253 q 544 142 548 174 q 540 91 540 110 q 546 59 540 67 q 564 51 552 51 q 600 56 580 51 q 649 73 620 61 l 659 48 m 433 712 l 370 712 l 244 950 q 259 967 253 963 q 274 980 264 972 l 416 815 l 601 980 q 612 968 609 973 q 622 950 616 963 l 433 712 "},"S":{"x_min":32,"x_max":593.015625,"ha":610,"o":"m 591 812 q 591 803 594 810 q 583 786 588 795 q 568 766 577 776 q 551 745 560 755 q 534 728 542 735 q 522 717 527 720 l 502 721 q 476 752 491 738 q 445 778 462 767 q 410 797 428 790 q 371 804 391 804 q 306 792 334 804 q 258 761 277 780 q 229 719 239 742 q 219 674 219 696 q 223 643 219 659 q 243 609 228 627 q 285 571 258 591 q 358 528 313 551 q 449 475 411 500 q 509 423 486 450 q 542 366 532 397 q 553 298 553 336 q 526 176 553 234 q 454 75 500 119 q 349 5 409 31 q 222 -21 289 -21 q 163 -12 196 -21 q 101 10 131 -3 q 52 42 72 25 q 32 77 32 60 q 40 101 32 86 q 59 133 48 117 q 83 160 70 148 q 104 172 95 172 q 124 155 112 172 q 154 118 135 138 q 200 81 173 98 q 268 65 228 65 q 345 78 309 65 q 407 116 380 92 q 448 173 433 140 q 464 243 464 205 q 455 295 464 271 q 427 342 447 319 q 373 387 407 365 q 288 434 339 410 q 214 479 243 455 q 168 528 184 503 q 144 579 151 553 q 138 629 138 604 q 158 718 138 674 q 216 796 179 762 q 307 853 254 831 q 426 875 361 875 q 517 856 475 875 q 591 812 559 837 "},"/":{"x_min":-75.28125,"x_max":640.1875,"ha":555,"o":"m 29 -193 q 11 -203 22 -198 q -11 -212 0 -208 q -35 -221 -23 -217 q -55 -227 -47 -225 l -75 -210 l 537 1051 q 577 1071 556 1063 q 619 1084 599 1079 l 640 1069 l 29 -193 "},"ⱡ":{"x_min":20.546875,"x_max":425.265625,"ha":418,"o":"m 390 434 l 257 434 q 240 322 248 376 q 225 224 232 269 q 216 144 219 179 q 213 91 213 110 q 219 59 213 67 q 236 51 225 51 q 273 56 252 51 q 324 73 293 61 l 332 48 q 273 12 299 27 q 227 -10 248 -1 q 189 -23 206 -19 q 154 -28 171 -28 q 120 -7 135 -28 q 106 52 106 12 q 110 105 106 68 q 122 193 114 142 q 139 306 129 244 q 158 434 148 368 l 33 434 l 20 450 q 30 473 24 461 q 41 495 35 485 l 168 495 q 173 532 171 514 q 179 570 176 550 l 47 570 l 34 586 q 43 609 38 597 q 55 631 49 621 l 188 631 q 202 722 195 678 q 213 802 208 765 q 220 867 217 839 q 223 912 223 895 q 219 937 223 928 q 212 950 216 946 q 200 956 207 955 q 188 958 194 958 q 170 954 182 958 q 147 948 158 951 q 117 939 133 944 l 107 966 q 164 990 135 979 q 218 1011 193 1002 q 261 1025 242 1020 q 289 1031 280 1031 q 319 1018 308 1031 q 331 975 331 1006 q 327 918 331 953 q 318 838 324 883 q 305 740 312 792 q 288 631 297 687 l 412 631 l 425 616 l 404 570 l 279 570 l 266 495 l 398 495 l 411 480 l 390 434 "},"y":{"x_min":-123,"x_max":606,"ha":628,"o":"m 606 583 q 593 524 606 560 q 552 427 580 487 q 478 276 524 366 q 367 55 432 185 q 276 -105 321 -33 q 183 -230 231 -178 q 84 -310 136 -282 q -24 -339 33 -339 q -62 -335 -44 -339 q -94 -327 -80 -332 q -115 -315 -107 -322 q -123 -304 -123 -309 q -116 -281 -123 -296 q -100 -251 -110 -267 q -79 -221 -91 -235 q -59 -203 -68 -208 q -30 -221 -42 -214 q -7 -230 -17 -227 q 14 -233 3 -233 q 37 -233 25 -233 q 145 -179 92 -233 q 254 -29 197 -126 q 238 59 248 9 q 216 160 228 108 q 191 265 204 213 q 165 364 178 318 q 141 447 153 410 q 119 505 129 484 q 92 550 103 539 q 70 561 81 561 q 53 558 64 561 q 31 552 41 556 q 3 544 18 549 l -4 569 q 49 594 24 582 q 96 615 75 606 q 132 629 117 624 q 156 635 148 635 q 173 630 165 635 q 187 615 180 625 q 200 588 193 605 q 214 548 206 571 q 242 462 227 512 q 273 354 258 412 q 304 235 289 297 q 331 112 319 173 q 375 199 353 154 q 417 287 397 243 q 455 370 438 330 q 485 443 472 410 q 506 500 499 476 q 514 537 514 524 q 478 571 514 571 q 416 556 456 574 l 404 581 q 490 622 453 610 q 550 635 527 635 q 572 633 561 635 q 589 626 582 631 q 601 610 597 620 q 606 583 606 600 "},"ˊ":{"x_min":135.640625,"x_max":406.90625,"ha":271,"o":"m 406 932 l 166 696 q 150 703 155 698 q 135 719 145 708 l 320 989 q 337 984 326 987 q 359 977 347 981 q 381 970 370 974 q 396 962 391 966 l 406 932 "},"g":{"x_min":-3,"x_max":596.5625,"ha":618,"o":"m 229 65 q 268 87 243 65 q 320 148 292 110 q 377 236 348 186 q 428 342 406 287 q 434 395 431 367 q 443 456 437 424 q 448 483 445 470 q 457 507 452 496 q 435 525 447 515 q 408 543 422 534 q 376 558 393 552 q 340 564 359 564 q 281 548 309 564 q 230 508 253 533 q 188 450 207 483 q 156 384 169 418 q 136 316 143 350 q 129 257 129 283 q 137 177 129 213 q 158 117 145 142 q 190 78 172 92 q 229 65 209 65 m 596 611 q 557 564 573 592 q 535 487 542 536 q 524 340 524 407 q 524 216 524 274 q 519 105 524 158 q 505 0 515 52 q 461 -131 493 -69 q 387 -239 430 -193 q 292 -312 344 -285 q 186 -339 240 -339 q 124 -330 157 -339 q 63 -309 91 -322 q 15 -283 34 -297 q -3 -256 -3 -268 q 5 -230 -3 -245 q 26 -203 14 -215 q 48 -181 37 -190 q 64 -173 60 -173 q 75 -179 70 -173 q 90 -196 81 -186 q 110 -218 98 -206 q 139 -240 122 -230 q 181 -257 156 -250 q 237 -264 205 -264 q 343 -204 304 -264 q 402 -32 382 -145 q 412 38 408 5 q 416 104 416 72 q 416 165 416 135 q 416 227 416 196 q 370 140 399 185 q 309 57 341 94 q 243 -3 277 20 q 180 -28 210 -28 q 132 -15 158 -28 q 85 25 107 -2 q 49 98 63 54 q 35 206 35 143 q 47 311 35 260 q 84 409 59 362 q 146 496 108 455 q 233 571 183 537 q 274 594 252 583 q 319 615 296 606 q 364 629 342 624 q 408 635 387 635 q 437 630 423 635 q 465 619 452 626 q 490 604 478 612 q 513 589 502 596 q 546 615 528 604 q 580 635 563 626 l 596 611 "},"²":{"x_min":30.28125,"x_max":409,"ha":390,"o":"m 409 821 q 395 766 409 795 q 349 695 382 736 q 259 598 315 654 q 115 466 202 543 l 285 466 q 310 476 300 466 q 327 499 320 487 q 342 533 336 514 l 369 529 l 344 412 l 37 412 l 30 448 q 173 578 116 522 q 265 677 231 634 q 313 752 299 720 q 328 809 328 783 q 309 854 328 839 q 255 870 290 870 q 223 863 237 870 q 199 845 210 856 q 183 820 189 834 q 175 792 177 806 q 141 779 159 784 q 103 772 123 774 l 93 784 q 114 828 96 805 q 157 870 131 851 q 217 902 184 889 q 287 915 251 915 q 336 909 313 915 q 374 892 358 904 q 399 863 390 881 q 409 821 409 845 "},"–":{"x_min":29.15625,"x_max":516.09375,"ha":558,"o":"m 516 367 q 502 336 510 352 q 488 309 495 320 l 41 309 l 29 325 q 42 355 34 340 q 58 384 50 370 l 502 384 l 516 367 "},"ë":{"x_min":43,"x_max":558,"ha":546,"o":"m 264 530 q 220 481 241 510 q 181 417 198 451 q 152 346 164 383 q 141 273 141 309 q 280 336 229 308 q 358 390 332 364 q 392 438 385 415 q 400 485 400 461 q 394 521 400 506 q 380 545 389 536 q 360 559 371 555 q 337 564 348 564 q 305 556 326 564 q 264 530 284 548 m 509 515 q 504 475 509 496 q 486 432 500 454 q 447 385 472 409 q 381 334 422 360 q 281 280 340 308 q 140 221 222 252 q 156 152 144 183 q 184 98 168 120 q 218 63 199 76 q 255 51 237 51 q 290 54 269 51 q 337 67 310 57 q 397 97 364 77 q 472 149 431 116 q 485 136 479 145 q 493 121 491 127 q 394 44 437 73 q 318 -1 352 14 q 258 -22 285 -17 q 207 -28 231 -28 q 156 -15 184 -28 q 102 24 127 -2 q 60 96 77 52 q 43 205 43 140 q 55 309 43 258 q 92 408 68 360 q 152 497 116 455 q 232 573 187 539 q 267 597 247 586 q 308 617 287 608 q 351 630 329 625 q 395 635 374 635 q 445 624 424 635 q 481 596 466 613 q 502 558 495 580 q 509 515 509 537 m 305 855 q 298 818 305 836 q 281 784 292 799 q 255 759 271 769 q 220 750 239 750 q 186 762 198 750 q 174 797 174 774 q 180 834 174 815 q 198 868 186 853 q 225 894 209 884 q 260 904 241 904 q 293 891 281 904 q 305 855 305 878 m 558 855 q 551 818 558 836 q 534 784 545 799 q 507 759 523 769 q 471 750 491 750 q 438 762 450 750 q 427 797 427 774 q 433 834 427 815 q 450 868 439 853 q 476 894 460 884 q 511 904 492 904 q 545 891 532 904 q 558 855 558 878 "},"J":{"x_min":-179,"x_max":426.59375,"ha":392,"o":"m 422 825 q 353 804 379 816 q 326 783 327 793 l 237 139 q 208 4 226 58 q 169 -86 191 -49 q 121 -148 147 -123 q 67 -195 95 -173 q 28 -221 49 -209 q -14 -241 6 -232 q -54 -253 -35 -249 q -84 -258 -72 -258 q -120 -251 -103 -258 q -150 -236 -137 -245 q -171 -219 -163 -228 q -179 -203 -179 -209 q -169 -185 -179 -197 q -146 -163 -159 -173 q -118 -144 -132 -152 q -96 -136 -105 -136 q -83 -142 -90 -136 q -66 -155 -75 -148 q -42 -168 -56 -162 q -6 -175 -27 -175 q 29 -163 9 -175 q 68 -122 48 -151 q 105 -40 88 -92 q 133 90 122 11 l 229 783 q 225 792 229 787 q 208 802 221 797 q 173 813 196 808 q 113 825 150 819 l 116 855 l 426 855 l 422 825 "},"Ã":{"x_min":-23.734375,"x_max":726.3125,"ha":778,"o":"m 251 301 l 154 75 q 165 45 145 54 q 237 29 185 36 l 233 0 l -23 0 l -19 29 q 48 46 23 37 q 83 75 74 56 l 413 834 q 434 850 422 842 q 459 866 446 859 q 484 881 472 874 q 505 893 496 889 l 651 75 q 656 59 653 66 q 668 46 660 51 q 690 36 676 40 q 726 29 704 32 l 723 0 l 462 0 l 465 31 q 534 42 513 31 q 551 75 555 54 l 512 301 l 251 301 m 501 363 l 437 732 l 278 363 l 501 363 m 706 1094 q 674 1040 692 1067 q 635 991 656 1013 q 590 957 614 970 q 539 944 566 944 q 500 955 518 944 q 467 981 483 967 q 435 1006 451 994 q 402 1018 419 1018 q 354 996 378 1018 q 301 937 329 975 l 271 951 q 304 1005 286 978 q 343 1053 322 1031 q 389 1087 364 1074 q 439 1101 413 1101 q 480 1089 461 1101 q 515 1064 499 1077 q 545 1038 531 1050 q 574 1027 560 1027 q 624 1048 598 1027 q 676 1107 650 1069 l 706 1094 "},"ŷ":{"x_min":-123,"x_max":606,"ha":628,"o":"m 606 583 q 593 524 606 560 q 552 427 580 487 q 478 276 524 366 q 367 55 432 185 q 276 -105 321 -33 q 183 -230 231 -178 q 84 -310 136 -282 q -24 -339 33 -339 q -62 -335 -44 -339 q -94 -327 -80 -332 q -115 -315 -107 -322 q -123 -304 -123 -309 q -116 -281 -123 -296 q -100 -251 -110 -267 q -79 -221 -91 -235 q -59 -203 -68 -208 q -30 -221 -42 -214 q -7 -230 -17 -227 q 14 -233 3 -233 q 37 -233 25 -233 q 145 -179 92 -233 q 254 -29 197 -126 q 238 59 248 9 q 216 160 228 108 q 191 265 204 213 q 165 364 178 318 q 141 447 153 410 q 119 505 129 484 q 92 550 103 539 q 70 561 81 561 q 53 558 64 561 q 31 552 41 556 q 3 544 18 549 l -4 569 q 49 594 24 582 q 96 615 75 606 q 132 629 117 624 q 156 635 148 635 q 173 630 165 635 q 187 615 180 625 q 200 588 193 605 q 214 548 206 571 q 242 462 227 512 q 273 354 258 412 q 304 235 289 297 q 331 112 319 173 q 375 199 353 154 q 417 287 397 243 q 455 370 438 330 q 485 443 472 410 q 506 500 499 476 q 514 537 514 524 q 478 571 514 571 q 416 556 456 574 l 404 581 q 490 622 453 610 q 550 635 527 635 q 572 633 561 635 q 589 626 582 631 q 601 610 597 620 q 606 583 606 600 m 580 726 q 566 706 571 712 q 550 696 561 700 l 408 875 l 223 696 q 212 706 217 700 q 201 726 208 712 l 393 978 l 456 978 l 580 726 "},"ŕ":{"x_min":27.859375,"x_max":545.59375,"ha":493,"o":"m 520 576 q 502 550 512 565 q 482 520 492 534 q 464 495 473 505 q 448 485 455 485 q 426 492 435 485 q 409 508 417 499 q 393 524 401 517 q 375 532 386 532 q 334 507 358 532 q 287 444 310 483 q 242 357 263 405 q 206 259 220 308 q 192 203 198 234 q 182 139 186 172 q 178 75 178 107 q 178 16 178 44 q 155 6 168 12 q 128 -5 142 0 q 101 -17 114 -11 q 80 -27 88 -23 l 58 -6 q 78 92 68 41 q 96 195 87 144 q 111 295 104 246 q 123 386 118 344 q 131 461 128 428 q 135 515 135 495 q 132 540 135 531 q 126 553 130 549 q 117 559 122 558 q 107 561 112 561 q 88 558 100 561 q 65 552 77 556 q 37 544 52 549 l 27 569 q 85 594 56 582 q 139 615 114 606 q 183 629 164 624 q 209 635 201 635 q 224 631 219 635 q 232 619 230 628 q 235 595 235 611 q 235 556 235 580 q 233 531 235 549 q 228 493 231 514 q 223 452 225 472 q 218 419 220 432 q 279 528 250 486 q 335 594 308 570 q 384 626 361 618 q 430 635 408 635 q 452 628 442 635 q 472 611 462 621 q 494 592 482 602 q 520 576 505 582 m 545 932 l 304 696 q 288 703 294 698 q 274 719 283 708 l 458 989 q 476 984 465 987 q 498 977 486 981 q 519 970 509 974 q 535 962 530 966 l 545 932 "},"ˀ":{"x_min":81,"x_max":431.390625,"ha":375,"o":"m 156 543 l 166 608 q 185 669 171 642 q 218 718 200 696 q 258 759 237 740 q 296 796 278 778 q 328 833 314 814 q 344 874 341 852 q 344 919 348 898 q 328 955 339 940 q 298 977 316 969 q 258 986 280 986 q 226 979 241 986 q 200 962 211 973 q 181 937 188 951 q 171 907 173 922 q 173 884 171 896 q 155 877 165 880 q 133 872 145 874 q 111 868 122 870 q 89 867 99 867 l 81 878 q 81 885 81 881 q 82 892 81 888 q 105 945 86 920 q 154 989 125 970 q 220 1019 183 1008 q 297 1031 257 1031 q 360 1019 333 1031 q 404 989 387 1008 q 427 945 421 970 q 429 892 434 920 q 410 838 424 862 q 377 793 396 814 q 338 752 358 772 q 299 713 317 733 q 267 672 280 693 q 249 625 253 650 l 237 543 l 156 543 "},"©":{"x_min":64,"x_max":868,"ha":922,"o":"m 687 639 q 639 607 662 622 q 600 591 616 591 q 584 601 593 591 q 562 622 575 610 q 532 644 549 634 q 491 653 515 653 q 439 640 463 653 q 395 605 414 627 q 359 556 375 584 q 334 497 344 527 q 318 436 323 466 q 313 379 313 405 q 324 311 313 342 q 355 259 336 281 q 401 225 375 237 q 456 213 427 213 q 481 217 466 213 q 516 231 496 221 q 562 258 536 241 q 622 301 588 275 q 633 287 628 293 q 641 276 638 282 q 556 211 592 235 q 491 173 520 186 q 439 155 463 159 q 393 151 416 151 q 343 160 372 151 q 289 194 315 170 q 245 257 263 217 q 228 356 228 297 q 235 434 228 395 q 260 511 242 473 q 307 585 278 548 q 380 654 336 621 q 417 677 396 666 q 461 693 438 687 q 506 704 483 700 q 548 708 529 708 q 598 698 576 708 q 636 676 620 688 q 665 653 653 664 q 687 639 678 641 m 814 487 q 793 616 814 556 q 735 720 773 676 q 643 791 697 765 q 521 817 588 817 q 410 799 462 817 q 313 749 358 781 q 231 675 268 717 q 170 582 195 632 q 130 478 144 532 q 117 369 117 423 q 137 239 117 300 q 195 134 157 179 q 288 63 234 89 q 411 37 342 37 q 522 54 469 37 q 619 104 574 72 q 700 179 664 136 q 761 273 736 223 q 800 378 786 323 q 814 487 814 432 m 868 510 q 853 381 868 445 q 809 257 838 316 q 740 147 781 198 q 647 59 699 97 q 534 0 596 21 q 402 -21 472 -21 q 262 8 325 -21 q 155 88 200 37 q 87 208 111 139 q 64 356 64 277 q 79 482 64 419 q 124 603 95 546 q 194 710 153 661 q 287 797 236 760 q 399 854 339 833 q 527 875 460 875 q 666 847 604 875 q 774 770 729 819 q 843 654 819 721 q 868 510 868 588 "},"˘":{"x_min":88.15625,"x_max":480.140625,"ha":423,"o":"m 480 905 q 427 813 455 850 q 371 754 400 776 q 314 721 343 731 q 259 712 286 712 q 203 721 229 712 q 155 754 177 731 q 116 814 133 777 q 88 905 99 851 q 106 923 97 917 q 125 935 115 929 q 150 871 134 897 q 186 830 166 846 q 226 807 205 814 q 267 800 247 800 q 312 807 288 800 q 361 830 337 814 q 408 871 385 846 q 450 935 431 897 q 466 924 460 929 q 480 905 473 918 "},"Ă":{"x_min":-23.734375,"x_max":726.3125,"ha":778,"o":"m 251 301 l 154 75 q 165 45 145 54 q 237 29 185 36 l 233 0 l -23 0 l -19 29 q 48 46 23 37 q 83 75 74 56 l 413 833 q 434 850 422 841 q 459 866 446 858 q 484 881 472 874 q 505 893 496 888 l 651 75 q 656 59 653 66 q 668 46 660 51 q 690 36 676 40 q 726 29 704 32 l 723 0 l 462 0 l 465 31 q 534 42 513 31 q 551 75 555 54 l 512 301 l 251 301 m 501 363 l 437 731 l 278 363 l 501 363 m 698 1122 q 645 1030 673 1067 q 590 971 618 993 q 533 938 561 948 q 477 929 504 929 q 421 938 447 929 q 373 971 395 948 q 335 1031 351 994 q 306 1122 318 1068 q 324 1140 316 1134 q 343 1152 333 1146 q 369 1088 353 1114 q 404 1047 385 1063 q 444 1024 423 1031 q 485 1017 465 1017 q 531 1024 506 1017 q 579 1047 555 1031 q 626 1088 603 1063 q 669 1152 649 1114 q 685 1141 678 1146 q 698 1122 691 1135 "},"D":{"x_min":0.015625,"x_max":731,"ha":759,"o":"m 731 505 q 719 384 731 445 q 684 268 707 324 q 627 163 661 212 q 548 77 593 113 q 447 20 503 41 q 326 0 392 0 l 0 0 l 4 29 q 72 49 46 38 q 99 70 98 61 l 200 808 l 97 797 l 97 840 q 251 867 175 859 q 397 875 327 875 q 538 848 477 875 q 643 773 600 822 q 708 657 686 725 q 731 505 731 589 m 342 817 l 321 817 q 301 817 311 817 l 202 94 q 205 77 201 84 q 221 65 209 70 q 254 59 232 61 q 308 57 275 57 q 401 75 359 57 q 478 127 443 94 q 539 203 513 159 q 584 295 566 246 q 611 394 602 343 q 621 492 621 445 q 602 624 621 565 q 549 726 584 684 q 461 793 513 769 q 342 817 409 817 "},"ÿ":{"x_min":-123,"x_max":606,"ha":628,"o":"m 606 583 q 593 524 606 560 q 552 427 580 487 q 478 276 524 366 q 367 55 432 185 q 276 -105 321 -33 q 183 -230 231 -178 q 84 -310 136 -282 q -24 -339 33 -339 q -62 -335 -44 -339 q -94 -327 -80 -332 q -115 -315 -107 -322 q -123 -304 -123 -309 q -116 -281 -123 -296 q -100 -251 -110 -267 q -79 -221 -91 -235 q -59 -203 -68 -208 q -30 -221 -42 -214 q -6 -230 -17 -227 q 14 -233 4 -233 q 37 -233 25 -233 q 145 -179 92 -233 q 255 -29 198 -126 q 238 59 248 9 q 216 160 228 108 q 192 265 204 213 q 166 364 179 318 q 141 447 153 410 q 119 505 129 484 q 93 550 103 539 q 70 561 82 561 q 53 558 64 561 q 31 552 42 556 q 4 544 18 549 l -4 569 q 50 594 24 582 q 96 615 75 606 q 132 629 117 624 q 156 635 148 635 q 173 630 165 635 q 186 615 180 625 q 200 588 193 605 q 214 548 206 571 q 242 462 227 512 q 273 354 258 412 q 304 235 289 297 q 331 112 319 173 q 375 199 352 154 q 417 287 397 243 q 455 370 437 330 q 485 443 472 410 q 506 500 499 476 q 514 537 514 524 q 478 571 514 571 q 416 556 456 574 l 404 581 q 490 622 453 610 q 550 635 527 635 q 572 633 561 635 q 589 626 582 631 q 601 610 597 620 q 606 583 606 600 m 342 856 q 335 819 342 837 q 319 785 329 800 q 292 760 308 770 q 257 751 276 751 q 224 763 236 751 q 212 798 212 775 q 218 835 212 816 q 235 869 224 854 q 262 895 247 885 q 297 905 278 905 q 330 892 318 905 q 342 856 342 879 m 595 856 q 588 819 595 837 q 571 785 582 800 q 544 760 560 770 q 509 751 528 751 q 476 763 488 751 q 465 798 465 775 q 471 835 465 816 q 487 869 477 854 q 514 895 498 885 q 549 905 529 905 q 582 892 570 905 q 595 856 595 879 "},"ĺ":{"x_min":69,"x_max":502,"ha":326,"o":"m 295 48 q 236 12 262 27 q 190 -10 211 -1 q 152 -23 169 -19 q 117 -28 134 -28 q 83 -7 98 -28 q 69 52 69 12 q 74 110 69 69 q 87 207 79 150 q 105 330 95 263 q 127 468 116 398 q 148 608 138 539 q 167 737 159 677 q 180 843 175 797 q 186 912 186 888 q 182 937 186 928 q 175 950 179 946 q 163 956 170 955 q 151 958 157 958 q 133 954 145 958 q 110 948 121 951 q 80 939 96 944 l 70 966 q 127 990 98 979 q 181 1011 156 1002 q 224 1025 205 1020 q 252 1031 243 1031 q 282 1018 271 1031 q 294 975 294 1006 q 288 901 294 948 q 275 794 283 855 q 256 665 267 734 q 235 526 246 597 q 213 387 224 456 q 194 261 202 319 q 181 158 186 202 q 176 91 176 114 q 182 59 176 67 q 199 51 188 51 q 236 56 215 51 q 287 73 256 61 l 295 48 m 502 1295 l 193 1130 q 180 1142 183 1136 q 170 1161 176 1148 l 436 1375 l 451 1365 q 470 1352 460 1359 q 489 1339 480 1345 q 502 1327 497 1332 l 502 1295 "},"ł":{"x_min":29.421875,"x_max":370.390625,"ha":353,"o":"m 309 48 q 250 12 276 27 q 204 -10 225 -1 q 166 -23 183 -19 q 131 -28 148 -28 q 97 -7 112 -28 q 83 52 83 12 q 87 105 83 68 q 99 193 91 142 q 116 307 106 245 q 135 435 125 369 l 41 369 l 29 382 q 32 396 31 391 q 35 406 33 401 q 40 419 36 411 q 50 441 43 426 l 147 509 q 167 637 157 574 q 183 754 176 700 q 195 849 191 808 q 200 912 200 890 q 196 937 200 928 q 189 950 193 946 q 177 956 184 955 q 165 958 171 958 q 147 954 159 958 q 124 948 135 951 q 94 939 110 944 l 84 966 q 141 990 112 979 q 195 1011 170 1002 q 238 1025 219 1020 q 266 1031 257 1031 q 296 1018 285 1031 q 308 975 308 1006 q 303 911 308 951 q 293 819 299 871 q 277 709 286 768 q 258 587 268 650 l 354 654 l 370 639 l 364 622 q 361 612 363 616 q 356 601 359 607 q 348 584 354 595 l 247 512 q 226 378 236 444 q 207 255 215 312 q 194 156 199 199 q 190 91 190 113 q 196 59 190 67 q 213 51 202 51 q 250 56 229 51 q 301 73 270 61 l 309 48 "},"Ł":{"x_min":0,"x_max":575.09375,"ha":623,"o":"m 445 558 q 439 543 443 552 q 430 525 435 534 q 420 507 425 516 q 410 494 415 499 l 244 407 l 202 104 q 205 83 201 92 q 222 70 209 75 q 256 63 234 65 q 312 61 278 61 l 398 61 q 447 64 427 61 q 483 79 467 67 q 514 114 499 91 q 548 177 529 137 l 575 165 q 547 63 561 106 q 524 0 533 19 l 0 0 l 4 29 q 72 49 46 38 q 99 70 98 61 l 138 351 l 56 308 l 41 323 q 47 340 43 330 q 57 359 52 350 q 67 377 62 369 q 76 390 72 385 l 149 428 l 198 783 q 179 803 200 791 q 113 825 158 816 l 118 854 l 396 854 l 391 825 q 323 804 349 816 q 295 783 297 793 l 254 482 l 432 575 l 445 558 "},"$":{"x_min":-11,"x_max":539.046875,"ha":558,"o":"m 169 645 q 173 618 169 632 q 189 589 177 604 q 221 558 200 574 q 273 523 241 541 l 308 767 q 250 755 276 767 q 206 725 225 743 q 178 686 188 707 q 169 645 169 665 m 416 233 q 410 273 416 254 q 391 309 404 292 q 357 344 378 327 q 307 379 336 362 l 263 64 q 323 86 295 70 q 371 124 351 102 q 404 174 392 146 q 416 233 416 201 m 537 776 q 534 760 541 773 q 515 732 526 747 q 490 703 503 716 q 471 686 477 690 l 452 689 q 412 731 436 712 q 361 761 388 751 l 323 497 q 404 449 370 472 q 459 400 437 425 q 490 347 480 375 q 501 283 501 318 q 481 184 501 232 q 428 97 462 136 q 349 29 394 57 q 252 -11 303 0 l 240 -93 q 230 -102 234 -99 q 222 -107 226 -105 q 212 -110 217 -109 q 199 -113 207 -111 l 185 -99 l 196 -21 q 187 -21 192 -21 q 177 -21 182 -21 q 120 -12 153 -21 q 58 9 88 -4 q 9 39 29 22 q -11 73 -11 56 q -3 96 -11 81 q 15 126 4 111 q 38 152 26 141 q 60 164 50 164 q 78 149 66 164 q 106 116 89 134 q 148 81 123 98 q 208 61 173 65 l 256 406 l 240 414 q 169 458 198 435 q 122 505 140 481 q 97 553 104 528 q 90 600 90 577 q 106 675 90 638 q 152 744 122 713 q 224 798 182 776 q 317 830 266 821 l 328 907 q 340 915 336 913 q 347 919 344 917 q 354 922 350 921 q 367 926 358 923 l 382 911 l 371 835 l 372 835 q 463 817 420 835 q 537 776 506 799 "},"w":{"x_min":3.15625,"x_max":867,"ha":875,"o":"m 867 583 q 863 541 867 565 q 851 484 860 517 q 825 406 841 451 q 783 303 809 362 q 720 170 757 244 q 632 1 683 95 q 618 -5 625 -2 q 601 -13 610 -9 q 584 -21 592 -17 q 569 -27 576 -25 l 547 -6 q 536 75 542 31 q 524 165 530 120 q 510 256 517 211 q 497 341 504 301 q 483 414 490 381 q 471 468 477 447 q 462 424 471 453 q 441 357 454 396 q 409 274 427 318 q 370 182 391 229 q 326 90 349 135 q 281 6 304 45 q 266 -1 275 3 q 248 -10 258 -5 q 229 -20 239 -15 q 214 -27 220 -25 l 192 -6 q 182 77 187 31 q 172 173 177 124 q 161 272 167 222 q 150 365 156 321 q 139 446 145 409 q 127 505 134 482 q 118 534 123 523 q 105 551 112 545 q 92 559 99 557 q 79 561 85 561 q 62 558 73 561 q 40 552 51 556 q 12 544 27 549 l 3 570 q 57 594 31 583 q 104 615 83 606 q 141 629 125 624 q 165 635 157 635 q 194 612 184 635 q 215 542 203 590 q 225 488 219 523 q 236 412 230 454 q 247 324 242 370 q 258 237 253 278 q 265 162 262 196 q 269 112 269 129 q 325 228 296 165 q 377 354 353 291 q 417 478 401 418 q 434 586 434 538 q 456 604 444 595 q 480 619 468 612 q 503 630 492 626 q 521 635 513 635 q 528 623 524 635 q 537 594 532 612 q 547 551 541 575 q 557 502 552 527 l 566 452 q 574 407 571 427 q 586 336 579 375 q 599 257 592 297 q 611 175 605 216 q 620 99 617 134 q 703 264 671 193 q 754 389 736 335 q 778 479 772 442 q 785 542 785 516 q 775 564 785 556 q 747 573 765 573 q 724 570 738 573 q 695 562 710 567 l 683 587 q 727 610 706 601 q 765 624 748 619 q 793 632 782 630 q 809 635 805 635 q 831 633 821 635 q 849 626 841 631 q 862 610 857 620 q 867 583 867 600 "},"\\":{"x_min":98.328125,"x_max":462.515625,"ha":555,"o":"m 438 -227 q 420 -221 431 -225 q 398 -212 409 -217 q 377 -203 387 -208 q 362 -193 367 -198 l 98 1069 l 123 1084 q 162 1071 142 1079 q 200 1051 183 1063 l 462 -210 l 438 -227 "},"Ì":{"x_min":13.5625,"x_max":409.609375,"ha":389,"o":"m 405 825 q 337 804 362 816 q 309 783 311 793 l 210 70 q 230 50 209 62 q 295 29 251 38 l 291 0 l 13 0 l 18 29 q 86 49 61 38 q 113 70 111 61 l 210 783 q 191 804 212 791 q 127 825 170 816 l 132 855 l 409 855 l 405 825 m 377 945 q 362 925 368 931 q 345 913 356 919 l 73 1078 l 82 1110 q 99 1122 88 1115 q 122 1135 109 1129 q 145 1148 134 1142 q 165 1158 157 1154 l 377 945 "},"Ç":{"x_min":52,"x_max":689.96875,"ha":675,"o":"m 399 -149 q 377 -215 399 -185 q 323 -262 356 -245 q 247 -279 289 -279 q 165 -254 205 -279 l 165 -228 q 227 -246 199 -246 q 274 -237 255 -246 q 303 -213 293 -229 q 313 -182 313 -198 q 297 -154 313 -164 q 249 -145 281 -145 q 265 -101 259 -120 q 277 -65 272 -82 q 285 -32 281 -48 q 288 -17 287 -25 q 212 2 249 -13 q 130 67 165 25 q 73 170 94 109 q 52 311 52 232 q 64 441 52 374 q 103 569 77 507 q 171 689 129 632 q 269 791 212 746 q 376 852 319 830 q 497 875 433 875 q 611 855 564 875 q 689 807 659 835 q 684 792 691 803 q 665 766 677 780 q 640 738 653 752 q 618 717 626 724 l 597 722 q 530 772 569 752 q 434 793 490 793 q 373 780 407 793 q 312 746 339 767 q 239 662 270 712 q 190 557 209 612 q 162 447 171 501 q 154 349 154 392 q 174 222 154 276 q 225 133 194 168 q 294 81 257 98 q 368 65 332 65 q 459 89 406 65 q 588 173 512 113 q 594 167 592 172 q 600 158 597 163 q 605 149 603 153 q 608 143 607 145 q 522 65 562 96 q 445 15 481 34 q 375 -10 408 -3 q 335 -17 354 -15 q 329 -43 332 -33 q 321 -78 325 -60 q 377 -97 355 -78 q 399 -149 399 -116 "},"Ŝ":{"x_min":32,"x_max":593.015625,"ha":610,"o":"m 591 812 q 591 803 594 810 q 583 786 588 795 q 568 766 577 776 q 551 745 560 755 q 534 728 542 735 q 522 717 527 720 l 502 721 q 476 752 491 738 q 445 778 462 767 q 410 797 428 790 q 371 804 391 804 q 306 792 334 804 q 258 761 277 780 q 229 719 239 742 q 219 674 219 696 q 223 643 219 659 q 243 609 228 627 q 285 571 258 591 q 358 528 313 551 q 449 475 411 500 q 509 423 486 450 q 542 366 532 397 q 553 298 553 336 q 526 176 553 234 q 454 75 500 119 q 349 5 409 31 q 222 -21 289 -21 q 163 -12 196 -21 q 101 10 131 -3 q 52 42 72 25 q 32 77 32 60 q 40 101 32 86 q 59 133 48 117 q 83 160 70 148 q 104 172 95 172 q 124 155 112 172 q 154 118 135 138 q 200 81 173 98 q 268 65 228 65 q 345 78 309 65 q 407 116 380 92 q 448 173 433 140 q 464 243 464 205 q 455 295 464 271 q 427 342 447 319 q 373 387 407 365 q 288 434 339 410 q 214 479 243 455 q 168 528 184 503 q 144 579 151 553 q 138 629 138 604 q 158 718 138 674 q 216 796 179 762 q 307 853 254 831 q 426 875 361 875 q 517 856 475 875 q 591 812 559 837 m 584 943 q 570 923 575 930 q 554 913 565 917 l 408 1052 l 228 913 q 217 923 222 917 q 206 943 212 930 l 392 1148 l 454 1148 l 584 943 "},"C":{"x_min":52,"x_max":689.796875,"ha":675,"o":"m 689 807 q 684 792 691 803 q 665 766 676 780 q 639 738 653 752 q 617 717 626 724 l 597 722 q 530 772 569 752 q 434 793 490 793 q 373 780 407 793 q 312 746 339 767 q 239 662 269 712 q 190 557 209 612 q 162 447 171 501 q 154 349 154 392 q 174 222 154 276 q 225 133 194 168 q 294 81 257 98 q 368 65 332 65 q 459 89 406 65 q 588 173 512 113 q 594 167 592 172 q 600 158 597 163 q 604 149 602 153 q 608 143 607 145 q 521 65 562 97 q 445 16 481 34 q 375 -10 408 -2 q 310 -18 342 -18 q 212 4 259 -18 q 130 68 165 26 q 73 171 94 110 q 52 311 52 232 q 64 441 52 375 q 103 570 77 507 q 171 689 129 632 q 269 791 212 746 q 376 852 319 830 q 497 875 433 875 q 611 855 564 875 q 689 807 659 835 "},"Ē":{"x_min":-0.203125,"x_max":634.5625,"ha":642,"o":"m 580 165 q 552 63 566 106 q 531 0 538 19 l 0 0 l 3 29 q 72 49 46 38 q 99 70 98 61 l 198 783 q 178 803 199 791 q 113 825 157 816 l 117 855 l 617 855 l 634 837 q 626 799 631 820 q 614 757 621 778 q 601 717 608 736 q 588 685 594 698 l 559 685 q 562 737 562 716 q 557 770 562 757 q 544 787 552 782 q 523 793 536 793 l 296 793 l 256 498 l 509 498 l 523 479 q 508 459 516 469 q 490 439 499 449 q 472 421 481 429 q 456 406 463 412 q 433 425 446 418 q 403 437 421 433 q 359 442 385 442 q 295 442 333 442 l 248 442 l 202 104 q 204 86 201 94 q 220 72 208 78 q 258 64 233 67 q 323 61 282 61 l 405 61 q 453 64 433 61 q 489 79 473 67 q 519 114 505 91 q 553 177 534 137 l 580 165 m 632 1048 q 626 1031 630 1040 q 616 1012 621 1021 q 606 994 611 1002 q 598 980 602 985 l 226 980 l 215 996 q 222 1012 218 1002 q 230 1030 226 1021 q 239 1049 235 1040 q 248 1065 244 1058 l 619 1065 l 632 1048 "},"!":{"x_min":35,"x_max":302.546875,"ha":278,"o":"m 192 103 q 184 60 192 82 q 164 20 177 38 q 133 -9 151 2 q 91 -21 114 -21 q 49 -2 64 -21 q 35 46 35 15 q 42 87 35 65 q 64 126 50 108 q 96 155 78 143 q 136 167 114 167 q 176 149 161 167 q 192 103 192 131 m 169 264 q 146 248 156 254 q 119 237 136 242 l 103 251 l 161 909 q 185 926 171 916 q 215 945 199 935 q 247 962 231 954 q 278 974 263 970 l 302 957 l 169 264 "},"ç":{"x_min":36,"x_max":551.546875,"ha":539,"o":"m 323 -149 q 301 -215 323 -185 q 247 -262 280 -245 q 171 -279 213 -279 q 89 -254 129 -279 l 89 -228 q 151 -246 123 -246 q 198 -237 179 -246 q 227 -213 217 -229 q 237 -182 237 -198 q 221 -154 237 -164 q 173 -145 205 -145 q 189 -101 183 -120 q 200 -65 196 -82 q 209 -32 205 -48 l 210 -28 l 201 -28 q 150 -16 178 -28 q 96 23 121 -4 q 53 99 70 52 q 36 218 36 147 q 45 312 36 263 q 76 407 55 360 q 131 495 97 453 q 216 571 166 537 q 258 594 235 583 q 306 615 281 606 q 355 629 331 624 q 400 635 379 635 q 453 623 430 635 q 495 597 476 612 q 527 569 513 582 q 551 553 541 556 q 521 531 537 542 q 490 510 505 519 q 462 495 475 501 q 440 489 449 489 q 422 500 432 489 q 396 526 411 512 q 363 552 381 540 q 323 564 345 564 q 266 549 292 564 q 219 508 240 534 q 182 450 198 483 q 156 382 166 417 q 140 310 145 346 q 135 242 135 274 q 144 163 135 198 q 172 102 154 127 q 214 64 189 78 q 267 51 238 51 q 299 55 280 51 q 342 70 318 59 q 398 100 367 81 q 465 149 428 119 q 476 134 470 142 q 486 121 483 127 q 391 44 433 73 q 314 0 349 14 q 258 -21 284 -15 q 253 -43 255 -34 q 245 -78 249 -60 q 301 -97 279 -78 q 323 -149 323 -116 "},"È":{"x_min":-0.203125,"x_max":634.5625,"ha":642,"o":"m 580 165 q 552 63 566 106 q 531 0 538 19 l 0 0 l 3 29 q 72 49 46 38 q 99 70 98 61 l 198 783 q 178 803 199 791 q 113 825 157 816 l 117 855 l 617 855 l 634 837 q 626 799 631 820 q 614 757 621 778 q 601 717 608 736 q 588 685 594 698 l 559 685 q 562 737 562 716 q 557 770 562 757 q 544 787 552 782 q 523 793 536 793 l 296 793 l 256 498 l 509 498 l 523 479 q 508 459 516 469 q 490 439 499 449 q 472 421 481 429 q 456 406 463 412 q 433 425 446 418 q 403 437 421 433 q 359 442 385 442 q 295 442 333 442 l 248 442 l 202 104 q 204 86 201 94 q 220 72 208 78 q 258 64 233 67 q 323 61 282 61 l 405 61 q 453 64 433 61 q 489 79 473 67 q 519 114 505 91 q 553 177 534 137 l 580 165 m 503 945 q 487 925 493 931 q 471 913 481 919 l 199 1078 l 207 1110 q 224 1122 213 1115 q 247 1135 235 1129 q 271 1148 259 1142 q 290 1158 282 1154 l 503 945 "},"ﬁ":{"x_min":-68,"x_max":705,"ha":721,"o":"m 705 855 q 699 818 705 836 q 682 784 693 799 q 656 759 671 769 q 621 750 640 750 q 589 762 600 750 q 578 797 578 774 q 584 834 578 815 q 600 868 590 853 q 626 894 611 884 q 661 904 642 904 q 693 891 682 904 q 705 855 705 878 m 612 951 q 582 929 598 941 q 550 907 566 917 q 521 891 534 897 q 500 885 508 885 q 482 896 491 885 q 463 923 473 908 q 437 949 452 937 q 404 961 423 961 q 359 945 378 961 q 324 905 339 930 q 298 846 309 879 q 279 778 287 813 q 267 708 272 743 q 259 645 262 674 l 255 614 l 463 614 q 508 617 486 614 q 549 624 530 620 q 582 631 568 628 q 604 635 597 635 q 630 622 622 635 q 639 578 639 609 q 633 520 639 558 q 620 434 628 481 q 604 334 612 386 q 587 235 595 282 q 574 149 579 187 q 569 91 569 110 q 573 60 569 70 q 589 51 577 51 q 629 56 610 51 q 676 73 648 61 l 686 48 q 629 15 654 29 q 582 -8 603 1 q 545 -23 561 -18 q 513 -28 528 -28 q 476 -6 490 -28 q 463 51 463 14 q 468 109 463 71 q 480 192 473 146 q 497 288 488 238 q 513 383 505 338 q 525 464 520 428 q 531 515 531 499 q 530 525 531 522 q 499 547 522 542 q 428 553 476 553 l 248 553 l 199 130 q 169 -13 191 55 q 116 -143 148 -83 q 41 -250 83 -203 q -50 -329 0 -298 l -68 -286 q -6 -226 -34 -267 q 41 -133 20 -186 q 75 -20 62 -80 q 95 94 89 38 l 148 553 l 45 553 l 35 574 l 103 614 l 155 614 q 171 718 161 668 q 197 813 180 768 q 241 896 214 857 q 311 967 269 935 q 347 992 330 980 q 381 1012 364 1003 q 418 1026 399 1021 q 457 1031 436 1031 q 511 1019 487 1031 q 554 994 535 1008 q 588 967 573 980 q 612 951 602 954 "},"X":{"x_min":-14.0625,"x_max":814.34375,"ha":793,"o":"m 735 0 l 456 0 l 460 28 q 505 36 487 31 q 531 46 523 40 q 540 62 540 53 q 533 85 540 72 l 392 371 l 194 84 q 192 42 173 54 q 268 31 212 31 l 264 0 l -14 0 l -10 28 q 61 44 30 32 q 110 85 91 57 l 357 443 l 198 768 q 182 792 190 783 q 164 808 175 802 q 140 818 154 814 q 106 825 127 821 l 110 854 l 389 854 l 385 825 q 314 809 332 819 q 310 768 295 798 l 432 520 l 606 768 q 617 794 617 784 q 606 810 617 804 q 577 820 596 817 q 531 824 558 824 l 535 855 l 814 855 l 810 825 q 770 818 787 822 q 738 808 752 815 q 711 792 723 802 q 689 768 699 782 l 466 451 l 647 85 q 663 61 654 71 q 683 45 671 52 q 708 35 694 39 q 739 28 722 31 l 735 0 "},"ô":{"x_min":36,"x_max":550,"ha":586,"o":"m 453 342 q 415 500 453 445 q 307 556 377 556 q 225 527 258 556 q 171 456 192 499 q 142 364 151 414 q 134 270 134 314 q 145 184 134 225 q 176 114 156 144 q 223 66 196 83 q 280 48 249 48 q 336 62 312 48 q 380 99 361 76 q 413 153 400 123 q 436 216 427 183 q 448 281 444 249 q 453 342 453 314 m 550 379 q 539 287 550 333 q 510 196 529 240 q 461 113 490 153 q 394 42 432 73 q 357 15 377 28 q 317 -7 337 2 q 276 -22 297 -17 q 234 -28 255 -28 q 150 -7 187 -28 q 87 46 113 12 q 49 129 62 81 q 36 233 36 177 q 44 327 36 282 q 70 414 52 372 q 119 495 88 456 q 194 569 149 533 q 270 616 229 597 q 354 635 311 635 q 444 616 406 635 q 504 563 481 597 q 539 482 528 529 q 550 379 550 435 m 539 726 q 525 706 530 713 q 509 696 520 700 l 368 875 l 183 696 q 172 706 177 700 q 161 726 167 713 l 353 978 l 415 978 l 539 726 "},"Ė":{"x_min":0,"x_max":634.5625,"ha":641,"o":"m 580 165 q 552 63 566 106 q 531 0 539 19 l 0 0 l 4 29 q 72 49 46 38 q 99 70 98 61 l 198 783 q 179 803 200 791 q 113 825 158 816 l 118 855 l 617 855 l 634 837 q 626 799 631 820 q 614 757 621 778 q 601 717 608 736 q 588 685 594 698 l 559 685 q 562 737 562 716 q 557 770 562 757 q 544 787 552 782 q 523 793 536 793 l 296 793 l 256 498 l 510 498 l 523 479 q 508 459 516 469 q 490 439 500 449 q 473 421 481 429 q 457 406 464 412 q 434 425 446 418 q 404 437 422 433 q 359 442 386 442 q 295 442 333 442 l 248 442 l 202 104 q 204 86 201 94 q 221 72 208 78 q 258 64 233 67 q 323 61 282 61 l 405 61 q 453 64 434 61 q 489 79 473 67 q 520 114 505 91 q 553 177 535 137 l 580 165 m 482 1051 q 476 1013 482 1031 q 459 979 470 994 q 432 954 448 964 q 398 945 417 945 q 365 957 377 945 q 354 992 354 969 q 360 1029 354 1010 q 377 1063 366 1048 q 403 1089 388 1079 q 437 1099 418 1099 q 470 1086 458 1099 q 482 1051 482 1074 "},"Ā":{"x_min":-23.734375,"x_max":726.3125,"ha":778,"o":"m 251 301 l 154 75 q 165 45 145 54 q 237 29 185 36 l 233 0 l -23 0 l -19 29 q 48 46 23 37 q 83 75 74 56 l 413 834 q 434 850 422 842 q 459 866 446 859 q 484 881 472 874 q 505 893 496 889 l 651 75 q 656 59 653 66 q 668 46 660 51 q 690 36 676 40 q 726 29 704 32 l 723 0 l 462 0 l 465 31 q 534 42 513 31 q 551 75 555 54 l 512 301 l 251 301 m 501 363 l 437 732 l 278 363 l 501 363 m 703 1048 q 697 1031 701 1040 q 688 1012 693 1021 q 678 994 682 1002 q 670 980 673 985 l 297 980 l 286 996 q 293 1012 289 1002 q 302 1030 297 1021 q 311 1049 306 1040 q 320 1065 316 1058 l 691 1065 l 703 1048 "},"ċ":{"x_min":36,"x_max":551.84375,"ha":540,"o":"m 551 553 q 521 531 537 542 q 490 510 505 519 q 462 495 475 501 q 440 489 449 489 q 422 500 433 489 q 396 526 411 512 q 363 552 382 540 q 323 564 345 564 q 266 549 292 564 q 219 508 240 534 q 182 450 198 483 q 156 382 166 417 q 140 310 145 346 q 135 242 135 274 q 144 163 135 198 q 172 102 154 127 q 214 64 190 78 q 268 51 238 51 q 299 55 280 51 q 343 70 318 59 q 398 100 367 81 q 465 149 429 119 q 477 134 471 142 q 486 121 483 127 q 391 44 433 73 q 315 -1 349 14 q 253 -22 281 -17 q 201 -28 226 -28 q 150 -16 178 -28 q 96 23 121 -4 q 53 99 70 52 q 36 218 36 147 q 45 312 36 263 q 76 407 55 360 q 132 495 97 453 q 216 571 166 537 q 258 594 235 583 q 306 615 281 606 q 355 629 331 624 q 400 635 379 635 q 453 623 430 635 q 495 597 477 612 q 527 569 513 582 q 551 553 541 556 m 444 855 q 438 818 444 836 q 421 784 432 799 q 394 759 410 769 q 360 750 379 750 q 327 762 339 750 q 316 797 316 774 q 322 834 316 815 q 339 868 328 853 q 365 894 350 884 q 399 904 380 904 q 432 891 420 904 q 444 855 444 878 "},"đ":{"x_min":36,"x_max":709.875,"ha":657,"o":"m 421 287 q 435 379 427 328 q 453 489 444 431 q 428 514 442 501 q 400 538 415 528 q 368 556 384 549 q 332 563 351 563 q 273 548 300 563 q 224 507 247 532 q 184 450 201 482 q 154 384 166 418 q 135 316 141 349 q 129 256 129 283 q 138 177 129 212 q 162 117 147 142 q 196 78 177 92 q 234 65 215 65 q 275 81 253 65 q 322 129 298 98 q 371 199 346 159 q 421 287 397 240 m 626 46 q 532 -10 569 7 q 472 -28 495 -28 q 448 -17 459 -28 q 430 18 438 -6 q 417 85 422 43 q 413 190 413 128 q 363 108 389 147 q 307 38 336 69 q 247 -10 277 7 q 187 -28 216 -28 q 137 -14 164 -28 q 88 29 111 0 q 50 104 65 58 q 36 213 36 150 q 47 317 36 266 q 82 413 59 367 q 141 499 105 459 q 225 570 177 538 q 266 594 244 582 q 311 613 288 605 q 357 627 334 622 q 401 633 380 633 q 436 622 418 633 q 471 597 453 611 q 483 677 477 638 q 495 754 490 717 l 310 754 l 297 770 q 307 793 301 781 q 318 815 312 805 l 503 815 q 508 870 506 845 q 511 912 511 895 q 508 937 511 928 q 501 950 506 946 q 492 956 497 955 q 480 958 486 958 q 463 954 474 958 q 439 948 451 951 q 408 939 425 944 l 400 966 q 457 990 429 979 q 511 1011 486 1002 q 554 1025 535 1020 q 581 1031 573 1031 q 609 1018 600 1031 q 619 975 619 1006 q 614 907 619 949 q 602 815 609 865 l 696 815 l 709 800 l 688 754 l 592 754 q 575 648 584 703 q 556 539 565 593 q 538 433 547 484 q 523 337 529 381 q 513 258 517 292 q 509 202 509 223 q 516 88 509 124 q 539 53 523 53 q 575 56 556 53 q 617 70 593 60 l 626 46 "},"}":{"x_min":-55.15625,"x_max":378.1875,"ha":435,"o":"m 378 441 q 256 379 300 420 q 205 286 212 338 q 201 239 201 258 q 201 204 201 219 q 203 175 201 188 q 205 145 205 161 q 205 110 205 129 q 200 62 205 90 q 174 -23 194 16 q 122 -98 154 -63 q 49 -161 90 -132 q -42 -213 7 -190 l -55 -180 q -3 -143 -28 -164 q 40 -97 21 -122 q 72 -41 59 -71 q 89 23 85 -11 q 94 69 94 50 q 94 104 94 88 q 93 135 94 120 q 92 165 92 149 q 92 200 92 181 q 96 247 92 220 q 111 302 100 275 q 141 353 123 329 q 182 396 159 377 q 235 428 206 415 q 184 450 204 434 q 154 488 164 465 q 144 542 144 511 q 149 611 144 573 q 162 679 154 651 q 177 733 169 708 q 192 783 185 758 q 204 842 199 808 q 210 909 210 880 q 200 961 210 938 q 172 1004 191 985 q 122 1043 153 1023 l 144 1084 q 228 1037 194 1062 q 282 980 262 1011 q 308 910 302 949 q 307 823 314 872 q 294 757 301 783 q 278 706 286 730 q 262 655 270 682 q 249 586 254 627 q 262 503 240 531 q 330 475 283 475 l 342 475 q 350 475 347 475 q 358 476 353 475 q 372 479 362 477 l 378 441 "},"â":{"x_min":36,"x_max":611.359375,"ha":626,"o":"m 409 292 q 419 355 414 322 q 431 419 425 388 q 441 475 437 449 q 448 515 446 500 q 426 532 438 523 q 400 548 414 540 q 370 559 386 555 q 339 564 355 564 q 280 548 308 564 q 229 508 253 533 q 187 450 206 483 q 156 384 169 418 q 136 316 143 350 q 129 257 129 283 q 136 177 129 213 q 156 117 143 142 q 187 78 169 92 q 225 65 205 65 q 265 85 241 65 q 314 139 288 106 q 364 212 339 172 q 409 292 389 253 m 611 45 q 516 -10 552 7 q 460 -28 479 -28 q 436 -19 448 -28 q 416 12 425 -11 q 403 77 408 35 q 398 184 398 118 q 354 116 380 153 q 300 47 329 79 q 240 -6 271 14 q 180 -28 209 -28 q 132 -15 158 -28 q 85 25 107 -2 q 50 98 64 54 q 36 206 36 143 q 48 311 36 260 q 86 409 61 362 q 147 497 111 456 q 232 571 183 538 q 272 594 250 583 q 317 615 294 606 q 364 629 341 624 q 408 635 387 635 q 436 631 422 635 q 462 621 449 627 q 487 608 475 615 q 508 594 498 601 q 542 616 524 605 q 578 635 559 626 l 591 611 q 572 594 580 601 q 559 577 565 586 q 549 552 553 567 q 540 515 545 538 q 521 415 530 466 q 505 318 512 364 q 495 238 499 273 q 492 188 492 203 q 494 123 492 150 q 500 81 496 97 q 510 58 504 65 q 525 51 517 51 q 557 54 538 51 q 603 70 576 58 l 611 45 m 570 726 q 556 706 561 712 q 540 696 551 700 l 399 875 l 213 696 q 203 706 207 700 q 191 726 198 712 l 384 978 l 446 978 l 570 726 "},"ø":{"x_min":-9.4375,"x_max":594.75,"ha":586,"o":"m 134 270 q 137 219 134 244 q 148 172 141 194 l 415 500 q 307 556 377 556 q 225 527 258 556 q 171 456 192 499 q 142 364 151 414 q 134 270 134 314 m 453 342 q 441 440 453 396 l 176 114 q 222 66 195 83 q 280 48 249 48 q 336 62 312 48 q 380 99 361 76 q 413 153 400 123 q 436 216 427 183 q 448 281 444 249 q 453 342 453 314 m 550 379 q 539 287 550 333 q 510 197 529 240 q 461 113 490 153 q 394 42 432 73 q 357 15 377 28 q 317 -7 337 2 q 276 -22 297 -17 q 234 -28 255 -28 q 161 -13 194 -28 q 104 27 129 1 l 86 5 q 69 -7 80 0 q 46 -21 58 -14 q 23 -33 34 -28 q 4 -41 12 -39 l -9 -21 l 70 76 q 44 148 53 109 q 36 233 36 188 q 44 327 36 282 q 70 414 52 372 q 119 495 88 456 q 194 569 149 533 q 270 616 229 597 q 354 635 311 635 q 429 622 396 635 q 484 587 461 610 l 498 603 q 538 629 517 614 q 579 649 560 644 l 594 628 l 520 536 q 542 465 535 505 q 550 379 550 425 "},"ŋ":{"x_min":27.65625,"x_max":597,"ha":670,"o":"m 597 516 q 594 471 597 500 q 586 402 591 441 q 574 317 581 363 q 560 222 567 271 q 543 124 552 173 q 525 29 534 75 q 495 -84 512 -36 q 455 -169 477 -133 q 406 -234 433 -206 q 349 -288 380 -262 q 309 -313 331 -304 q 266 -329 287 -323 q 227 -337 245 -335 q 197 -340 209 -340 q 152 -332 178 -340 q 103 -314 127 -324 q 64 -293 80 -304 q 48 -276 48 -282 q 56 -253 48 -267 q 77 -225 65 -239 q 102 -202 89 -212 q 122 -193 114 -193 q 140 -203 128 -193 q 168 -227 151 -214 q 207 -251 185 -240 q 254 -262 229 -262 q 314 -247 288 -262 q 359 -202 339 -233 q 392 -123 378 -171 q 420 -7 407 -75 q 450 155 437 77 q 473 299 463 234 q 487 409 482 363 q 493 474 493 455 q 482 546 493 526 q 441 567 471 567 q 410 556 432 567 q 360 523 388 545 q 302 469 332 501 q 247 393 272 436 q 215 315 228 360 q 190 203 203 269 q 179 100 179 143 q 179 16 179 56 q 155 6 168 11 q 128 -5 142 0 q 101 -17 114 -11 q 80 -28 88 -23 l 58 -7 q 76 89 67 37 q 94 194 86 142 q 110 298 103 247 q 123 392 118 349 q 131 468 128 435 q 135 516 135 500 q 133 541 135 532 q 128 554 131 550 q 120 560 125 559 q 109 562 115 562 q 91 559 103 562 q 67 553 79 556 q 37 544 53 549 l 27 571 q 84 594 56 583 q 138 615 113 606 q 182 629 163 624 q 208 635 200 635 q 223 631 218 635 q 231 620 229 628 q 234 597 234 612 q 234 558 234 582 q 234 537 234 550 q 234 510 234 524 q 231 481 234 495 q 229 459 229 467 q 303 539 265 505 q 376 593 340 572 q 445 625 412 615 q 509 635 479 635 q 547 628 530 635 q 574 608 563 622 q 591 572 585 594 q 597 516 597 549 "},"‰":{"x_min":70.25,"x_max":1229,"ha":1299,"o":"m 1136 262 q 1115 353 1136 324 q 1065 383 1094 383 q 1028 370 1044 383 q 1001 336 1013 357 q 981 289 989 315 q 969 237 973 263 q 963 187 965 211 q 961 146 961 162 q 980 62 961 89 q 1032 35 1000 35 q 1067 47 1051 35 q 1094 79 1083 59 q 1113 123 1106 98 q 1126 174 1121 148 q 1133 222 1131 199 q 1136 262 1136 245 m 1229 255 q 1213 162 1229 211 q 1167 72 1197 113 q 1098 5 1138 31 q 1008 -21 1057 -21 q 949 -6 975 -21 q 906 32 924 7 q 878 90 888 57 q 869 164 869 124 q 876 225 869 193 q 896 287 883 257 q 929 345 910 318 q 973 393 949 373 q 1027 426 998 414 q 1089 439 1056 439 q 1148 425 1122 439 q 1192 386 1174 411 q 1219 328 1209 361 q 1229 255 1229 294 m 729 262 q 708 353 729 324 q 658 383 687 383 q 621 370 637 383 q 594 336 606 357 q 574 289 582 315 q 562 237 566 263 q 556 187 558 211 q 554 146 554 162 q 573 62 554 89 q 625 35 593 35 q 660 47 644 35 q 687 79 676 59 q 706 123 699 98 q 719 174 714 148 q 726 222 724 199 q 729 262 729 245 m 822 255 q 806 162 822 211 q 760 72 790 113 q 691 5 731 31 q 601 -21 650 -21 q 542 -6 568 -21 q 499 32 517 7 q 471 90 481 57 q 462 164 462 124 q 469 225 462 193 q 489 287 476 257 q 522 345 503 318 q 566 393 542 373 q 620 426 591 414 q 682 439 649 439 q 741 425 715 439 q 785 386 767 411 q 812 328 802 361 q 822 255 822 294 m 173 11 q 155 1 166 6 q 129 -8 143 -3 q 103 -16 116 -12 q 83 -23 91 -20 l 70 0 l 723 805 q 767 825 742 817 q 811 839 792 833 l 828 816 l 173 11 m 343 661 q 322 752 343 723 q 270 782 301 782 q 234 769 249 782 q 206 735 218 756 q 187 688 195 714 q 175 636 179 662 q 169 585 171 610 q 167 545 167 561 q 187 461 167 488 q 238 434 207 434 q 273 446 258 434 q 301 478 289 458 q 320 522 312 497 q 333 573 328 547 q 340 621 338 598 q 343 661 343 644 m 435 654 q 427 593 435 624 q 407 530 420 561 q 374 472 393 500 q 330 423 354 444 q 276 390 305 402 q 213 378 246 378 q 155 392 180 378 q 112 431 130 406 q 84 489 94 456 q 75 562 75 523 q 82 624 75 592 q 102 686 89 656 q 135 744 116 717 q 179 792 155 772 q 233 825 204 813 q 295 838 262 838 q 354 824 328 838 q 398 785 380 810 q 425 727 415 760 q 435 654 435 693 "},"Ä":{"x_min":-23.765625,"x_max":726.4375,"ha":778,"o":"m 251 301 l 154 75 q 165 45 145 54 q 237 29 185 36 l 233 0 l -23 0 l -19 29 q 48 46 23 37 q 83 75 74 56 l 413 833 q 434 850 422 841 q 459 866 446 858 q 484 881 472 874 q 505 893 496 888 l 651 75 q 656 59 653 66 q 668 46 660 51 q 690 36 676 40 q 726 29 704 32 l 723 0 l 462 0 l 465 31 q 534 42 513 31 q 551 75 555 54 l 512 301 l 251 301 m 501 363 l 437 732 l 278 363 l 501 363 m 428 1050 q 421 1013 428 1031 q 404 979 415 994 q 378 954 394 964 q 343 945 362 945 q 309 957 321 945 q 297 992 297 969 q 303 1029 297 1010 q 321 1063 309 1048 q 348 1089 332 1079 q 383 1099 364 1099 q 416 1086 404 1099 q 428 1050 428 1073 m 681 1051 q 674 1013 681 1032 q 657 979 668 994 q 630 954 646 964 q 594 945 614 945 q 561 957 573 945 q 550 992 550 969 q 556 1029 550 1011 q 573 1064 562 1048 q 599 1089 583 1079 q 634 1099 615 1099 q 668 1086 655 1099 q 681 1051 681 1074 "},"ř":{"x_min":27.859375,"x_max":538.8125,"ha":493,"o":"m 520 576 q 502 550 512 565 q 482 520 492 534 q 464 495 473 505 q 448 485 455 485 q 426 492 435 485 q 409 508 417 499 q 393 524 401 517 q 375 532 386 532 q 334 507 358 532 q 287 444 310 483 q 242 357 263 405 q 206 259 220 308 q 192 203 198 234 q 182 139 186 172 q 178 75 178 107 q 178 16 178 44 q 155 6 168 12 q 128 -5 142 0 q 101 -17 114 -11 q 80 -27 88 -23 l 58 -6 q 78 92 68 41 q 96 195 87 144 q 111 295 104 246 q 123 386 118 344 q 131 461 128 428 q 135 515 135 495 q 132 540 135 531 q 126 553 130 549 q 117 559 122 558 q 107 561 112 561 q 88 558 100 561 q 65 552 77 556 q 37 544 52 549 l 27 569 q 85 594 56 582 q 139 615 114 606 q 183 629 164 624 q 209 635 201 635 q 224 631 219 635 q 232 619 230 628 q 235 595 235 611 q 235 556 235 580 q 233 531 235 549 q 228 493 231 514 q 223 452 225 472 q 218 419 220 432 q 279 528 250 486 q 335 594 308 570 q 384 626 361 618 q 430 635 408 635 q 452 628 442 635 q 472 611 462 621 q 494 592 482 602 q 520 576 505 582 m 348 712 l 286 712 l 159 950 q 174 967 169 963 q 190 980 180 972 l 331 815 l 517 980 q 528 968 525 973 q 538 950 532 963 l 348 712 "},"—":{"x_min":29.15625,"x_max":981.984375,"ha":1024,"o":"m 981 367 q 969 336 977 352 q 954 309 961 320 l 41 309 l 29 325 q 42 355 34 340 q 58 384 50 370 l 969 384 l 981 367 "},"N":{"x_min":0,"x_max":877.546875,"ha":840,"o":"m 873 825 q 806 806 828 818 q 781 783 783 794 l 670 -21 q 644 -16 656 -19 q 623 -8 633 -13 q 606 6 614 -2 q 590 30 598 15 l 252 681 l 169 70 q 186 49 167 62 q 251 29 205 36 l 247 0 l 0 0 l 4 29 q 72 48 50 35 q 96 70 95 61 l 195 782 q 157 811 178 803 q 107 825 136 820 l 111 854 l 231 854 q 255 854 246 854 q 270 848 263 854 q 282 832 276 843 q 298 801 288 821 l 626 175 l 710 783 q 706 793 710 787 q 692 804 702 799 q 666 816 682 810 q 626 825 650 821 l 630 855 l 877 855 l 873 825 "},"⁄":{"x_min":93.59375,"x_max":739.203125,"ha":753,"o":"m 165 2 q 136 -10 149 -5 q 105 -20 123 -15 l 93 0 l 669 816 q 697 828 681 821 q 726 837 712 834 l 739 818 l 165 2 "},"2":{"x_min":0.296875,"x_max":531.984375,"ha":558,"o":"m 531 682 q 512 588 531 640 q 446 466 494 537 q 317 301 399 396 q 111 78 236 206 l 365 78 q 384 83 376 78 q 400 97 392 88 q 414 117 408 106 q 426 140 420 128 q 445 202 438 167 l 475 194 l 440 0 l 9 0 l 0 50 q 207 267 123 172 q 341 436 290 362 q 413 565 391 510 q 435 662 435 620 q 404 742 435 711 q 317 774 373 774 q 271 761 291 774 q 235 727 250 748 q 210 682 220 707 q 197 633 200 657 q 177 622 186 627 q 158 612 168 616 q 138 604 149 607 q 114 600 128 601 l 99 620 q 129 694 104 656 q 191 764 154 732 q 274 817 228 796 q 367 838 320 838 q 430 828 401 838 q 483 800 460 819 q 518 752 505 781 q 531 682 531 723 "},"ü":{"x_min":26.390625,"x_max":660.9375,"ha":693,"o":"m 660 45 q 568 -9 606 9 q 505 -28 530 -28 q 479 -16 492 -28 q 458 22 467 -4 q 445 93 449 50 q 442 201 442 137 q 386 109 416 151 q 321 36 355 66 q 253 -11 288 5 q 181 -28 218 -28 q 150 -17 168 -28 q 118 14 133 -6 q 92 66 103 35 q 82 138 82 97 q 85 190 82 159 q 94 257 89 221 q 107 332 100 293 q 119 406 113 370 q 128 470 124 441 q 132 515 132 499 q 129 540 132 531 q 124 553 127 549 q 115 559 120 558 q 104 561 110 561 q 86 558 98 561 q 63 552 75 556 q 34 544 50 549 l 26 569 q 83 594 54 582 q 136 615 112 606 q 179 629 161 624 q 206 635 198 635 q 233 622 226 635 q 240 577 240 609 q 235 526 240 558 q 225 456 231 494 q 212 377 219 418 q 200 299 206 337 q 190 229 194 261 q 186 177 186 197 q 199 83 186 112 q 238 54 213 54 q 274 67 252 54 q 325 109 297 80 q 387 187 353 139 q 456 303 420 234 q 466 361 461 332 q 476 418 472 391 q 484 471 481 446 q 488 515 488 495 q 486 540 488 531 q 481 553 484 549 q 473 559 477 558 q 462 561 468 561 q 445 558 456 561 q 424 552 435 556 q 398 544 412 549 l 388 569 q 444 594 416 582 q 496 615 472 606 q 537 629 519 624 q 563 635 554 635 q 588 622 582 635 q 595 577 595 609 q 590 526 595 558 q 580 457 586 495 q 567 378 574 419 q 553 299 559 337 q 543 227 547 261 q 539 171 539 194 q 547 80 539 110 q 573 51 556 51 q 609 55 591 51 q 651 70 627 60 l 660 45 m 353 855 q 346 818 353 836 q 329 784 340 799 q 303 759 319 769 q 268 750 287 750 q 234 762 246 750 q 222 797 222 774 q 228 834 222 815 q 246 868 234 853 q 273 894 257 884 q 308 904 289 904 q 341 891 329 904 q 353 855 353 878 m 606 855 q 599 818 606 836 q 582 784 593 799 q 555 759 571 769 q 519 750 539 750 q 486 762 498 750 q 475 797 475 774 q 481 834 475 815 q 498 868 487 853 q 524 894 508 884 q 559 904 540 904 q 593 891 580 904 q 606 855 606 878 "},"˜":{"x_min":83.421875,"x_max":518.125,"ha":467,"o":"m 518 899 q 485 845 503 872 q 446 796 467 818 q 401 762 425 775 q 351 749 377 749 q 312 760 329 749 q 279 786 295 772 q 247 811 263 799 q 213 823 231 823 q 165 801 189 823 q 112 742 141 780 l 83 756 q 115 810 97 783 q 154 858 133 836 q 200 892 176 879 q 250 906 225 906 q 291 894 273 906 q 326 869 310 882 q 357 843 343 855 q 385 832 371 832 q 435 853 409 832 q 487 912 461 874 l 518 899 "},"Ó":{"x_min":61,"x_max":736,"ha":757,"o":"m 635 512 q 622 620 635 569 q 586 708 610 670 q 528 767 563 745 q 449 790 493 790 q 356 770 397 790 q 283 716 315 750 q 229 639 251 683 q 192 547 206 595 q 170 452 177 500 q 164 360 164 403 q 177 243 164 297 q 214 151 190 190 q 273 90 239 112 q 349 68 307 68 q 443 89 402 68 q 517 144 485 110 q 571 225 548 179 q 607 320 593 271 q 628 420 622 370 q 635 512 635 470 m 736 525 q 728 427 736 476 q 704 329 720 377 q 665 236 688 281 q 611 152 641 191 q 550 84 582 116 q 481 29 518 52 q 405 -7 445 6 q 319 -21 364 -21 q 205 6 254 -21 q 125 82 157 34 q 76 194 92 130 q 61 328 61 257 q 68 419 61 371 q 91 515 76 467 q 126 608 105 563 q 174 690 147 653 q 236 762 203 728 q 306 820 269 795 q 387 860 344 845 q 478 875 430 875 q 593 847 544 875 q 673 771 642 819 q 720 659 705 723 q 736 525 736 596 m 703 1078 l 394 913 q 381 925 385 919 q 372 944 378 931 l 637 1158 l 653 1148 q 671 1135 661 1142 q 690 1121 681 1128 q 703 1110 698 1115 l 703 1078 "},"ˇ":{"x_min":99.6875,"x_max":478.78125,"ha":378,"o":"m 288 712 l 226 712 l 99 950 q 114 967 109 963 q 130 980 120 972 l 271 815 l 457 980 q 468 968 465 973 q 478 950 472 963 l 288 712 "},"Ÿ":{"x_min":69.234375,"x_max":816.734375,"ha":777,"o":"m 497 0 l 194 0 l 198 29 q 281 55 257 42 q 307 77 305 68 l 347 373 q 315 480 335 423 q 272 593 295 537 q 224 698 248 649 q 176 782 199 748 q 161 798 169 792 q 142 807 154 804 q 115 811 131 811 q 75 808 99 811 l 69 837 q 109 847 87 842 q 153 856 131 852 q 194 863 175 860 q 226 866 213 866 q 261 839 244 866 q 292 785 276 816 q 325 720 308 755 q 357 649 341 685 q 385 578 372 613 q 408 512 398 543 q 424 459 418 482 l 633 780 q 629 809 645 799 q 568 825 614 818 l 572 855 l 816 855 l 812 825 q 745 807 769 816 q 710 780 721 798 l 445 367 l 405 77 q 409 68 405 73 q 425 55 413 62 q 454 42 436 48 q 501 29 473 35 l 497 0 m 422 1051 q 415 1013 422 1032 q 398 979 409 994 q 372 954 388 964 q 337 945 356 945 q 303 957 315 945 q 291 992 291 969 q 297 1029 291 1010 q 315 1064 303 1048 q 342 1089 326 1079 q 377 1099 358 1099 q 410 1086 398 1099 q 422 1051 422 1074 m 675 1051 q 668 1013 675 1032 q 651 979 662 994 q 624 954 640 964 q 588 945 608 945 q 555 957 567 945 q 544 992 544 969 q 550 1029 544 1010 q 567 1064 556 1048 q 593 1089 577 1079 q 628 1099 609 1099 q 662 1086 649 1099 q 675 1051 675 1074 "},"€":{"x_min":-10.421875,"x_max":587.796875,"ha":559,"o":"m 353 316 l 153 316 q 163 196 153 245 q 195 118 174 148 q 244 74 215 88 q 304 61 272 61 q 342 66 323 61 q 383 85 360 72 q 432 120 405 98 q 494 173 459 142 q 500 167 497 172 q 505 158 502 163 q 509 149 507 153 q 513 143 511 145 q 436 65 470 97 q 372 15 402 34 q 313 -11 342 -3 q 250 -20 283 -20 q 167 0 205 -20 q 103 61 129 19 q 66 165 78 102 q 54 316 54 229 l 0 316 l -10 333 l -1 354 q 8 378 3 367 l 63 378 l 63 378 q 64 380 64 379 q 70 424 67 402 q 78 466 74 445 l 39 466 l 28 483 l 37 504 q 47 528 41 517 l 95 528 q 152 662 118 604 q 229 759 186 720 q 322 818 272 798 q 429 838 373 838 q 483 832 460 838 q 524 817 506 827 q 557 796 542 808 q 587 769 572 784 q 582 756 589 766 q 564 733 576 746 q 541 707 553 720 q 520 686 528 694 l 500 690 q 474 719 486 706 q 448 742 462 732 q 414 757 433 752 q 367 763 395 763 q 322 752 347 763 q 273 716 298 742 q 225 644 248 690 q 184 528 202 598 l 400 528 l 414 512 l 392 466 l 171 466 q 166 436 169 451 q 162 405 164 421 q 160 391 161 398 l 159 378 l 361 378 l 375 362 l 353 316 "},"Ŭ":{"x_min":113.796875,"x_max":871.515625,"ha":832,"o":"m 867 825 q 800 804 824 815 q 775 783 777 792 l 714 347 q 673 189 702 258 q 601 73 644 120 q 501 3 557 27 q 377 -21 444 -21 q 275 -4 321 -21 q 195 45 229 12 q 144 125 162 78 q 126 236 126 173 q 132 313 126 271 l 198 783 q 178 803 199 791 q 113 825 157 815 l 117 854 l 395 854 l 391 825 q 322 804 348 815 q 294 783 296 792 l 234 345 q 232 306 232 325 q 232 268 232 286 q 243 182 232 221 q 277 116 255 144 q 334 73 300 88 q 412 58 368 58 q 493 79 456 58 q 558 137 530 101 q 606 220 587 173 q 631 317 624 266 l 693 783 q 676 803 695 791 q 613 825 657 815 l 617 855 l 871 855 l 867 825 m 739 1122 q 686 1030 714 1067 q 630 971 659 993 q 573 938 602 948 q 518 929 545 929 q 462 938 488 929 q 414 971 436 948 q 375 1031 392 994 q 347 1122 358 1068 q 365 1140 356 1134 q 384 1152 374 1146 q 410 1088 394 1114 q 445 1047 425 1063 q 485 1024 464 1031 q 526 1017 506 1017 q 571 1024 547 1017 q 620 1047 596 1031 q 667 1088 644 1063 q 710 1152 690 1114 q 726 1141 719 1146 q 739 1122 732 1135 "},"ĝ":{"x_min":-3,"x_max":596.5625,"ha":618,"o":"m 229 65 q 268 87 243 65 q 320 148 292 110 q 377 236 348 186 q 428 342 406 287 q 434 395 431 367 q 443 456 437 424 q 448 483 445 470 q 457 507 452 496 q 435 525 447 515 q 408 543 422 534 q 376 558 393 552 q 340 564 359 564 q 281 548 309 564 q 230 508 253 533 q 188 450 207 483 q 156 384 169 418 q 136 316 143 350 q 129 257 129 283 q 137 177 129 213 q 158 117 145 142 q 190 78 172 92 q 229 65 209 65 m 596 611 q 557 564 573 592 q 535 487 542 536 q 524 340 524 407 q 524 216 524 274 q 519 105 524 158 q 505 0 515 52 q 461 -131 493 -69 q 387 -239 430 -193 q 292 -312 344 -285 q 186 -339 240 -339 q 124 -330 157 -339 q 63 -309 91 -322 q 15 -283 34 -297 q -3 -256 -3 -268 q 5 -230 -3 -245 q 26 -203 14 -215 q 48 -181 37 -190 q 64 -173 60 -173 q 75 -179 70 -173 q 90 -196 81 -186 q 110 -218 98 -206 q 139 -240 122 -230 q 181 -257 156 -250 q 237 -264 205 -264 q 343 -204 304 -264 q 402 -32 382 -145 q 412 38 408 5 q 416 104 416 72 q 416 165 416 135 q 416 227 416 196 q 370 140 399 185 q 309 57 341 94 q 243 -3 277 20 q 180 -28 210 -28 q 132 -15 158 -28 q 85 25 107 -2 q 49 98 63 54 q 35 206 35 143 q 47 311 35 260 q 84 409 59 362 q 146 496 108 455 q 233 571 183 537 q 274 594 252 583 q 319 615 296 606 q 364 629 342 624 q 408 635 387 635 q 437 630 423 635 q 465 619 452 626 q 490 604 478 612 q 513 589 502 596 q 546 615 528 604 q 580 635 563 626 l 596 611 m 547 726 q 532 706 537 712 q 516 696 527 700 l 375 875 l 190 696 q 179 706 183 700 q 167 726 174 712 l 360 978 l 422 978 l 547 726 "},"ß":{"x_min":-101.65625,"x_max":638,"ha":678,"o":"m 638 831 q 620 731 638 770 q 575 664 602 691 q 517 619 548 637 q 460 584 486 601 q 415 547 433 567 q 398 495 398 527 q 414 452 398 471 q 457 415 431 433 q 512 379 482 398 q 567 337 542 360 q 610 283 593 313 q 627 210 627 252 q 611 126 627 168 q 564 49 595 83 q 490 -6 534 15 q 388 -28 445 -28 q 332 -18 360 -28 q 281 6 303 -8 q 245 38 259 20 q 232 70 232 55 q 239 90 232 77 q 258 117 247 104 q 281 140 269 130 q 300 151 292 151 q 308 142 304 151 q 319 121 313 133 q 333 94 325 109 q 354 67 342 79 q 382 46 366 55 q 421 38 399 38 q 505 68 475 38 q 535 157 535 99 q 518 226 535 199 q 476 275 501 254 q 422 313 451 296 q 367 349 392 330 q 325 392 342 368 q 309 453 309 417 q 319 520 309 493 q 345 568 329 548 q 383 603 362 588 q 425 629 404 617 q 468 655 447 642 q 505 685 489 668 q 531 725 521 702 q 542 782 542 748 q 534 842 542 812 q 511 895 527 871 q 470 933 495 918 q 409 948 445 948 q 340 921 371 948 q 286 853 310 895 q 247 756 263 810 q 226 645 232 702 l 166 130 q 136 -14 158 55 q 83 -143 115 -83 q 8 -251 50 -203 q -83 -329 -33 -298 l -101 -286 q -39 -226 -67 -267 q 8 -133 -12 -186 q 42 -21 29 -80 q 62 93 56 38 l 122 609 q 142 716 128 665 q 178 812 156 767 q 232 896 200 857 q 307 966 264 935 q 345 993 325 981 q 383 1013 364 1004 q 421 1025 403 1021 q 454 1030 439 1030 q 532 1012 498 1030 q 590 966 566 994 q 625 902 613 937 q 638 831 638 866 "},"s":{"x_min":-3,"x_max":472.71875,"ha":482,"o":"m 472 572 q 445 544 459 557 q 421 522 432 532 q 400 508 409 513 q 386 503 391 503 q 367 514 377 503 q 345 540 357 526 q 316 566 333 554 q 277 578 299 578 q 240 570 258 578 q 207 551 222 563 q 184 520 193 538 q 175 481 175 502 q 197 430 175 457 q 274 379 220 404 q 330 349 302 366 q 380 310 358 332 q 416 260 402 288 q 430 196 430 232 q 405 108 430 149 q 344 36 381 67 q 260 -10 306 6 q 170 -28 214 -28 q 107 -18 138 -28 q 51 4 76 -9 q 12 35 27 18 q -3 66 -3 52 q 5 87 -3 73 q 24 116 13 102 q 47 140 35 129 q 66 151 58 151 q 75 142 70 151 q 88 121 80 134 q 107 93 96 108 q 134 66 118 79 q 172 45 150 53 q 224 37 194 37 q 269 46 248 37 q 306 70 290 55 q 331 106 322 85 q 341 151 341 127 q 330 198 341 177 q 301 237 319 220 q 260 269 283 254 q 210 295 236 283 q 150 329 175 312 q 110 364 125 346 q 89 401 95 381 q 83 443 83 421 q 104 521 83 485 q 158 581 125 556 q 232 621 191 607 q 313 635 273 635 q 371 626 347 635 q 413 607 395 618 q 444 586 431 597 q 472 572 458 576 "},"Ű":{"x_min":113.796875,"x_max":871.515625,"ha":832,"o":"m 867 825 q 800 804 824 815 q 775 783 777 792 l 714 347 q 673 189 702 258 q 601 73 644 120 q 501 3 557 27 q 377 -21 444 -21 q 275 -4 321 -21 q 195 45 229 12 q 144 125 162 78 q 126 236 126 173 q 132 313 126 271 l 198 783 q 178 803 199 791 q 113 825 157 815 l 117 854 l 395 854 l 391 825 q 322 804 348 815 q 294 783 296 792 l 234 345 q 232 306 232 325 q 232 268 232 286 q 243 182 232 221 q 277 116 255 144 q 334 73 300 88 q 412 58 368 58 q 493 79 456 58 q 558 137 530 101 q 606 220 587 173 q 631 317 624 266 l 693 783 q 676 803 695 791 q 613 825 657 815 l 617 855 l 871 855 l 867 825 m 442 913 q 425 918 432 914 q 410 930 419 922 l 554 1207 q 570 1204 560 1205 q 588 1199 579 1202 q 606 1195 598 1197 q 620 1190 615 1192 l 631 1162 l 442 913 m 615 913 q 599 918 605 914 q 583 930 593 922 l 727 1207 q 743 1204 734 1205 q 762 1199 752 1202 q 780 1195 771 1197 q 794 1190 788 1192 l 805 1162 l 615 913 "},"?":{"x_min":109.734375,"x_max":549,"ha":552,"o":"m 300 103 q 292 60 300 82 q 272 20 285 38 q 240 -9 259 2 q 198 -21 222 -21 q 157 -2 173 -21 q 142 46 142 15 q 149 87 142 65 q 171 126 157 108 q 203 155 184 143 q 243 167 221 167 q 284 149 269 167 q 300 103 300 131 m 549 804 q 531 700 549 744 q 487 618 514 655 q 429 551 461 582 q 369 486 398 519 q 318 415 340 453 q 289 329 296 378 l 280 264 q 257 248 268 254 q 230 236 247 241 l 217 250 l 217 329 q 234 412 217 374 q 277 485 251 450 q 331 552 302 519 q 383 617 359 584 q 423 687 407 650 q 440 765 440 723 q 410 869 440 833 q 322 906 381 906 q 272 893 294 906 q 237 858 250 880 q 220 806 224 836 q 222 745 216 777 q 195 733 207 738 q 172 726 183 729 q 149 721 161 723 q 123 718 138 720 l 109 739 q 128 824 109 783 q 183 898 147 865 q 268 950 218 930 q 380 970 318 970 q 455 957 424 970 q 507 921 487 944 q 538 869 528 899 q 549 804 549 839 "},"c":{"x_min":36,"x_max":551.40625,"ha":539,"o":"m 551 553 q 521 531 537 542 q 490 510 505 519 q 462 495 475 501 q 440 489 449 489 q 421 500 432 489 q 396 526 411 512 q 363 552 381 540 q 323 564 345 564 q 266 549 292 564 q 219 508 240 534 q 182 450 198 483 q 156 382 166 417 q 140 310 145 346 q 135 242 135 274 q 144 163 135 198 q 172 102 154 127 q 214 64 189 78 q 267 51 238 51 q 299 55 280 51 q 342 70 318 59 q 398 100 367 81 q 465 149 428 119 q 476 134 470 142 q 486 121 482 127 q 391 44 433 73 q 315 -1 349 14 q 253 -22 280 -17 q 201 -28 225 -28 q 149 -16 178 -28 q 96 23 121 -4 q 53 99 70 52 q 36 218 36 147 q 45 312 36 263 q 76 407 55 360 q 131 495 97 453 q 216 571 166 537 q 258 594 235 583 q 306 615 281 606 q 355 629 331 624 q 400 635 379 635 q 453 623 430 635 q 495 597 476 612 q 527 569 513 582 q 551 553 541 556 "}}}
